<svg width="91" height="39" viewBox="0 0 91 39" fill="none" xmlns="http://www.w3.org/2000/svg">
<path d="M8.85362 37.2244H5.48739L4.77674 38.8701H3.79492L6.75908 32.2125H7.57259L10.5461 38.8701H9.56427L8.85362 37.2244ZM8.52635 36.4576L7.17051 33.2878L5.81466 36.4576H8.52635Z" fill="black"/>
<path d="M15.4198 34.1574V38.8701H14.5034V38.0847C14.3538 38.3589 14.1481 38.5709 13.8862 38.7205C13.6244 38.8639 13.3283 38.9356 12.9979 38.9356C11.8634 38.9356 11.2961 38.306 11.2961 37.0467V34.1574H12.2312V37.0374C12.2312 37.4239 12.3091 37.7106 12.4649 37.8976C12.627 38.0784 12.8701 38.1688 13.1943 38.1688C13.5808 38.1688 13.8894 38.0441 14.12 37.7948C14.3569 37.5454 14.4753 37.2151 14.4753 36.8036V34.1574H15.4198Z" fill="black"/>
<path d="M18.028 34.8867V37.2525C18.028 37.5766 18.0966 37.8073 18.2337 37.9444C18.3771 38.0753 18.5735 38.1408 18.8228 38.1408C18.9849 38.1408 19.1501 38.1158 19.3184 38.066V38.8327C19.1127 38.9013 18.8789 38.9356 18.6171 38.9356C18.1309 38.9356 17.7537 38.7984 17.4857 38.5241C17.2176 38.2499 17.0836 37.8509 17.0836 37.3273V34.8867H16.1672V34.1574H17.0836V32.9792L18.028 32.6519V34.1574H19.3277V34.8867H18.028Z" fill="black"/>
<path d="M22.706 34.0452C23.8343 34.0452 24.3984 34.6748 24.3984 35.934V38.8701H23.454V35.9901C23.454 35.5787 23.373 35.2795 23.2109 35.0925C23.055 34.9054 22.8026 34.8119 22.4535 34.8119C22.0545 34.8119 21.7335 34.9366 21.4904 35.186C21.2535 35.4353 21.135 35.7688 21.135 36.1865V38.8701H20.2V31.988H21.135V34.8867C21.2909 34.6125 21.506 34.4036 21.7802 34.2602C22.0545 34.1169 22.3631 34.0452 22.706 34.0452Z" fill="black"/>
<path d="M27.7719 38.9356C27.3106 38.9356 26.9054 38.8358 26.5563 38.6363C26.2072 38.4369 25.936 38.1532 25.7428 37.7854C25.5558 37.4176 25.4623 36.9875 25.4623 36.4951C25.4623 36.0026 25.5558 35.5725 25.7428 35.2047C25.936 34.8306 26.2072 34.5439 26.5563 34.3444C26.9054 34.1449 27.3106 34.0452 27.7719 34.0452C28.227 34.0452 28.629 34.1449 28.9781 34.3444C29.3272 34.5439 29.5953 34.8306 29.7823 35.2047C29.9755 35.5725 30.0722 36.0026 30.0722 36.4951C30.0722 36.9875 29.9755 37.4176 29.7823 37.7854C29.5953 38.1532 29.3272 38.4369 28.9781 38.6363C28.629 38.8358 28.227 38.9356 27.7719 38.9356ZM27.7625 38.1875C28.1989 38.1875 28.5324 38.0441 28.7631 37.7574C28.9937 37.4706 29.109 37.0499 29.109 36.4951C29.109 35.9527 28.9906 35.5351 28.7537 35.2421C28.5231 34.9491 28.1958 34.8026 27.7719 34.8026C27.3418 34.8026 27.0083 34.9491 26.7714 35.2421C26.5345 35.5351 26.416 35.9527 26.416 36.4951C26.416 37.0499 26.5314 37.4706 26.762 37.7574C26.9989 38.0441 27.3324 38.1875 27.7625 38.1875Z" fill="black"/>
<path d="M33.5231 34.0452C33.6664 34.0452 33.816 34.067 33.9719 34.1106L33.9532 34.9709C33.7849 34.9086 33.601 34.8774 33.4015 34.8774C32.9714 34.8774 32.6472 35.0083 32.429 35.2701C32.2171 35.5257 32.1111 35.8499 32.1111 36.2426V38.8701H31.176V35.4852C31.176 34.9927 31.1511 34.5501 31.1012 34.1574H31.9802L32.0644 35.0083C32.189 34.6966 32.3823 34.4597 32.6441 34.2976C32.9059 34.1293 33.1989 34.0452 33.5231 34.0452Z" fill="black"/>
<path d="M34.6917 34.1574H35.6267V38.8701H34.6917V34.1574ZM35.7015 32.1002V33.0914H34.6075V32.1002H35.7015Z" fill="black"/>
<path d="M40.8168 38.1408V38.8701H36.7866V38.2156L39.5731 34.8867H36.8615V34.1574H40.7139V34.8213L37.9274 38.1408H40.8168Z" fill="black"/>
<path d="M45.8076 36.5325H42.4414C42.4726 37.6358 42.9744 38.1875 43.9468 38.1875C44.4892 38.1875 44.9848 38.0099 45.4336 37.6545L45.7235 38.3278C45.5115 38.5148 45.2403 38.6644 44.91 38.7766C44.5858 38.8826 44.2585 38.9356 43.9281 38.9356C43.1739 38.9356 42.5816 38.7205 42.1515 38.2904C41.7214 37.854 41.5063 37.2587 41.5063 36.5044C41.5063 36.0244 41.5998 35.5974 41.7868 35.2234C41.9801 34.8493 42.2481 34.5595 42.591 34.3538C42.9339 34.148 43.3235 34.0452 43.7598 34.0452C44.3957 34.0452 44.8944 34.2509 45.2559 34.6623C45.6237 35.0738 45.8076 35.6441 45.8076 36.3735V36.5325ZM43.7785 34.7465C43.4232 34.7465 43.1333 34.8525 42.9089 35.0644C42.6845 35.2763 42.5411 35.5787 42.4788 35.9714H44.9754C44.938 35.5725 44.8164 35.2701 44.6107 35.0644C44.405 34.8525 44.1276 34.7465 43.7785 34.7465Z" fill="black"/>
<path d="M51.202 31.988V38.8701H50.2669V38.066C50.1298 38.3465 49.9241 38.5615 49.6498 38.7112C49.3817 38.8608 49.0669 38.9356 48.7054 38.9356C48.3002 38.9356 47.9386 38.8327 47.6207 38.627C47.3028 38.4213 47.0534 38.1345 46.8726 37.7667C46.6981 37.3927 46.6108 36.9626 46.6108 36.4763C46.6108 35.9901 46.6981 35.5631 46.8726 35.1953C47.0472 34.8275 47.2903 34.5439 47.602 34.3444C47.9199 34.1449 48.2877 34.0452 48.7054 34.0452C49.0607 34.0452 49.3724 34.12 49.6404 34.2696C49.9147 34.4192 50.1204 34.6312 50.2576 34.9054V31.988H51.202ZM48.9204 38.1875C49.3506 38.1875 49.681 38.041 49.9116 37.748C50.1485 37.4488 50.2669 37.0312 50.2669 36.4951C50.2669 35.9589 50.1485 35.5444 49.9116 35.2514C49.681 34.9522 49.3537 34.8026 48.9298 34.8026C48.4997 34.8026 48.163 34.9491 47.9199 35.2421C47.683 35.5351 47.5646 35.9465 47.5646 36.4763C47.5646 37.0125 47.683 37.4332 47.9199 37.7387C48.163 38.0379 48.4965 38.1875 48.9204 38.1875Z" fill="black"/>
<path d="M60.5057 38.8701H59.4864L58.6542 36.654C58.567 36.4171 58.4392 36.2551 58.2709 36.1678C58.1026 36.0743 57.8719 36.0275 57.5789 36.0275H56.1202V38.8701H55.1664V32.2125H57.9062C58.6355 32.2125 59.1935 32.3745 59.58 32.6987C59.9727 33.0228 60.169 33.4873 60.169 34.0919C60.169 34.5283 60.0537 34.8992 59.8231 35.2047C59.5924 35.5101 59.2651 35.7252 58.8413 35.8499C59.2277 35.9184 59.5083 36.1927 59.6828 36.6727L60.5057 38.8701ZM57.794 35.2514C58.2802 35.2514 58.6418 35.1579 58.8787 34.9709C59.1155 34.7776 59.234 34.4909 59.234 34.1106C59.234 33.7304 59.1155 33.4499 58.8787 33.2691C58.648 33.0821 58.2865 32.9886 57.794 32.9886H56.1202V35.2514H57.794Z" fill="black"/>
<path d="M65.623 36.5325H62.2567C62.2879 37.6358 62.7897 38.1875 63.7622 38.1875C64.3045 38.1875 64.8001 38.0099 65.2489 37.6545L65.5388 38.3278C65.3269 38.5148 65.0557 38.6644 64.7253 38.7766C64.4011 38.8826 64.0739 38.9356 63.7435 38.9356C62.9892 38.9356 62.397 38.7205 61.9669 38.2904C61.5367 37.854 61.3217 37.2587 61.3217 36.5044C61.3217 36.0244 61.4152 35.5974 61.6022 35.2234C61.7954 34.8493 62.0635 34.5595 62.4063 34.3538C62.7492 34.148 63.1388 34.0452 63.5752 34.0452C64.211 34.0452 64.7097 34.2509 65.0713 34.6623C65.4391 35.0738 65.623 35.6441 65.623 36.3735V36.5325ZM63.5939 34.7465C63.2385 34.7465 62.9487 34.8525 62.7243 35.0644C62.4998 35.2763 62.3565 35.5787 62.2941 35.9714H64.7908C64.7534 35.5725 64.6318 35.2701 64.4261 35.0644C64.2204 34.8525 63.943 34.7465 63.5939 34.7465Z" fill="black"/>
<path d="M68.3524 38.9356C67.5295 38.9356 66.8812 38.7361 66.4075 38.3371L66.688 37.6545C67.1805 38.0286 67.7446 38.2156 68.3805 38.2156C68.7046 38.2156 68.9508 38.1626 69.1192 38.0566C69.2875 37.9444 69.3716 37.7886 69.3716 37.5891C69.3716 37.4208 69.3124 37.2899 69.194 37.1963C69.0818 37.0966 68.8885 37.0125 68.6142 36.9439L67.8288 36.7569C67.4173 36.6696 67.1025 36.5169 66.8843 36.2987C66.6724 36.0743 66.5664 35.7969 66.5664 35.4665C66.5664 35.0426 66.7347 34.6997 67.0714 34.4379C67.4142 34.1761 67.8662 34.0452 68.4272 34.0452C68.7638 34.0452 69.0818 34.0982 69.381 34.2041C69.6864 34.3101 69.9451 34.4597 70.1571 34.653L69.8672 35.3169C69.4121 34.9553 68.9321 34.7745 68.4272 34.7745C68.1218 34.7745 67.8849 34.8338 67.7166 34.9522C67.5482 35.0644 67.4641 35.2234 67.4641 35.4291C67.4641 35.5912 67.5171 35.7221 67.6231 35.8218C67.729 35.9215 67.8973 35.9995 68.128 36.0556L68.9321 36.2519C69.381 36.3517 69.7114 36.5106 69.9233 36.7288C70.1415 36.9408 70.2506 37.2182 70.2506 37.561C70.2506 37.9849 70.0792 38.3215 69.7363 38.5709C69.3997 38.814 68.9384 38.9356 68.3524 38.9356Z" fill="black"/>
<path d="M75.3845 36.5325H72.0183C72.0495 37.6358 72.5513 38.1875 73.5238 38.1875C74.0661 38.1875 74.5617 38.0099 75.0105 37.6545L75.3004 38.3278C75.0884 38.5148 74.8173 38.6644 74.4869 38.7766C74.1627 38.8826 73.8354 38.9356 73.505 38.9356C72.7508 38.9356 72.1586 38.7205 71.7284 38.2904C71.2983 37.854 71.0832 37.2587 71.0832 36.5044C71.0832 36.0244 71.1767 35.5974 71.3637 35.2234C71.557 34.8493 71.825 34.5595 72.1679 34.3538C72.5108 34.148 72.9004 34.0452 73.3367 34.0452C73.9726 34.0452 74.4713 34.2509 74.8328 34.6623C75.2006 35.0738 75.3845 35.6441 75.3845 36.3735V36.5325ZM73.3554 34.7465C73.0001 34.7465 72.7102 34.8525 72.4858 35.0644C72.2614 35.2763 72.118 35.5787 72.0557 35.9714H74.5523C74.5149 35.5725 74.3934 35.2701 74.1876 35.0644C73.9819 34.8525 73.7045 34.7465 73.3554 34.7465Z" fill="black"/>
<path d="M76.4683 31.988H77.4033V38.8701H76.4683V31.988Z" fill="black"/>
<path d="M78.7877 31.988H79.7227V38.8701H78.7877V31.988Z" fill="black"/>
<path d="M85.1278 36.5325H81.7616C81.7928 37.6358 82.2946 38.1875 83.2671 38.1875C83.8094 38.1875 84.305 38.0099 84.7538 37.6545L85.0437 38.3278C84.8317 38.5148 84.5606 38.6644 84.2302 38.7766C83.906 38.8826 83.5787 38.9356 83.2484 38.9356C82.4941 38.9356 81.9019 38.7205 81.4717 38.2904C81.0416 37.854 80.8265 37.2587 80.8265 36.5044C80.8265 36.0244 80.92 35.5974 81.1071 35.2234C81.3003 34.8493 81.5684 34.5595 81.9112 34.3538C82.2541 34.148 82.6437 34.0452 83.08 34.0452C83.7159 34.0452 84.2146 34.2509 84.5761 34.6623C84.9439 35.0738 85.1278 35.6441 85.1278 36.3735V36.5325ZM83.0987 34.7465C82.7434 34.7465 82.4536 34.8525 82.2291 35.0644C82.0047 35.2763 81.8613 35.5787 81.799 35.9714H84.2956C84.2582 35.5725 84.1367 35.2701 83.931 35.0644C83.7252 34.8525 83.4478 34.7465 83.0987 34.7465Z" fill="black"/>
<path d="M88.5586 34.0452C88.702 34.0452 88.8516 34.067 89.0074 34.1106L88.9887 34.9709C88.8204 34.9086 88.6365 34.8774 88.437 34.8774C88.0069 34.8774 87.6827 35.0083 87.4645 35.2701C87.2526 35.5257 87.1466 35.8499 87.1466 36.2426V38.8701H86.2116V35.4852C86.2116 34.9927 86.1866 34.5501 86.1368 34.1574H87.0157L87.0999 35.0083C87.2245 34.6966 87.4178 34.4597 87.6796 34.2976C87.9414 34.1293 88.2344 34.0452 88.5586 34.0452Z" fill="black"/>
<path d="M13.5244 10.2064C14.2222 10.4094 14.8438 10.7012 15.3766 11.1579C16.2139 11.8556 16.6706 12.769 16.7974 13.8473C16.8989 14.6592 16.8482 15.4711 16.6452 16.2576C16.29 17.6404 15.4146 18.5411 14.108 19.0485C13.2707 19.3784 12.4081 19.5433 11.5201 19.594C10.7716 19.6448 10.0104 19.6574 9.24927 19.6574C6.3315 19.6701 3.42642 19.6574 0.508649 19.6574C0.445219 19.6574 0.394475 19.6574 0.318359 19.6574C0.318359 18.5665 0.318359 17.4755 0.318359 16.3718C0.800426 16.3718 1.26981 16.3718 1.76456 16.3718C1.76456 12.6421 1.76456 8.93782 1.76456 5.20815C1.28249 5.20815 0.800426 5.20815 0.318359 5.20815C0.318359 4.11716 0.318359 3.03885 0.318359 1.93517C0.369103 1.93517 0.419847 1.92249 0.483277 1.92249C3.60402 1.92249 6.71208 1.92249 9.83282 1.92249C10.9619 1.92249 12.0782 2.02397 13.1565 2.39187C13.7908 2.60753 14.3617 2.91199 14.8565 3.36868C15.5288 4.00298 15.8713 4.78951 15.9601 5.69021C16.0236 6.32451 15.9855 6.97149 15.884 7.59311C15.7064 8.5953 15.1609 9.33108 14.2729 9.81315C14.0192 9.96538 13.7782 10.0796 13.5244 10.2064ZM7.02923 11.9571C7.02923 13.4413 7.02923 14.9002 7.02923 16.3591C7.06729 16.3591 7.09266 16.3718 7.11803 16.3718C7.7777 16.3718 8.42468 16.3845 9.08435 16.3591C9.33807 16.3464 9.60448 16.2957 9.84551 16.1942C10.6574 15.877 11.1268 15.0778 11.1014 14.1264C11.076 12.769 10.2515 11.9317 8.90675 11.9571C8.39931 11.9698 7.90456 11.9571 7.39712 11.9571C7.28295 11.9571 7.15609 11.9571 7.02923 11.9571ZM7.02923 9.11542C7.72696 9.09005 8.42468 9.10273 9.10972 9.0393C9.68059 8.97588 10.0358 8.62067 10.188 8.06249C10.3149 7.60579 10.3403 7.13641 10.2515 6.67972C10.1119 5.91856 9.56642 5.36038 8.85601 5.32232C8.25977 5.28426 7.66353 5.30963 7.06729 5.30963C7.0546 5.30963 7.0546 5.32232 7.04191 5.33501C7.02923 6.55286 7.02923 7.80877 7.02923 9.11542Z" fill="black"/>
<path d="M76.0155 7.69457C76.0155 7.61846 76.0155 7.56771 76.0155 7.52966C76.0155 6.38792 76.0155 5.25887 76.0155 4.11714C76.0155 3.97759 75.9774 3.93953 75.8379 3.93953C75.5081 3.95222 75.1909 3.93953 74.8484 3.93953C74.8484 2.83585 74.8484 1.75755 74.8484 0.65387C76.9416 0.65387 79.0474 0.65387 81.1533 0.65387C81.1533 5.89317 81.1533 11.1198 81.1533 16.3718C81.5593 16.3718 81.9525 16.3718 82.3585 16.3718C82.3585 17.4754 82.3585 18.5664 82.3585 19.6701C82.3077 19.6701 82.257 19.6701 82.2062 19.6701C80.3287 19.6701 78.4639 19.6701 76.5864 19.6701C76.4722 19.6701 76.4088 19.6447 76.358 19.5306C76.2438 19.2642 76.1297 19.0104 76.0028 18.744C75.9774 18.7567 75.9521 18.7694 75.9394 18.7821C74.9752 19.5813 73.8589 19.9238 72.6283 19.8858C70.7381 19.8223 69.2793 18.9724 68.2009 17.4374C66.6913 15.2935 66.4883 12.1473 67.7062 9.85119C68.6069 8.16395 70.0024 7.11102 71.9052 6.79387C73.3007 6.56552 74.6327 6.78118 75.8379 7.56771C75.8886 7.61846 75.9394 7.64383 76.0155 7.69457ZM76.0536 13.1242C75.9901 12.7182 75.9521 12.2996 75.8633 11.8936C75.7364 11.3354 75.4954 10.8153 75.064 10.4094C74.5059 9.87656 73.7701 9.88924 73.2246 10.4347C72.9836 10.6758 72.8186 10.9549 72.7045 11.272C72.3239 12.3503 72.2858 13.4413 72.5776 14.545C72.7171 15.0524 72.9201 15.5218 73.3007 15.9024C73.8208 16.4352 74.5186 16.4606 75.0894 15.9785C75.3431 15.7628 75.5334 15.4837 75.673 15.192C75.9648 14.5323 76.0282 13.8346 76.0536 13.1242Z" fill="black"/>
<path d="M59.4352 20C58.0397 19.9873 56.6696 19.6828 55.4264 18.9344C53.7519 17.9195 52.7751 16.4352 52.4833 14.507C52.2803 13.1496 52.3945 11.8175 52.9527 10.5616C53.7392 8.82366 55.0712 7.69461 56.8599 7.09837C58.9277 6.40064 60.9702 6.55287 62.9238 7.50432C64.7506 8.39233 65.8289 9.90196 66.2348 11.8937C66.5139 13.2891 66.4759 14.6719 65.9558 16.0166C65.2453 17.8561 63.8753 19.0105 62.0358 19.6321C61.2112 19.8858 60.3486 20 59.4352 20ZM61.2239 13.3906C61.1985 13.0354 61.1732 12.6802 61.1351 12.3377C61.1097 12.1347 61.0717 11.9317 61.0209 11.7414C60.8941 11.234 60.6911 10.7646 60.3105 10.384C59.7143 9.81316 58.9404 9.83853 58.433 10.4855C58.2681 10.7012 58.1158 10.9422 58.0144 11.1832C57.4815 12.528 57.4942 13.8854 57.9129 15.2427C58.0524 15.6741 58.2681 16.0673 58.5979 16.3718C59.1688 16.8919 59.9299 16.8666 60.4247 16.2703C60.615 16.042 60.7545 15.7756 60.8687 15.4965C61.1351 14.8368 61.1985 14.1137 61.2239 13.3906Z" fill="black"/>
<path d="M51.3161 6.97151C51.3161 8.07519 51.3161 9.16618 51.3161 10.2699C50.5549 10.2699 49.7938 10.2699 49.0199 10.2699C49.0199 12.2996 49.0199 14.304 49.0199 16.3337C49.5147 16.3337 50.0221 16.3337 50.5169 16.3337C50.5169 17.4501 50.5169 18.5411 50.5169 19.6448C48.0051 19.6448 45.4932 19.6448 42.9687 19.6448C42.9687 18.5538 42.9687 17.4501 42.9687 16.3464C43.2986 16.3464 43.6157 16.3464 43.9582 16.3464C43.9582 14.3167 43.9582 12.3123 43.9582 10.2825C43.6284 10.2825 43.2859 10.2825 42.9434 10.2825C42.9434 9.17886 42.9434 8.08787 42.9434 6.98419C43.2859 6.98419 43.6157 6.98419 43.9709 6.98419C43.9709 6.90808 43.9709 6.85733 43.9709 6.80659C43.9709 6.10886 43.9709 5.41113 43.9709 4.72609C43.9836 4.01568 44.0978 3.33064 44.3769 2.68366C44.9097 1.45312 45.8738 0.742704 47.1551 0.41287C48.0685 0.171837 48.9946 0.159151 49.9206 0.235267C50.7452 0.311382 51.5571 0.425556 52.3563 0.679275C52.4705 0.717333 52.5974 0.768076 52.7369 0.81882C52.2295 1.79564 51.722 2.77246 51.24 3.68585C50.834 3.62242 50.4534 3.5463 50.0602 3.49556C49.5274 3.43213 49.1341 3.53361 49.0326 4.3582C48.9946 4.70072 49.0072 5.04324 48.9946 5.38576C48.9946 5.90589 48.9946 6.42601 48.9946 6.97151C49.7811 6.97151 50.5422 6.97151 51.3161 6.97151Z" fill="black"/>
<path d="M33.5053 19.6575C31.0442 19.6575 28.5831 19.6575 26.1221 19.6575C26.1221 18.5538 26.1221 17.4628 26.1221 16.3464C26.4773 16.3464 26.8325 16.3464 27.1877 16.3464C27.1877 12.1981 27.1877 8.06252 27.1877 3.91421C26.8452 3.91421 26.5026 3.91421 26.1474 3.91421C26.1474 2.81053 26.1474 1.73223 26.1474 0.641235C28.1011 0.641235 30.0547 0.641235 32.021 0.641235C32.021 5.86785 32.021 11.0945 32.021 16.3338C32.5158 16.3338 33.0105 16.3338 33.5053 16.3338C33.5053 17.4501 33.5053 18.5538 33.5053 19.6575Z" fill="black"/>
<path d="M40.4312 16.3464C40.9386 16.3464 41.4207 16.3464 41.9154 16.3464C41.9154 17.4501 41.9154 18.5538 41.9154 19.6575C39.4671 19.6575 37.006 19.6575 34.5322 19.6575C34.5322 18.5665 34.5322 17.4628 34.5322 16.3464C34.8874 16.3464 35.23 16.3464 35.5978 16.3464C35.5978 12.1981 35.5978 8.06252 35.5978 3.91421C35.2553 3.91421 34.9128 3.91421 34.5576 3.91421C34.5576 2.81053 34.5576 1.73223 34.5576 0.641235C36.5112 0.641235 38.4522 0.641235 40.4312 0.641235C40.4312 5.88053 40.4312 11.1071 40.4312 16.3464Z" fill="black"/>
<path d="M90.7817 16.3464C90.7817 17.4628 90.7817 18.5538 90.7817 19.6575C88.3206 19.6575 85.8595 19.6575 83.3984 19.6575C83.3984 18.5665 83.3984 17.4628 83.3984 16.3464C83.7536 16.3464 84.0962 16.3464 84.4641 16.3464C84.4641 12.1981 84.4641 8.06252 84.4641 3.91421C84.1215 3.91421 83.779 3.91421 83.4238 3.91421C83.4238 2.81053 83.4238 1.73223 83.4238 0.641235C85.3774 0.641235 87.3184 0.641235 89.2974 0.641235C89.2974 5.86785 89.2974 11.0945 89.2974 16.3338C89.7922 16.3464 90.2869 16.3464 90.7817 16.3464Z" fill="black"/>
<path d="M23.6226 6.98419C23.6226 10.1049 23.6226 13.213 23.6226 16.3337C24.0286 16.3337 24.4218 16.3337 24.8278 16.3337C24.8278 17.4501 24.8278 18.5411 24.8278 19.6575C22.4682 19.6575 20.1213 19.6575 17.749 19.6575C17.749 18.5665 17.749 17.4628 17.749 16.3464C18.0915 16.3464 18.4341 16.3464 18.7893 16.3464C18.7893 14.3167 18.7893 12.3123 18.7893 10.2825C18.4467 10.2825 18.0915 10.2825 17.7363 10.2825C17.7363 9.17886 17.7363 8.08787 17.7363 6.98419C19.7027 6.98419 21.6563 6.98419 23.6226 6.98419Z" fill="black"/>
<path d="M21.06 0.67926C22.354 0.717318 23.242 1.22476 23.7494 2.30306C24.3584 3.57166 23.7621 5.10666 22.4428 5.6141C21.3645 6.03273 20.3115 5.95662 19.3981 5.18277C18.6877 4.58653 18.3072 3.81269 18.4848 2.86124C18.6877 1.84637 19.2967 1.16133 20.2862 0.831492C20.5779 0.730004 20.8824 0.717318 21.06 0.67926Z" fill="black"/>
</svg>
