<svg viewBox="0 0 91 40" xmlns="http://www.w3.org/2000/svg"><g fill="#000"><path d="m13.2061 10.2064c.6977.203 1.3193.4948 1.8521.9515.8373.6977 1.294 1.6111 1.4209 2.6894.1014.8119.0507 1.6238-.1523 2.4103-.3552 1.3828-1.2305 2.2835-2.5372 2.7909-.8372.3299-1.6999.4948-2.5879.5455-.7485.0508-1.50963.0634-2.27079.0634-2.91777.0127-5.82285 0-8.740621 0-.063429 0-.1141733 0-.190289 0 0-1.0909 0-2.1819 0-3.2856h1.4462c0-3.7297 0-7.43398 0-11.16365-.482068 0-.964134 0-1.4462 0 0-1.09099 0-2.1693 0-3.27298.0507438 0 .101488-.01268.164917-.01268h9.349543c1.12904 0 2.24544.10148 3.32374.46938.6343.21566 1.2052.52012 1.6999.97681.6724.6343 1.0149 1.42083 1.1037 2.32153.0634.6343.0254 1.28128-.0761 1.9029-.1776 1.00219-.7231 1.73797-1.6112 2.22004-.2537.15223-.4947.26645-.7484.39325zm-6.49523 1.7507v4.402c.03806 0 .06343.0127.0888.0127.65967 0 1.30665.0127 1.96632-.0127.25372-.0127.52013-.0634.76116-.1649.81195-.3172 1.28125-1.1164 1.25595-2.0678-.0254-1.3574-.85-2.1947-2.19471-2.1693-.50744.0127-1.00219 0-1.50963 0-.11417 0-.24103 0-.36789 0zm0-2.84168c.69773-.02537 1.39545-.01269 2.08049-.07612.57087-.06343.92608-.41863 1.07831-.97681.12686-.4567.15223-.92608.06343-1.38277-.13954-.76116-.68504-1.31934-1.39545-1.3574-.59624-.03806-1.19248-.01269-1.78872-.01269-.01269 0-.01269.01269-.02537.02538-.01269 1.21785-.01269 2.47376-.01269 3.78041z"/><path d="m75.6971 7.69457c0-.07611 0-.12686 0-.16491 0-1.14174 0-2.27079 0-3.41252 0-.13955-.038-.17761-.1776-.17761-.3298.01269-.6469 0-.9895 0 0-1.10368 0-2.18198 0-3.28566h6.3049v15.71793h1.2052v3.2983c-.0507 0-.1015 0-.1522 0-1.8775 0-3.7424 0-5.6199 0-.1142 0-.1776-.0254-.2283-.1395-.1142-.2664-.2284-.5202-.3552-.7866-.0254.0127-.0508.0254-.0635.0381-.9641.7992-2.0805 1.1417-3.311 1.1037-1.8902-.0635-3.3491-.9134-4.4274-2.4484-1.5096-2.1439-1.7126-5.2901-.4948-7.58621.9007-1.68724 2.2962-2.74017 4.1991-3.05732 1.3954-.22835 2.7275-.01268 3.9326.77384.0508.05075.1015.07612.1776.12686zm.0381 5.42963c-.0634-.406-.1015-.8246-.1903-1.2306-.1269-.5582-.3679-1.0783-.7992-1.4842-.5582-.53284-1.294-.52016-1.8395.0253-.241.2411-.4059.5202-.5201.8373-.3806 1.0783-.4186 2.1693-.1269 3.273.1396.5074.3426.9768.7231 1.3574.5202.5328 1.2179.5582 1.7888.0761.2537-.2157.444-.4948.5835-.7865.2918-.6597.3552-1.3574.3806-2.0678z"/><path d="m59.1168 20c-1.3954-.0127-2.7655-.3172-4.0087-1.0656-1.6746-1.0149-2.6514-2.4992-2.9432-4.4274-.203-1.3574-.0888-2.6895.4694-3.9454.7865-1.73794 2.1185-2.86699 3.9073-3.46323 2.0678-.69773 4.1102-.5455 6.0639.40595 1.8267.88801 2.905 2.39764 3.311 4.38938.2791 1.3954.241 2.7782-.2791 4.1229-.7104 1.8395-2.0805 2.9939-3.92 3.6155-.8245.2537-1.6872.3679-2.6006.3679zm1.7887-6.6094c-.0253-.3552-.0507-.7104-.0888-1.0529-.0253-.203-.0634-.406-.1141-.5963-.1269-.5074-.3299-.9768-.7105-1.3574-.5962-.57084-1.37-.54547-1.8775.1015-.1649.2157-.3171.4567-.4186.6977-.5328 1.3448-.5201 2.7022-.1015 4.0595.1395.4314.3552.8246.685 1.1291.5709.5201 1.3321.4948 1.8268-.1015.1903-.2283.3299-.4947.444-.7738.2664-.6597.3299-1.3828.3552-2.1059z"/><path d="m50.9977 6.97151v3.29839c-.7611 0-1.5223 0-2.2961 0v6.0638h1.4969v3.3111c-2.5118 0-5.0236 0-7.5481 0 0-1.091 0-2.1947 0-3.2984h.9895c0-2.0297 0-4.0341 0-6.0639-.3299 0-.6724 0-1.0149 0 0-1.10364 0-2.19463 0-3.29831h1.0276c0-.07611 0-.12686 0-.1776 0-.69773 0-1.39546 0-2.0805.0126-.71041.1268-1.39545.4059-2.04243.5328-1.23054 1.497-1.940956 2.7782-2.27079.9134-.241033 1.8395-.253719 2.7656-.177603.8246.076115 1.6365.190289 2.4357.444008.1142.038058.241.088801.3806.139545-.5075.97682-1.0149 1.95364-1.497 2.86703-.4059-.06343-.7865-.13955-1.1798-.19029-.5328-.06343-.9261.03805-1.0275.86264-.0381.34252-.0254.68504-.0381 1.02756v1.58575z"/><path d="m33.1869 19.6575c-2.461 0-4.9221 0-7.3832 0 0-1.1037 0-2.1947 0-3.3111h1.0656c0-4.1483 0-8.28388 0-12.43219-.3425 0-.685 0-1.0402 0 0-1.10368 0-2.18198 0-3.272975h5.8736v15.692565h1.4842z"/><path d="m40.1128 16.3464h1.4843v3.3111c-2.4484 0-4.9095 0-7.3832 0 0-1.091 0-2.1947 0-3.3111h1.0656c0-4.1483 0-8.28388 0-12.43219-.3425 0-.6851 0-1.0403 0 0-1.10368 0-2.18198 0-3.272975h5.8736z"/><path d="m90.4633 16.3464v3.3111c-2.4611 0-4.9221 0-7.3832 0 0-1.091 0-2.1947 0-3.3111h1.0656c0-4.1483 0-8.28388 0-12.43219-.3425 0-.685 0-1.0402 0 0-1.10368 0-2.18198 0-3.272975h5.8735v15.692565c.4948.0126.9896.0126 1.4843.0126z"/><path d="m23.3043 6.98419v9.34951h1.2051v3.3238c-2.3596 0-4.7065 0-7.0787 0 0-1.091 0-2.1947 0-3.3111h1.0402c0-2.0297 0-4.0341 0-6.0639-.3425 0-.6977 0-1.0529 0 0-1.10364 0-2.19463 0-3.29831z"/><path d="m20.7416.67926c1.294.038058 2.182.5455 2.6895 1.6238.6089 1.2686.0127 2.8036-1.3067 3.31104-1.0783.41863-2.1312.34252-3.0446-.43133-.7104-.59624-1.091-1.37008-.9134-2.32153.203-1.01487.8119-1.69991 1.8014-2.029748.2918-.101488.5962-.114174.7738-.152232z"/><path d="m7.85552 36.3632h-3.348l-.7068 1.6368h-.9765l2.9481-6.6216h.8091l2.9574 6.6216h-.9765zm-.3255-.7626-1.3485-3.1527-1.3485 3.1527z"/><path d="m14.3861 33.3128v4.6872h-.9114v-.7812c-.1488.2728-.3534.4836-.6138.6324-.2604.1426-.5549.2139-.8835.2139-1.1284 0-1.6926-.6262-1.6926-1.8786v-2.8737h.93v2.8644c0 .3844.0775.6696.2325.8556.1612.1798.403.2697.7254.2697.3844 0 .6913-.124.9207-.372.2356-.248.3534-.5766.3534-.9858v-2.6319z"/><path d="m16.9802 34.0382v2.3529c0 .3224.0682.5518.2046.6882.1426.1302.3379.1953.5859.1953.1612 0 .3255-.0248.4929-.0744v.7626c-.2046.0682-.4371.1023-.6975.1023-.4836 0-.8587-.1364-1.1253-.4092s-.3999-.6696-.3999-1.1904v-2.4273h-.9114v-.7254h.9114v-1.1718l.9393-.3255v1.4973h1.2927v.7254z"/><path d="m21.6328 33.2012c1.1222 0 1.6833.6262 1.6833 1.8786v2.9202h-.9393v-2.8644c0-.4092-.0806-.7068-.2418-.8928-.155-.186-.4061-.279-.7533-.279-.3968 0-.7161.124-.9579.372-.2356.248-.3534.5797-.3534.9951v2.6691h-.93v-6.8448h.93v2.883c.155-.2728.3689-.4805.6417-.6231s.5797-.2139.9207-.2139z"/><path d="m26.6713 38.0651c-.4588 0-.8618-.0992-1.209-.2976s-.6169-.4805-.8091-.8463c-.186-.3658-.279-.7936-.279-1.2834s.093-.9176.279-1.2834c.1922-.372.4619-.6572.8091-.8556s.7502-.2976 1.209-.2976c.4526 0 .8525.0992 1.1997.2976s.6138.4836.7998.8556c.1922.3658.2883.7936.2883 1.2834s-.0961.9176-.2883 1.2834c-.186.3658-.4526.6479-.7998.8463s-.7471.2976-1.1997.2976zm-.0093-.744c.434 0 .7657-.1426.9951-.4278s.3441-.7037.3441-1.2555c0-.5394-.1178-.9548-.3534-1.2462-.2294-.2914-.5549-.4371-.9765-.4371-.4278 0-.7595.1457-.9951.4371s-.3534.7068-.3534 1.2462c0 .5518.1147.9703.3441 1.2555.2356.2852.5673.4278.9951.4278z"/><path d="m32.3913 33.2012c.1426 0 .2914.0217.4464.0651l-.0186.8556c-.1674-.062-.3503-.093-.5487-.093-.4278 0-.7502.1302-.9672.3906-.2108.2542-.3162.5766-.3162.9672v2.6133h-.93v-3.3666c0-.4898-.0248-.93-.0744-1.3206h.8742l.0837.8463c.124-.31.3162-.5456.5766-.7068.2604-.1674.5518-.2511.8742-.2511z"/><path d="m33.5536 33.3128h.93v4.6872h-.93zm1.0044-2.046v.9858h-1.0881v-.9858z"/><path d="m39.6455 37.2746v.7254h-4.0083v-.651l2.7714-3.3108h-2.697v-.7254h3.8316v.6603l-2.7714 3.3015z"/><path d="m44.6093 35.675h-3.348c.031 1.0974.5301 1.6461 1.4973 1.6461.5394 0 1.0323-.1767 1.4787-.5301l.2883.6696c-.2108.186-.4805.3348-.8091.4464-.3224.1054-.6479.1581-.9765.1581-.7502 0-1.3392-.2139-1.767-.6417-.4278-.434-.6417-1.0261-.6417-1.7763 0-.4774.093-.9021.279-1.2741.1922-.372.4588-.6603.7998-.8649s.7285-.3069 1.1625-.3069c.6324 0 1.1284.2046 1.488.6138.3658.4092.5487.9765.5487 1.7019zm-2.0181-1.7763c-.3534 0-.6417.1054-.8649.3162s-.3658.5115-.4278.9021h2.4831c-.0372-.3968-.1581-.6975-.3627-.9021-.2046-.2108-.4805-.3162-.8277-.3162z"/><path d="m49.9745 31.1552v6.8448h-.93v-.7998c-.1364.279-.341.4929-.6138.6417-.2666.1488-.5797.2232-.9393.2232-.403 0-.7626-.1023-1.0788-.3069s-.5642-.4898-.744-.8556c-.1736-.372-.2604-.7998-.2604-1.2834s.0868-.9083.2604-1.2741.4154-.6479.7254-.8463c.3162-.1984.682-.2976 1.0974-.2976.3534 0 .6634.0744.93.2232.2728.1488.4774.3596.6138.6324v-2.9016zm-2.2692 6.1659c.4278 0 .7564-.1457.9858-.4371.2356-.2976.3534-.713.3534-1.2462s-.1178-.9455-.3534-1.2369c-.2294-.2976-.5549-.4464-.9765-.4464-.4278 0-.7626.1457-1.0044.4371-.2356.2914-.3534.7006-.3534 1.2276 0 .5332.1178.9517.3534 1.2555.2418.2976.5735.4464.9951.4464z"/><path d="m59.2278 38h-1.0137l-.8277-2.2041c-.0868-.2356-.2139-.3968-.3813-.4836-.1674-.093-.3968-.1395-.6882-.1395h-1.4508v2.8272h-.9486v-6.6216h2.7249c.7254 0 1.2803.1612 1.6647.4836.3906.3224.5859.7843.5859 1.3857 0 .434-.1147.8029-.3441 1.1067s-.5549.5177-.9765.6417c.3844.0682.6634.341.837.8184zm-2.697-3.5991c.4836 0 .8432-.093 1.0788-.279.2356-.1922.3534-.4774.3534-.8556s-.1178-.6572-.3534-.837c-.2294-.186-.589-.279-1.0788-.279h-1.6647v2.2506z"/><path d="m64.3173 35.675h-3.348c.031 1.0974.5301 1.6461 1.4973 1.6461.5394 0 1.0323-.1767 1.4787-.5301l.2883.6696c-.2108.186-.4805.3348-.8091.4464-.3224.1054-.6479.1581-.9765.1581-.7502 0-1.3392-.2139-1.767-.6417-.4278-.434-.6417-1.0261-.6417-1.7763 0-.4774.093-.9021.279-1.2741.1922-.372.4588-.6603.7998-.8649s.7285-.3069 1.1625-.3069c.6324 0 1.1284.2046 1.488.6138.3658.4092.5487.9765.5487 1.7019zm-2.0181-1.7763c-.3534 0-.6417.1054-.8649.3162s-.3658.5115-.4278.9021h2.4831c-.0372-.3968-.1581-.6975-.3627-.9021-.2046-.2108-.4805-.3162-.8277-.3162z"/><path d="m66.5681 34.0382v2.3529c0 .3224.0682.5518.2046.6882.1426.1302.3379.1953.5859.1953.1612 0 .3255-.0248.4929-.0744v.7626c-.2046.0682-.4371.1023-.6975.1023-.4836 0-.8587-.1364-1.1253-.4092s-.3999-.6696-.3999-1.1904v-2.4273h-.9114v-.7254h.9114v-1.1718l.9393-.3255v1.4973h1.2927v.7254z"/><path d="m73.0156 33.3128v4.6872h-.93v-.7998c-.1364.279-.341.4929-.6138.6417-.2666.1488-.5797.2232-.9393.2232-.4154 0-.7812-.0992-1.0974-.2976-.31-.1984-.5518-.4774-.7254-.837-.1736-.3658-.2604-.7905-.2604-1.2741s.0868-.9114.2604-1.2834c.1798-.372.4278-.6603.744-.8649s.6758-.3069 1.0788-.3069c.3596 0 .6727.0775.9393.2325.2666.1488.4712.3627.6138.6417v-.7626zm-2.2599 4.0083c.4216 0 .7471-.1457.9765-.4371.2356-.2976.3534-.713.3534-1.2462 0-.5394-.1178-.9548-.3534-1.2462-.2294-.2914-.558-.4371-.9858-.4371-.4216 0-.7533.1519-.9951.4557-.2356.2976-.3534.713-.3534 1.2462 0 .527.1178.9362.3534 1.2276.2418.2914.5766.4371 1.0044.4371z"/><path d="m74.3955 33.3128h.93v4.6872h-.93zm1.0044-2.046v.9858h-1.0881v-.9858z"/><path d="m76.7023 31.1552h.93v6.8448h-.93z"/><path d="m83.0082 35.675h-3.348c.031 1.0974.5301 1.6461 1.4973 1.6461.5394 0 1.0323-.1767 1.4787-.5301l.2883.6696c-.2108.186-.4805.3348-.8091.4464-.3224.1054-.6479.1581-.9765.1581-.7502 0-1.3392-.2139-1.767-.6417-.4278-.434-.6417-1.0261-.6417-1.7763 0-.4774.093-.9021.279-1.2741.1922-.372.4588-.6603.7998-.8649s.7285-.3069 1.1625-.3069c.6324 0 1.1284.2046 1.488.6138.3658.4092.5487.9765.5487 1.7019zm-2.0181-1.7763c-.3534 0-.6417.1054-.8649.3162s-.3658.5115-.4278.9021h2.4831c-.0372-.3968-.1581-.6975-.3627-.9021-.2046-.2108-.4805-.3162-.8277-.3162z"/><path d="m86.4203 33.2012c.1426 0 .2914.0217.4464.0651l-.0186.8556c-.1674-.062-.3503-.093-.5487-.093-.4278 0-.7502.1302-.9672.3906-.2108.2542-.3162.5766-.3162.9672v2.6133h-.93v-3.3666c0-.4898-.0248-.93-.0744-1.3206h.8742l.0837.8463c.124-.31.3162-.5456.5766-.7068.2604-.1674.5518-.2511.8742-.2511z"/></g></svg>