<svg width="56" height="56" viewBox="0 0 56 56" fill="none" xmlns="http://www.w3.org/2000/svg">
<path fill-rule="evenodd" clip-rule="evenodd" d="M13.7832 17.0162L13.7832 10.5547L16.3678 10.5547L16.3678 17.0162L13.7832 17.0162Z" fill="black"/>
<path fill-rule="evenodd" clip-rule="evenodd" d="M18.9531 17.0162L18.9531 10.5547L21.5377 10.5547L21.5377 17.0162L18.9531 17.0162Z" fill="black"/>
<path fill-rule="evenodd" clip-rule="evenodd" d="M39.6309 17.0162L39.6309 10.5547L42.2155 10.5547L42.2155 17.0162L39.6309 17.0162Z" fill="black"/>
<path fill-rule="evenodd" clip-rule="evenodd" d="M34.4609 17.0162L34.4609 10.5547L37.0456 10.5547L37.0456 17.0162L34.4609 17.0162Z" fill="black"/>
<path fill-rule="evenodd" clip-rule="evenodd" d="M39.6309 29.6168L39.6309 27.0322L42.2155 27.0322L42.2155 29.6168L39.6309 29.6168Z" fill="black"/>
<path fill-rule="evenodd" clip-rule="evenodd" d="M34.4609 29.6168L34.4609 27.0322L37.0456 27.0322L37.0456 29.6168L34.4609 29.6168Z" fill="black"/>
<path fill-rule="evenodd" clip-rule="evenodd" d="M29.293 29.6168L29.293 27.0322L31.8776 27.0322L31.8776 29.6168L29.293 29.6168Z" fill="black"/>
<path fill-rule="evenodd" clip-rule="evenodd" d="M29.293 34.7858L29.293 32.2012L31.8776 32.2012L31.8776 34.7858L29.293 34.7858Z" fill="black"/>
<path fill-rule="evenodd" clip-rule="evenodd" d="M29.293 39.9547L29.293 37.3701L31.8776 37.3701L31.8776 39.9547L29.293 39.9547Z" fill="black"/>
<path fill-rule="evenodd" clip-rule="evenodd" d="M24.123 29.6168L24.123 27.0322L26.7077 27.0322L26.7077 29.6168L24.123 29.6168Z" fill="black"/>
<path fill-rule="evenodd" clip-rule="evenodd" d="M24.123 34.7858L24.123 32.2012L26.7077 32.2012L26.7077 34.7858L24.123 34.7858Z" fill="#006EFF"/>
<path fill-rule="evenodd" clip-rule="evenodd" d="M24.123 39.9547L24.123 37.3701L26.7077 37.3701L26.7077 39.9547L24.123 39.9547Z" fill="black"/>
<path fill-rule="evenodd" clip-rule="evenodd" d="M18.9531 29.6168L18.9531 27.0322L21.5377 27.0322L21.5377 29.6168L18.9531 29.6168Z" fill="#006EFF"/>
<path fill-rule="evenodd" clip-rule="evenodd" d="M18.9531 34.7858L18.9531 32.2012L21.5377 32.2012L21.5377 34.7858L18.9531 34.7858Z" fill="black"/>
<path fill-rule="evenodd" clip-rule="evenodd" d="M18.9531 39.9547L18.9531 37.3701L21.5377 37.3701L21.5377 39.9547L18.9531 39.9547Z" fill="black"/>
<path fill-rule="evenodd" clip-rule="evenodd" d="M13.7832 29.6168L13.7832 27.0322L16.3678 27.0322L16.3678 29.6168L13.7832 29.6168Z" fill="black"/>
<path fill-rule="evenodd" clip-rule="evenodd" d="M13.7832 34.7858L13.7832 32.2012L16.3678 32.2012L16.3678 34.7858L13.7832 34.7858Z" fill="black"/>
<path fill-rule="evenodd" clip-rule="evenodd" d="M13.7832 39.9547L13.7832 37.3701L16.3678 37.3701L16.3678 39.9547L13.7832 39.9547Z" fill="black"/>
<path fill-rule="evenodd" clip-rule="evenodd" d="M44.7998 15.0778H11.1998V42.5393H44.7998V15.0778ZM8.61523 12.4932V45.1239H47.3845V12.4932H8.61523Z" fill="black"/>
<path fill-rule="evenodd" clip-rule="evenodd" d="M39.6302 34.7858H37.0456V37.3704H39.6302V34.7858ZM34.4609 32.2012V39.955H42.2148V32.2012H34.4609Z" fill="#006EFF"/>
</svg>
