<svg width="184" height="70" viewBox="0 0 1177 448" xmlns="http://www.w3.org/2000/svg" xmlns:xlink="http://www.w3.org/1999/xlink"><clipPath id="a"><path d="m129.706 91.25h179.73v266.596h-179.73z"/></clipPath><path d="m220.206 427.75c110.181 0 199.5-91.222 199.5-203.75s-89.319-203.75-199.5-203.75-199.4999 91.222-199.4999 203.75 89.3189 203.75 199.4999 203.75z" fill="#fff"/><path clip-rule="evenodd" d="m220.206 40.25c-98.74 0-179.4999 81.868-179.4999 183.75s80.7599 183.75 179.4999 183.75 179.5-81.868 179.5-183.75-80.76-183.75-179.5-183.75zm-219.499945 183.75c0-123.174 97.878145-223.75 219.499945-223.75 121.622 0 219.5 100.576 219.5 223.75s-97.878 223.75-219.5 223.75c-121.6218 0-219.499945-100.576-219.499945-223.75z" fill="#006eff" fill-rule="evenodd"/><g fill="#000"><g clip-path="url(#a)"><path d="m273.484 273.051c-2.597 2.511-2.865 3.313-1.484 5.583.647 1.053 1.631 1.959 2.606 2.744.881.708 2.261.941 2.891 1.778 2.65 3.529 6.447 6.153 8.242 10.312.845 1.959 1.924 3.478 3.935 4.263 1.7.665 2.701 1.959 3.452 3.608 2.925 6.386 6.532 12.383 10.51 18.156 2.218 3.228 3.737 6.697 4.333 10.606.466 3.055-.242 5.489-2.399 7.827-4.307 4.678-9.726 7.448-15.508 9.588-7.767 2.882-15.525 5.825-23.714 7.37-1.821.345-3.633.725-5.472.966-5.514.742-11.028 2.002-16.543 1.985-6.377-.017-12.841-.751-19.123-1.933-13.177-2.477-26.122-6.006-38.92-10.019-5.039-1.579-10.14-2.986-15.076-4.833-4.798-1.795-9.38-4.159-14.135-6.084-5.074-2.045-9.648-4.919-14.066-8.077-4.721-3.374-8.665-7.56-11.262-12.72-1.933-3.84-2.537-8.069-1.674-12.47.871-4.444 2.666-8.379 5.247-12.056 3.529-5.013 6.86-10.157 10.407-15.162 2.796-3.952 5.842-7.741 8.655-11.685.984-1.38 1.787-2.951 2.339-4.547 1.036-2.952 1.821-5.989 2.727-8.992.647-2.141 2.52-2.986 4.237-1.58 1.51 1.234 2.533 2.287 4.517 2.451 1.027.086 3.034 1.001 4 1.709-.077.285-.81.569-.888.854-2.132.216-5.118-.443-6.421.656-.427.361-.388 1.191-.224 1.415 2.459 3.176 5.029 6.016 9.033 6.486 1.74.204 2.384.15 3.454-.523.949-.595 1.546-2.476 1.546-2.476s-.303-7.638-2.159-11.374c-.578-1.157-.535-2.857-.207-4.177.527-2.166-.388-3.236-2.218-4.116-1.665.664-3.658 1.009-5.022 2.131-1.286 1.062-1.907 2.943-2.9 4.591-.994-4.591-.399-4.192-.494-6.056-.914-2.459-2.992-2.901-4.934-4.929-2.839-2.969-3.106-6.775-.535-10.002.622-.777 1.372-1.467 2.089-2.166 1.432-1.407 2.891-2.779 4.323-4.186 2.71-2.632 4.048-5.833 3.978-9.613-.008-.285-.06-.587.009-.854 1.355-5.955-1.286-10.9-4.056-15.775-.759-1.338-1.786-2.607-2.917-3.651-2.865-2.64-4.858-2.675-8.017-.414-3.702 2.649-5.341 2.166-9.13-.25-5.609-3.59-7.059-8.043-5.083-14.248.984-3.089.941-6.498 1.709-9.682 1.07-4.427 2.287-8.854 3.832-13.135.647-1.795 2.192-3.322 3.529-4.78 2.123-2.322 4.393-4.522 6.645-6.732 3.788-3.702 7.18-7.723 10.416-11.926 3.961-5.126 9.009-9.216 14.42-12.677 6.602-4.228 13.419-8.138 20.288-11.935 7.034-3.883 14.498-6.8429 22.507-7.8612 9.76-1.2427 19.563-2.1057 29.349-3.0981 4.712-.4833 9.044.9406 13.281 2.7874 3.797 1.6483 7.655 3.1757 11.443 4.8499 1.148.5091 2.339 1.148 3.193 2.028 3.193 3.288 4.833 7.43 5.489 11.866.509 3.452-1.597 6.489-4.876 7.697-1.2.44-2.486.639-3.72 1.019-2.77.854-3.728 3.21-2.157 5.661 3.866 6.023 6.386 12.659 8.958 19.278.414 1.062.621 2.339 1.346 3.124 2.986 3.245 3.331 7.5 4.53 11.409.302 1.001 0 2.287-.31 3.357-1.2 4.125.051 7.438 2.796 10.58 2.321 2.658 4.237 5.678 6.368 8.509 2.123 2.83 4.169 5.738 6.464 8.431 4.099 4.789 3.064 9.354-2.856 11.831-3.081 1.294-4.134 1.949-3.608 5.487.406 2.753.135 4.463-.763 7-1.933 0-3.679-.078-5.5 0-1.794.078-3.721 2.291-3.385 4.5 4.781-.5 4.987.517 6.885 1 1.528 3.297 2.617 5.943 3.868 8.972.647 1.562 1.018 3.271 1.329 4.945.492 2.632.837 5.298 1.286 8.163-1.027.907-2.356 2.08-3.676 3.245 2.01 3.366 3.9.475 5.756.311 1.648 1.959 1.113 4.203.88 6.222-.44 3.806-1.252 7.568-1.873 11.348-.302 1.838-1.614 2.658-3.167 3.098-.941.267-1.993.129-2.977.267-1.7.233-2.926.924-3.098 2.926-.078.949-.484 1.976-1.044 2.744-1.053 1.441-3.004 1.735-5.057.924-1.304-.518-2.486-1.554-4.03-.838-4.35 2.028-8.578 1.873-12.419-1.026zm-66.897 4.263c.121 3.262 1.329 5.488 3.487 7.11 2.468 1.856 3.581 4.005 1.864 6.852 2.33 3.237 5.937 4.194 8.845 6.084 1.364.889 2.572 1.502 3.098 3.15.82 2.563 2.511 4.315 5.092 5.126 1.078-1.191 2.01-2.226 2.908-3.219 2.131.587 2.925 1.882 2.925 3.728-1.113 1.286-2.123 2.442-3.046 3.504.38 1.562 1.294 2.166 2.537 2.183 1.286.018 2.58-.052 3.849-.215 2.667-.346 3.435-1.062 3.823-3.703.276-1.864.5-3.693 2.382-4.858 1.682.708 3.365 1.424 5.057 2.14 0 2.891.733 5.998-.19 8.474-1.096 2.943-3.625 5.342-5.411 7.81-1.976.181-3.202-2.149-5.109-.776-.026.422-.241 1.001-.052 1.216 1.614 1.787 3.004 4.237 5.049 5.083 3.78 1.579 4.781 4.686 5.721 7.931 1.027 3.538 1.726 4.384 5.178 4.185 3.115-.172 6.231-.526 9.32-.992.785-.121 1.45-.984 2.529-1.761-1.925-1.786-3.478-3.236-5.006-4.651-.336.164-.63.233-.837.414-.923.786-1.89 1.407-3.063.57-1.295-.924-.639-1.959-.138-3.021.164-.336.026-.819.026-1.199-.207-.259-.346-.561-.579-.682-.491-.259-1.026-.509-1.57-.595-.846-.13-1.726-.026-2.563-.182-2.192-.405-2.934-2.079-1.338-3.659 2.296-2.278 2.71-5.281 3.815-8.025.716-1.778.716-3.279-.812-4.66-1.898-1.717-1.398-3.728-.673-6.144.717.517 1.312.742 1.545 1.156 2.244 4.099 4.349 8.276 6.645 12.34 1.242 2.201 2.097 4.332.604 7.034 2.649.12 3.78 1.674 4.755 3.529 1.329 2.529 2.779 4.997 4.185 7.482.656 1.156 1.709 1.467 2.934 1.243 1.312-.251 1.985-1.131 1.976-2.425-.008-1.277.044-2.624-.31-3.832-1.562-5.333-3.279-10.623-4.902-15.939-.915-2.994-2.641-5.359-5.229-7.111-.95-.638-1.908-1.26-2.857-1.89-3.029-2.01-4.763-4.582-4.962-8.465-.216-4.212-.716-8.613-5.247-10.908-.492-.25-.785-.863-1.26-1.157-3.521-2.157-7.041-4.332-10.64-6.36-.483-.267-1.407.259-2.641.527 1.597 2.425 2.9 4.427 4.22 6.42.552.837 1.64 1.692 1.579 2.477-.215 2.994 2.072 4.91 2.874 7.361-.88 1.717-1.7 3.322-2.554 4.979-1.873-1.32-3.504-2.666-5.308-3.693-3.814-2.183-4.323-3.046-3.84-7.568.268-2.512-1.234-4.082-3.728-3.763-.949.121-1.855.509-2.796.777-1.941-1.916-4.194-3.202-5.212-5.782-.38-.975-1.398-1.968-2.365-2.39-2.563-1.131-2.813-2.883-1.872-4.652-1.26-1.501-2.227-2.701-3.245-3.84-.656-.734-1.329-1.899-2.114-2.002-2.227-.294-2.839-2.183-4.073-3.616-1.243-.121-2.503-.242-3.59-.345-1.286-1.752-2.425-3.305-3.608-4.919.518-1.346 1.105-2.856 1.7-4.401-.863-.544-1.311-1.044-1.812-1.113-2.804-.354-5.014-1.856-7.128-3.556-1.545-1.243-3.063-2.528-4.574-3.823-1.225-1.053-2.554-1.329-3.926-.457-1.131.716-1.985 1.769-1.692 3.219.19.958.57 1.924 1.079 2.77 1.027 1.708 2.218 3.322 3.297 4.996 1.001 1.554 2.243 2.494 4.228 2.33 2.097-.172 3.884.51 5.152 2.529-.509.768-1.251 1.424-1.372 2.175-.173 1.027-.19 2.338.328 3.124.38.569 1.743.647 2.667.647.776 0 1.553-.432 2.787-.811.207 1.234.716 2.269.44 2.977-1.027 2.58-3.322.164-5.117 1.087-.156.673-.717 1.683-.423 2.201.518.923 1.441 1.803 2.407 2.243 1.83.794 3.772 1.278 5.877 1.977zm34.619-135.011c2.006.947 3.506 1.52 4.5 2.338 2.132 1.752 2.606.751 1.648 3.512-.708 2.02-.509 4.255.776 6.197 2.236 3.374 1.623 6.791.164 10.234-1.734 4.117-4.021 7.853-7.015 11.21-3.418 3.823-1.925 9.786 2.925 10.951 5.523 1.321 9.752 4.531 13.963 7.974 2.52 2.063 5.143 4.004 7.999 6.222 3.064-1.907 6.076-3.529 8.785-5.557 1.744-1.304 2.771-3.176 1.614-5.653-1.061-2.278-2.709-3.176-5.1-3.089-1.139.043-2.304.146-3.426 0-1.648-.216-3.063-1.571-2.537-2.788 1.018-2.338-.397-3.452-1.674-4.789-.691-.725-1.45-1.398-2.054-2.192-1.407-1.855-1.338-3.167.198-4.919 1.312-1.51 2.589-3.055 3.996-4.47 3.763-3.771 7.991-6.455 13.669-5.635.846.121 1.718.103 2.572.086 2.917-.052 4.496-1.64 4.367-4.522-.138-3.141-1.631-5.212-4.626-6.541-4.798-2.132-8.422-5.273-8.284-11.271.06-2.468-1.329-3.469-3.875-3.512-.846-.008-1.717.061-2.537.268-5.851 1.432-11.814 1.795-17.795 2.071-1.527.043-5.253 2.322-8.253 3.875zm14.182-13.126c-1.294-.751-2.019-1.459-2.848-1.597-1.251-.215-2.563-.051-3.849-.017-2.028.052-3.857-.121-5.479-1.743-1.692-1.692-3.97-1.303-6.05-.587-5.92 2.054-11.831 4.108-17.691 6.317-1.251.475-2.485 1.381-3.348 2.416-2.088 2.503-4.159 5.074-5.859 7.853-2.21 3.607-4.902 5.817-9.39 5.247-2.148-.276-3.469.992-4.116 2.995-.311.949-.69 1.872-.941 2.839-.724 2.77.458 4.202 3.254 3.84.958-.13 1.933-.501 2.787-.975 3.09-1.735 6.084-3.633 9.208-5.307 1.355-.725 2.9-1.295 4.41-1.502 4.168-.578 7.948-2.011 11.451-4.315 1.416-.932 3.081-1.484 4.557-2.338 4.91-2.848 10.286-4.799 15.024-7.992 1.873-1.259 3.978-2.166 5.963-3.262.829-.483 1.579-1.027 2.917-1.872zm20.763 178.116c-.138 1.735 1.424 3.064.449 4.971-.553 1.078.052 2.468 1.432 2.589 1.813.164 2.201 1.562 3.012 2.683.992 1.373 1.881 2.96 3.202 3.918 1.7 1.226 3.607 1.968 4.858 3.935 1.062 1.666 3.184 1.019 4.022-.871.793-1.804.215-3.374-.717-4.859-2.407-3.857-4.806-7.732-7.344-11.503-1.743-2.589-3.469-5.273-5.643-7.473-3.193-3.236-6.369-6.455-9.217-10.011-1.553-1.933-3.736-3.132-6.299-3.175-1.623-.026-3.763-.674-4.505 1.441-.622 1.76.656 3.219 1.812 4.522 1.502 1.7 2.839 3.581 4.479 5.126 3.167 2.986 5.531 6.947 10.459 8.707zm12.763-136.159c-5.454 2.002-8.163 6.421-7.231 11.279.906 4.755 1.13 9.329-1.7 13.592-.38.569-.415 1.355-.63 2.036-.449 1.407.12 2.149 1.803 2.494.63-.802 1.929-1.579 2.55-2.494.872-1.285 1.187-2.64 1.912-4.012 1.199-2.253 5.203-1.545 5.203-1.545s-6.115 3.122 1.321 6.55c1.208-1.433 2.364-2.805 3.46-4.108 2.865-1.044 7.033 1.208 8.242-3.253-5.057-6.947-9.976-13.721-14.93-20.539zm-7.421 51.692c-4.168.682-3.236 4.159-3.771 6.697-.898.379-1.64.69-2.753 1.165-.181-1.968 1.864-4.497-1.787-5.109-.837 1.303-1.726 2.692-2.813 4.392-1.389-1.165-2.649-2.226-3.909-3.288-1.338.682-1.812 1.959-.82 2.796 2.088 1.752 9.566 7.771 12.987 4.771 2.079 1.5-4.781 8.623-5.921 9.33-1.441-1.053-9.966-6.998-11.053-7.801-1.942 2.252 1.036 3.124.872 4.695-.458 1.363-2.684 2.174-.984 4.263 3.728-1.442 7.482-2.891 11.754-4.54 1.216.941 2.968 1.959 4.28 3.383 1.32 1.441 2.71 1.778 4.53 1.027.769 3.305 3.288 4.013 5.998 5.109.44-1.01.984-1.83 1.139-2.727.44-2.485-2.71-2.252-3.167-3.849-.518-3.348 2.382-4.013 3.918-5.437.242-2.718.414-5.16-2.848-6.101-3.115 2.598-5.04 8.505-5.04 13.005-1.899 3.643-11.047-1.941-8.899-3.857 1.968-1.752 8.511-10.347 9.512-12.513.958-2.08.337-3.832-1.225-5.411zm-56.982-17.769c-3.107.553-6.213 1.545-8.785-.491-1.95-1.545-3.469-1.597-5.04.069-2.476-1.433-2.476-1.433-2.985-3.772-.527-2.407-2.253-3.201-4.376-2.053-1.363.733-2.123 1.812-2.252 3.296 2.08 2.943 3.978 5.92 6.179 8.664 1.959 2.451 3.736 2.382 6.023.104.492-.492.702-1.188 1.431-1.624 1.297-.775 3.216-.331 3.5 1 .332 1.549-1.229 2.73-.5 4 .73 1.27 2.844 2.466 4.415 1.379 1.89-1.312 2.381-3.487 3.132-5.48.613-1.666.794-3.305-.742-5.092zm-41.845 55.472c1.372 2.218 2.382 4.099 3.642 5.799.828 1.113 1.881 2.252 3.098 2.831 1.234.586 2.916.742 3.909-.674.794-1.139.466-2.347-.164-3.624-1.899-3.823-5.687-4.358-9.139-5.445-.285-.087-.828.664-1.346 1.113zm61.857-36.081c.294.742.389 1.674.906 2.149 1.252 1.148 2.632 2.175 4.065 3.089 2.9 1.864 5.463 1.088 6.955-2.088.268-.561.346-1.588.018-1.976-.475-.561-1.476-1.113-2.123-.984-1.2.233-2.313.958-3.348 1.424-2.158-.621-3.556-3.426-6.473-1.614zm-3.935 7.37c-2.442-.06-3.736 2.183-2.761 4.229.759 1.596 4.237 3.512 6.015 3.313 2.071-.233 3.149-2.252 2.028-4.056-1.269-2.036-3.461-2.761-5.282-3.486zm-24.594-42.32c-1.821 1.018-3.314 1.856-5.014 2.805 2.045 2.183 4.168 1.527 6.438 1.355.578-1.105 1.449-2.175 1.665-3.366.268-1.458.155-3.055-.104-4.531-.233-1.346-1.398-1.803-2.649-1.398-1.251.415-1.717 1.39-1.251 2.693.25.664.5 1.32.915 2.442zm-12.539 4.349c1.605-2.433 2.321-4.513.414-6.808-3.133 2.761-3.253 4.03-.414 6.808z"/><path d="m223.252 289.353c-4.599 2.226-5.911 2.062-7.948-.613-1.303-1.717-.768-4.841 1.096-5.955.44-.258 1.226-.474 1.579-.25 1.545.949 3.202 1.873 4.384 3.202.708.794.604 2.312.889 3.616z"/><path d="m229.465 296.929c-.975 0-1.838.147-2.632-.026-1.795-.405-2.364-1.441-1.691-3.158.466-1.191 1.036-2.39 1.812-3.383.44-.561 1.493-1.087 2.106-.94.638.146 1.286 1.052 1.57 1.76.535 1.355.216 2.52-1.165 5.747z"/><path d="m209.928 272.904c1.087 1.286 1.959 2.313 2.986 3.53-1.666 1.001-2.934 2.339-4.66.837-1.079-.941-.717-1.898 1.674-4.367z"/></g><path d="m508.343 126.969v-78.7889h25.476v-10.4388h-62.881v10.4388h25.475v78.7889z"/><path d="m615.543 126.969v-89.2277h-11.806v37.5302h-43.371v-37.5302h-11.93v89.2277h11.93v-40.8858h43.371v40.8858z"/><path d="m694.162 126.969v-10.439h-43.868v-30.6953h30.073v-10.1904h-30.073v-27.4642h41.879v-10.4388h-53.81v89.2277z"/><path d="m788.463 98.5104c-3.728 13.7946-11.184 19.3866-21.872 19.3866-15.534 0-22.866-12.303-22.866-36.039 0-21.9963 8.823-35.1691 23.239-35.1691 9.942 0 16.528 5.2194 20.381 18.3923l11.06-2.2369c-4.723-18.8894-14.913-26.5943-31.317-26.5943-21.747 0-35.169 16.6525-35.169 45.608 0 29.08 10.936 46.602 34.548 46.602 15.907 0 27.837-6.711 33.305-27.464z"/><path d="m880.294 126.969-21.002-41.5072c10.564-3.4796 17.15-10.8116 17.15-22.9903 0-16.1554-10.19-24.7302-33.305-24.7302h-27.588v89.2277h11.93v-38.4003h20.505l18.889 38.4003zm-52.815-48.7149v-30.074h16.652c9.569 0 20.381 1.6156 20.381 14.9127 0 13.9185-13.297 15.1613-21.002 15.1613z"/><path d="m926.321 126.969v-36.6605l28.458-52.5672h-12.676l-21.747 41.0098h-.249l-20.38-41.0098h-13.049l27.713 52.5672v36.6605z"/><path d="m978.936 126.969v-37.0333h14.54c22.744 0 34.174-8.4506 34.174-26.3458 0-17.5224-11.06-25.8486-33.18-25.8486h-27.464v89.2277zm0-47.2237v-31.5652h16.528c13.426 0 20.376 4.8467 20.376 15.4098 0 14.5399-12.05 16.1554-21.495 16.1554z"/><path d="m1072.79 126.969v-78.7889h25.47v-10.4388h-62.88v10.4388h25.48v78.7889z"/><path d="m1139.94 128.46c22.86 0 36.41-17.647 36.41-46.105 0-26.5942-12.43-46.105-36.41-46.105-23.99 0-36.54 19.5108-36.54 46.105 0 28.458 13.55 46.105 36.54 46.105zm0-10.19c-15.29 0-24.73-13.297-24.73-35.915 0-22.7418 9.44-36.0389 24.73-36.0389 15.16 0 24.6 13.2971 24.6 36.0389 0 22.618-9.32 35.915-24.6 35.915z"/><path d="m573.675 272.361v-93.736h-24.805l-21.15 70.106h-.261l-20.366-70.106h-25.066v93.736h16.58v-71.15h.261l21.411 71.15h15.013l21.28-71.15h.261v71.15z"/><path d="m656.36 272.361v-15.144h-43.996v-25.849h30.418v-14.622h-30.418v-22.977h42.56v-15.144h-60.576v93.736z"/><path d="m742.664 272.361-20.496-42.56c9.922-4.047 16.319-11.88 16.319-24.152 0-17.885-11.619-27.024-36.424-27.024h-31.985v93.736h18.016v-37.599h17.494l17.102 37.599zm-54.57-52.22v-26.372h15.013c7.833 0 17.233 1.436 17.233 13.055 0 12.011-11.358 13.317-18.147 13.317z"/><path d="m809.394 241.029c-3.395 12.924-10.575 17.755-19.583 17.755-13.577 0-20.497-10.966-20.497-34.074 0-21.019 7.964-32.769 20.889-32.769 8.877 0 15.013 4.439 18.277 16.711l16.71-3.133c-4.438-19.975-15.796-28.46-34.726-28.46-24.022 0-39.166 17.232-39.166 47.651 0 31.071 13.186 49.218 37.991 49.218 17.102 0 30.81-6.005 37.207-28.983z"/><path d="m914.563 272.361v-93.736h-18.016v37.338h-38.121v-37.338h-18.147v93.736h18.147v-40.34h38.121v40.34z"/><path d="m1007.72 272.361-28.333-93.736h-24.413l-28.199 93.736h18.147l6.788-24.674h30.288l6.789 24.674zm-40.996-78.853h.261l10.836 39.166h-21.933z"/><path d="m1094.59 272.361v-93.736h-16.84v62.665h-.26l-35.25-62.665h-22.32v93.736h16.97v-68.539h.26l39.69 68.539z"/><path d="m1151.05 272.361v-78.592h25.46v-15.144h-68.8v15.144h25.32v78.592z"/><path d="m500.028 393.685c-4.6 0-8.2-1.72-10.8-5.16-2.6-3.48-3.9-8.96-3.9-16.44s1.3-12.94 3.9-16.38c2.6-3.48 6.2-5.22 10.8-5.22s8.2 1.74 10.8 5.22c2.6 3.44 3.9 8.9 3.9 16.38s-1.3 12.96-3.9 16.44c-2.6 3.44-6.2 5.16-10.8 5.16zm0-4.2c2.52 0 4.6-1.36 6.24-4.08 1.64-2.76 2.46-7.2 2.46-13.32s-.82-10.54-2.46-13.26c-1.64-2.76-3.72-4.14-6.24-4.14s-4.6 1.38-6.24 4.14c-1.64 2.72-2.46 7.14-2.46 13.26s.82 10.56 2.46 13.32c1.64 2.72 3.72 4.08 6.24 4.08z"/><path d="m530.305 363.085h4.2l.6 3.6h.3c.4-.6 1.08-1.3 2.04-2.1 1.88-1.4 4-2.1 6.36-2.1 1.04 0 1.96.1 2.76.3l1.14.3-.9 4.8h-.6c-.28-.04-.7-.14-1.26-.3-.88-.2-1.76-.3-2.64-.3-1.32 0-2.74.6-4.26 1.8-.52.44-1.1 1.04-1.74 1.8v22.2h-6z"/><path d="m563.019 358.285c-1.04 0-1.9-.34-2.58-1.02s-1.02-1.54-1.02-2.58.34-1.9 1.02-2.58 1.54-1.02 2.58-1.02 1.9.34 2.58 1.02 1.02 1.54 1.02 2.58-.34 1.9-1.02 2.58-1.54 1.02-2.58 1.02zm-3 34.8v-30h6v30z"/><path d="m593.019 405.685c-2.72 0-5.12-.54-7.2-1.62-1.08-.52-1.98-1.08-2.7-1.68l2.1-3.6h.6c.4.4 1.04.86 1.92 1.38 1.6.88 3.16 1.32 4.68 1.32 2.56 0 4.44-.62 5.64-1.86 1.24-1.24 1.86-3.22 1.86-5.94v-1.8c-.6.36-1.26.66-1.98.9-1.48.6-3.02.9-4.62.9-3.6 0-6.5-1.32-8.7-3.96-2.2-2.68-3.3-6.56-3.3-11.64 0-3.36.48-6.2 1.44-8.52 1-2.36 2.32-4.12 3.96-5.28 1.64-1.2 3.44-1.8 5.4-1.8 2.44 0 4.64.7 6.6 2.1.96.76 1.66 1.46 2.1 2.1h.3l.6-3.6h4.2v30.6c0 3.64-1.16 6.54-3.48 8.7-2.28 2.2-5.42 3.3-9.42 3.3zm1.2-16.2c1.36 0 2.72-.2 4.08-.6.72-.2 1.26-.4 1.62-.6v-17.7c-.56-.68-1.16-1.28-1.8-1.8-1.52-1.2-3.02-1.8-4.5-1.8-1.84 0-3.36.9-4.56 2.7-1.16 1.8-1.74 4.6-1.74 8.4 0 3.96.62 6.86 1.86 8.7 1.28 1.8 2.96 2.7 5.04 2.7z"/><path d="m625.728 358.285c-1.04 0-1.9-.34-2.58-1.02s-1.02-1.54-1.02-2.58.34-1.9 1.02-2.58 1.54-1.02 2.58-1.02 1.9.34 2.58 1.02 1.02 1.54 1.02 2.58-.34 1.9-1.02 2.58-1.54 1.02-2.58 1.02zm-3 34.8v-30h6v30z"/><path d="m645.528 363.085h4.2l.6 3.6h.3c.44-.64 1.14-1.34 2.1-2.1 1.96-1.4 4.16-2.1 6.6-2.1 3 0 5.44.96 7.32 2.88 1.92 1.88 2.88 4.32 2.88 7.32v20.4h-6v-20.4c0-1.68-.54-3.04-1.62-4.08-1.04-1.08-2.4-1.62-4.08-1.62-1.48 0-2.98.6-4.5 1.8-.64.56-1.24 1.16-1.8 1.8v22.5h-6z"/><path d="m694.123 393.685c-3.12 0-5.56-.82-7.32-2.46-1.72-1.68-2.58-3.96-2.58-6.84 0-2.84 1.02-5.04 3.06-6.6 2.08-1.6 5.36-2.4 9.84-2.4h4.8v-1.5c0-2.36-.56-4.14-1.68-5.34-1.08-1.24-2.62-1.86-4.62-1.86-1.44 0-3 .46-4.68 1.38-.84.48-1.48.92-1.92 1.32h-.6l-2.1-3.6c.8-.6 1.7-1.14 2.7-1.62 2.16-1.12 4.56-1.68 7.2-1.68 2.28 0 4.3.5 6.06 1.5 1.76.96 3.14 2.32 4.14 4.08 1 1.72 1.5 3.66 1.5 5.82v19.2h-4.2l-.6-3.6h-.3c-.56.8-1.26 1.5-2.1 2.1-1.76 1.4-3.96 2.1-6.6 2.1zm1.5-4.5c1.48 0 2.98-.6 4.5-1.8.68-.56 1.28-1.16 1.8-1.8v-6h-4.8c-2.28 0-4 .44-5.16 1.32s-1.74 2.04-1.74 3.48c0 1.56.44 2.76 1.32 3.6.92.8 2.28 1.2 4.08 1.2z"/><path d="m724.409 393.085v-40.2l1.8-1.8h4.2v42z"/><path d="m773.312 351.085h6l12.6 25.5c.32.52.58 1.14.78 1.86.16.6.26.98.3 1.14h.24c.04-.16.14-.54.3-1.14.2-.72.46-1.34.78-1.86l12.6-25.5h6v42h-6v-26.4c0-.64.04-1.72.12-3.24l.12-1.86h-.24l-.54 1.86c-.12.32-.3.84-.54 1.56-.24.68-.48 1.24-.72 1.68l-9.6 18.9h-4.8l-9.6-18.9c-.24-.44-.48-1-.72-1.68-.24-.72-.42-1.24-.54-1.56l-.54-1.86h-.24l.12 1.86c.08 1.52.12 2.6.12 3.24v26.4h-6z"/><path d="m842.302 393.685c-4.16 0-7.4-1.32-9.72-3.96s-3.48-6.52-3.48-11.64c0-5.08 1.12-8.94 3.36-11.58 2.24-2.68 5.22-4.02 8.94-4.02s6.7 1.34 8.94 4.02c2.24 2.64 3.36 6.5 3.36 11.58v.9l-1.2 1.2h-17.4c0 3.08.68 5.4 2.04 6.96s3.28 2.34 5.76 2.34c1.48 0 3.02-.44 4.62-1.32.84-.48 1.5-.94 1.98-1.38h.6l2.1 3.6c-.72.6-1.62 1.16-2.7 1.68-2.08 1.08-4.48 1.62-7.2 1.62zm5.4-17.7c0-3.16-.58-5.5-1.74-7.02-1.12-1.52-2.64-2.28-4.56-2.28s-3.46.76-4.62 2.28c-1.12 1.52-1.68 3.86-1.68 7.02z"/><path d="m868.695 363.085h4.2l.6 3.6h.3c.4-.6 1.08-1.3 2.04-2.1 1.88-1.4 4-2.1 6.36-2.1 1.04 0 1.96.1 2.76.3l1.14.3-.9 4.8h-.6c-.28-.04-.7-.14-1.26-.3-.88-.2-1.76-.3-2.64-.3-1.32 0-2.74.6-4.26 1.8-.52.44-1.1 1.04-1.74 1.8v22.2h-6z"/><path d="m910.109 393.685c-4.16 0-7.4-1.32-9.72-3.96s-3.48-6.52-3.48-11.64 1.12-9 3.36-11.64c2.28-2.64 5.36-3.96 9.24-3.96 2.64 0 5.04.56 7.2 1.68 1.04.48 1.94 1.02 2.7 1.62l-2.1 3.6h-.6c-.52-.4-1.18-.84-1.98-1.32-1.68-.92-3.22-1.38-4.62-1.38-2.24 0-4 .9-5.28 2.7s-1.92 4.7-1.92 8.7c0 4.04.66 6.96 1.98 8.76 1.36 1.76 3.3 2.64 5.82 2.64 1.48 0 3.02-.44 4.62-1.32.84-.48 1.5-.94 1.98-1.38h.6l2.1 3.6c-.72.6-1.62 1.16-2.7 1.68-2.08 1.08-4.48 1.62-7.2 1.62z"/><path d="m933.514 352.885 1.8-1.8h4.2v14.4c.64-.64 1.3-1.14 1.98-1.5 1.92-1 3.86-1.5 5.82-1.5 3 0 5.44.96 7.32 2.88 1.92 1.88 2.88 4.32 2.88 7.32v20.4h-6v-20.4c0-1.68-.54-3.04-1.62-4.08-1.04-1.08-2.4-1.62-4.08-1.62-1.48 0-2.98.6-4.5 1.8-.64.56-1.24 1.16-1.8 1.8v22.5h-6z"/><path d="m982.109 393.685c-3.12 0-5.56-.82-7.32-2.46-1.72-1.68-2.58-3.96-2.58-6.84 0-2.84 1.02-5.04 3.06-6.6 2.08-1.6 5.36-2.4 9.84-2.4h4.8v-1.5c0-2.36-.56-4.14-1.68-5.34-1.08-1.24-2.62-1.86-4.62-1.86-1.44 0-3 .46-4.68 1.38-.84.48-1.48.92-1.92 1.32h-.6l-2.1-3.6c.8-.6 1.7-1.14 2.7-1.62 2.16-1.12 4.56-1.68 7.2-1.68 2.28 0 4.3.5 6.06 1.5 1.76.96 3.14 2.32 4.14 4.08 1 1.72 1.5 3.66 1.5 5.82v19.2h-4.2l-.6-3.6h-.3c-.56.8-1.26 1.5-2.1 2.1-1.76 1.4-3.96 2.1-6.6 2.1zm1.5-4.5c1.48 0 2.98-.6 4.5-1.8.68-.56 1.28-1.16 1.8-1.8v-6h-4.8c-2.28 0-4 .44-5.16 1.32s-1.74 2.04-1.74 3.48c0 1.56.44 2.76 1.32 3.6.92.8 2.28 1.2 4.08 1.2z"/><path d="m1012.4 363.085h4.2l.6 3.6h.3c.44-.64 1.14-1.34 2.1-2.1 1.96-1.4 4.16-2.1 6.6-2.1 3 0 5.44.96 7.32 2.88 1.92 1.88 2.88 4.32 2.88 7.32v20.4h-6v-20.4c0-1.68-.54-3.04-1.62-4.08-1.04-1.08-2.4-1.62-4.08-1.62-1.48 0-2.98.6-4.5 1.8-.64.56-1.24 1.16-1.8 1.8v22.5h-6z"/><path d="m1062.19 393.685c-1.96 0-3.76-.58-5.4-1.74-1.64-1.2-2.96-2.96-3.96-5.28-.96-2.36-1.44-5.22-1.44-8.58 0-5.08 1.1-8.94 3.3-11.58 2.2-2.68 5.1-4.02 8.7-4.02 1.36 0 2.9.3 4.62.9l1.98.9v-11.4l1.8-1.8h4.2v42h-4.2l-.6-3.6h-.3c-.56.8-1.26 1.5-2.1 2.1-1.76 1.4-3.96 2.1-6.6 2.1zm1.5-4.5c1.48 0 2.98-.6 4.5-1.8.68-.56 1.28-1.16 1.8-1.8v-17.7c-.36-.2-.9-.4-1.62-.6-1.36-.4-2.72-.6-4.08-.6-2.08 0-3.76.92-5.04 2.76-1.24 1.8-1.86 4.68-1.86 8.64 0 3.8.58 6.6 1.74 8.4 1.2 1.8 2.72 2.7 4.56 2.7z"/><path d="m1095.8 358.285c-1.04 0-1.9-.34-2.58-1.02s-1.02-1.54-1.02-2.58.34-1.9 1.02-2.58 1.54-1.02 2.58-1.02 1.9.34 2.58 1.02 1.02 1.54 1.02 2.58-.34 1.9-1.02 2.58-1.54 1.02-2.58 1.02zm-3 34.8v-30h6v30z"/><path d="m1124.3 393.685c-3.28 0-6.04-.54-8.28-1.62-1.16-.52-2.1-1.08-2.82-1.68l2.1-3.6h.6c.44.4 1.14.86 2.1 1.38 1.84.88 3.74 1.32 5.7 1.32 2.4 0 4.14-.38 5.22-1.14 1.12-.76 1.68-1.78 1.68-3.06 0-1.32-.58-2.32-1.74-3-1.12-.68-2.88-1.42-5.28-2.22-2.12-.72-3.82-1.38-5.1-1.98s-2.38-1.46-3.3-2.58-1.38-2.56-1.38-4.32c0-2.68.94-4.8 2.82-6.36 1.92-1.56 4.78-2.34 8.58-2.34 2.84 0 5.42.56 7.74 1.68 1.12.52 2.04 1.06 2.76 1.62l-2.1 3.6h-.6c-.6-.44-1.28-.88-2.04-1.32-1.76-.92-3.48-1.38-5.16-1.38-2 0-3.5.38-4.5 1.14-1 .72-1.5 1.64-1.5 2.76 0 1.32.56 2.32 1.68 3 1.16.68 2.94 1.42 5.34 2.22 2.12.72 3.82 1.38 5.1 1.98s2.38 1.46 3.3 2.58 1.38 2.56 1.38 4.32c0 2.84-1 5.06-3 6.66-2 1.56-5.1 2.34-9.3 2.34z"/><path d="m1162.7 393.685c-4.16 0-7.4-1.32-9.72-3.96s-3.48-6.52-3.48-11.64c0-5.08 1.12-8.94 3.36-11.58 2.24-2.68 5.22-4.02 8.94-4.02s6.7 1.34 8.94 4.02c2.24 2.64 3.36 6.5 3.36 11.58v.9l-1.2 1.2h-17.4c0 3.08.68 5.4 2.04 6.96s3.28 2.34 5.76 2.34c1.48 0 3.02-.44 4.62-1.32.84-.48 1.5-.94 1.98-1.38h.6l2.1 3.6c-.72.6-1.62 1.16-2.7 1.68-2.08 1.08-4.48 1.62-7.2 1.62zm5.4-17.7c0-3.16-.58-5.5-1.74-7.02-1.12-1.52-2.64-2.28-4.56-2.28s-3.46.76-4.62 2.28c-1.12 1.52-1.68 3.86-1.68 7.02z"/></g></svg>