<svg width="139" height="52" viewBox="0 0 139 52" fill="none" xmlns="http://www.w3.org/2000/svg">
<path d="M58.6309 46.0483L60.3175 40.2889H61.3871L63.0738 46.0483H62.251L61.7985 44.5673H59.9061L59.4536 46.0483H58.6309ZM61.6339 43.9914L60.9757 41.7288C60.9538 41.6684 60.9346 41.5999 60.9181 41.5231C60.9072 41.4408 60.8989 41.3805 60.8934 41.3421L60.8688 41.1528H60.8359L60.8112 41.3503C60.7728 41.5368 60.7454 41.6629 60.7289 41.7288L60.0707 43.9914H61.6339Z" fill="black"/>
<path d="M65.7092 46.1305C65.2978 46.1305 64.9605 46.0016 64.6972 45.7438C64.4394 45.4806 64.3105 45.1432 64.3105 44.7318V41.9345H65.1332V44.7318C65.1332 44.9622 65.2045 45.1515 65.3471 45.2995C65.4952 45.4422 65.6845 45.5135 65.9149 45.5135C66.1178 45.5135 66.3235 45.4312 66.5319 45.2666C66.6197 45.1953 66.702 45.1131 66.7788 45.0198V41.9345H67.6015V46.0483H67.0256L66.9433 45.5546H66.9022C66.8254 45.6643 66.7294 45.7603 66.6142 45.8426C66.3729 46.0345 66.0712 46.1305 65.7092 46.1305Z" fill="black"/>
<path d="M70.8498 46.1305C70.4384 46.1305 70.1093 46.0099 69.8625 45.7685C69.6157 45.5272 69.4923 45.209 69.4923 44.8141V42.5104H68.8752V42.0167L69.9448 40.9471H70.315V41.9345H71.3435V42.5104H70.315V44.8141C70.315 45.0555 70.3699 45.2392 70.4796 45.3654C70.5893 45.4915 70.7401 45.5546 70.9321 45.5546C71.0966 45.5546 71.2584 45.4998 71.4175 45.3901C71.4888 45.3407 71.5601 45.2858 71.6314 45.2255H71.7137L72.0017 45.7192C71.881 45.8124 71.7713 45.881 71.6726 45.9248C71.4093 46.062 71.135 46.1305 70.8498 46.1305Z" fill="black"/>
<path d="M73.1156 40.5358L73.3624 40.2889H73.9384V42.2636C74.0261 42.1758 74.1166 42.1072 74.2099 42.0579C74.4732 41.9207 74.7392 41.8522 75.008 41.8522C75.4193 41.8522 75.7539 41.9838 76.0117 42.2471C76.275 42.5049 76.4066 42.8395 76.4066 43.2509V46.0483H75.5839V43.2509C75.5839 43.0205 75.5098 42.834 75.3617 42.6914C75.2191 42.5433 75.0326 42.4693 74.8023 42.4693C74.5993 42.4693 74.3936 42.5515 74.1852 42.7161C74.0974 42.7929 74.0152 42.8751 73.9384 42.9629V46.0483H73.1156V40.5358Z" fill="black"/>
<path d="M79.6559 46.1305C79.1019 46.1305 78.6686 45.9495 78.3559 45.5875C78.0433 45.2255 77.887 44.6934 77.887 43.9914C77.887 43.2893 78.0433 42.7572 78.3559 42.3952C78.6686 42.0332 79.1019 41.8522 79.6559 41.8522C80.2044 41.8522 80.635 42.0332 80.9476 42.3952C81.2658 42.7572 81.4248 43.2893 81.4248 43.9914C81.4248 44.6934 81.2658 45.2255 80.9476 45.5875C80.635 45.9495 80.2044 46.1305 79.6559 46.1305ZM79.6559 45.5546C79.9411 45.5546 80.1688 45.4312 80.3388 45.1844C80.5143 44.932 80.6021 44.5344 80.6021 43.9914C80.6021 43.4483 80.5143 43.0534 80.3388 42.8066C80.1688 42.5543 79.9411 42.4281 79.6559 42.4281C79.3707 42.4281 79.1403 42.5543 78.9648 42.8066C78.7947 43.0534 78.7097 43.4483 78.7097 43.9914C78.7097 44.5344 78.7947 44.932 78.9648 45.1844C79.1403 45.4312 79.3707 45.5546 79.6559 45.5546Z" fill="black"/>
<path d="M82.9492 41.9345H83.5251L83.6074 42.4281H83.6485C83.7034 42.3458 83.7966 42.2499 83.9283 42.1402C84.1861 41.9482 84.4768 41.8522 84.8004 41.8522C84.943 41.8522 85.0692 41.8659 85.1789 41.8933L85.3352 41.9345L85.2118 42.5927H85.1295C85.0911 42.5872 85.0335 42.5735 84.9567 42.5515C84.8361 42.5241 84.7154 42.5104 84.5947 42.5104C84.4137 42.5104 84.219 42.5927 84.0106 42.7572C83.9392 42.8176 83.8597 42.8998 83.772 43.004V46.0483H82.9492V41.9345Z" fill="black"/>
<path d="M86.8592 41.2763C86.7166 41.2763 86.5987 41.2296 86.5054 41.1364C86.4122 41.0431 86.3656 40.9252 86.3656 40.7826C86.3656 40.64 86.4122 40.5221 86.5054 40.4288C86.5987 40.3356 86.7166 40.2889 86.8592 40.2889C87.0018 40.2889 87.1198 40.3356 87.213 40.4288C87.3063 40.5221 87.3529 40.64 87.3529 40.7826C87.3529 40.9252 87.3063 41.0431 87.213 41.1364C87.1198 41.2296 87.0018 41.2763 86.8592 41.2763ZM86.4478 46.0483V41.9345H87.2706V46.0483H86.4478Z" fill="black"/>
<path d="M88.6693 46.0483V45.4312L90.7673 42.5104H88.6693V41.9345H91.6724V42.5515L89.5743 45.4723H91.7135V46.0483H88.6693Z" fill="black"/>
<path d="M94.7201 46.1305C94.1497 46.1305 93.7054 45.9495 93.3873 45.5875C93.0691 45.2255 92.9101 44.6934 92.9101 43.9914C92.9101 43.2948 93.0636 42.7654 93.3708 42.4034C93.678 42.0359 94.0866 41.8522 94.5967 41.8522C95.1068 41.8522 95.5155 42.0359 95.8226 42.4034C96.1298 42.7654 96.2834 43.2948 96.2834 43.9914V44.1148L96.1188 44.2793H93.7328C93.7328 44.7017 93.8261 45.0198 94.0125 45.2337C94.199 45.4476 94.4623 45.5546 94.8024 45.5546C95.0053 45.5546 95.2165 45.4943 95.4359 45.3736C95.5511 45.3078 95.6416 45.2447 95.7074 45.1844H95.7897L96.0777 45.678C95.9789 45.7603 95.8555 45.8371 95.7074 45.9084C95.4222 46.0565 95.0931 46.1305 94.7201 46.1305ZM95.4606 43.7034C95.4606 43.2701 95.3811 42.9492 95.222 42.7408C95.0684 42.5323 94.86 42.4281 94.5967 42.4281C94.3334 42.4281 94.1223 42.5323 93.9632 42.7408C93.8096 42.9492 93.7328 43.2701 93.7328 43.7034H95.4606Z" fill="black"/>
<path d="M99.0386 46.1305C98.7699 46.1305 98.523 46.051 98.2982 45.8919C98.0733 45.7274 97.8923 45.486 97.7551 45.1679C97.6235 44.8443 97.5577 44.4521 97.5577 43.9914C97.5577 43.2948 97.7085 42.7654 98.0102 42.4034C98.3119 42.0359 98.7095 41.8522 99.2032 41.8522C99.3897 41.8522 99.6009 41.8933 99.8367 41.9756L100.108 42.099V40.5358L100.355 40.2889H100.931V46.0483H100.355L100.273 45.5546H100.232C100.155 45.6643 100.059 45.7603 99.9437 45.8426C99.7023 46.0345 99.4007 46.1305 99.0386 46.1305ZM99.2443 45.5135C99.4473 45.5135 99.653 45.4312 99.8614 45.2666C99.9547 45.1898 100.037 45.1076 100.108 45.0198V42.5927C100.059 42.5652 99.9848 42.5378 99.8861 42.5104C99.6996 42.4555 99.5131 42.4281 99.3266 42.4281C99.0414 42.4281 98.811 42.5543 98.6355 42.8066C98.4655 43.0534 98.3804 43.4483 98.3804 43.9914C98.3804 44.5124 98.46 44.8964 98.619 45.1432C98.7836 45.3901 98.992 45.5135 99.2443 45.5135Z" fill="black"/>
<path d="M105.663 40.2889H107.062C107.753 40.2889 108.269 40.4425 108.609 40.7497C108.949 41.0568 109.119 41.5066 109.119 42.099C109.119 42.9766 108.743 43.5388 107.992 43.7857L109.366 46.0483H108.42L107.144 43.9091H106.486V46.0483H105.663V40.2889ZM107.062 43.3332C107.885 43.3332 108.296 42.9218 108.296 42.099C108.296 41.2763 107.885 40.8649 107.062 40.8649H106.486V43.3332H107.062Z" fill="black"/>
<path d="M112.371 46.1305C111.8 46.1305 111.356 45.9495 111.038 45.5875C110.72 45.2255 110.56 44.6934 110.56 43.9914C110.56 43.2948 110.714 42.7654 111.021 42.4034C111.328 42.0359 111.737 41.8522 112.247 41.8522C112.757 41.8522 113.166 42.0359 113.473 42.4034C113.78 42.7654 113.934 43.2948 113.934 43.9914V44.1148L113.769 44.2793H111.383C111.383 44.7017 111.477 45.0198 111.663 45.2337C111.849 45.4476 112.113 45.5546 112.453 45.5546C112.656 45.5546 112.867 45.4943 113.086 45.3736C113.202 45.3078 113.292 45.2447 113.358 45.1844H113.44L113.728 45.678C113.629 45.7603 113.506 45.8371 113.358 45.9084C113.073 46.0565 112.744 46.1305 112.371 46.1305ZM113.111 43.7034C113.111 43.2701 113.032 42.9492 112.872 42.7408C112.719 42.5323 112.51 42.4281 112.247 42.4281C111.984 42.4281 111.773 42.5323 111.614 42.7408C111.46 42.9492 111.383 43.2701 111.383 43.7034H113.111Z" fill="black"/>
<path d="M116.607 46.1305C116.157 46.1305 115.779 46.0565 115.471 45.9084C115.312 45.8371 115.183 45.7603 115.085 45.678L115.373 45.1844H115.455C115.515 45.2392 115.611 45.3023 115.743 45.3736C115.995 45.4943 116.256 45.5546 116.525 45.5546C116.854 45.5546 117.092 45.5025 117.24 45.3983C117.394 45.2941 117.471 45.1542 117.471 44.9787C117.471 44.7977 117.391 44.6605 117.232 44.5673C117.079 44.474 116.837 44.3726 116.508 44.2629C116.217 44.1641 115.984 44.0736 115.809 43.9914C115.633 43.9091 115.482 43.7912 115.356 43.6376C115.23 43.484 115.167 43.2865 115.167 43.0452C115.167 42.6777 115.296 42.387 115.554 42.1731C115.817 41.9591 116.209 41.8522 116.73 41.8522C117.12 41.8522 117.473 41.929 117.792 42.0826C117.945 42.1539 118.071 42.2279 118.17 42.3047L117.882 42.7984H117.8C117.718 42.738 117.624 42.6777 117.52 42.6174C117.279 42.4912 117.043 42.4281 116.813 42.4281C116.538 42.4281 116.333 42.4802 116.195 42.5844C116.058 42.6832 115.99 42.8093 115.99 42.9629C115.99 43.1439 116.067 43.281 116.22 43.3743C116.379 43.4675 116.623 43.569 116.952 43.6787C117.243 43.7774 117.476 43.8679 117.652 43.9502C117.827 44.0325 117.978 44.1504 118.104 44.304C118.23 44.4576 118.293 44.6551 118.293 44.8964C118.293 45.2858 118.156 45.5903 117.882 45.8097C117.608 46.0236 117.183 46.1305 116.607 46.1305Z" fill="black"/>
<path d="M121.296 46.1305C120.726 46.1305 120.281 45.9495 119.963 45.5875C119.645 45.2255 119.486 44.6934 119.486 43.9914C119.486 43.2948 119.64 42.7654 119.947 42.4034C120.254 42.0359 120.663 41.8522 121.173 41.8522C121.683 41.8522 122.092 42.0359 122.399 42.4034C122.706 42.7654 122.859 43.2948 122.859 43.9914V44.1148L122.695 44.2793H120.309C120.309 44.7017 120.402 45.0198 120.589 45.2337C120.775 45.4476 121.038 45.5546 121.378 45.5546C121.581 45.5546 121.793 45.4943 122.012 45.3736C122.127 45.3078 122.218 45.2447 122.284 45.1844H122.366L122.654 45.678C122.555 45.7603 122.432 45.8371 122.284 45.9084C121.998 46.0565 121.669 46.1305 121.296 46.1305ZM122.037 43.7034C122.037 43.2701 121.957 42.9492 121.798 42.7408C121.645 42.5323 121.436 42.4281 121.173 42.4281C120.91 42.4281 120.698 42.5323 120.539 42.7408C120.386 42.9492 120.309 43.2701 120.309 43.7034H122.037Z" fill="black"/>
<path d="M124.339 46.0483V40.5358L124.586 40.2889H125.162V46.0483H124.339Z" fill="black"/>
<path d="M126.89 46.0483V40.5358L127.137 40.2889H127.713V46.0483H126.89Z" fill="black"/>
<path d="M131.045 46.1305C130.475 46.1305 130.03 45.9495 129.712 45.5875C129.394 45.2255 129.235 44.6934 129.235 43.9914C129.235 43.2948 129.388 42.7654 129.696 42.4034C130.003 42.0359 130.411 41.8522 130.922 41.8522C131.432 41.8522 131.84 42.0359 132.147 42.4034C132.455 42.7654 132.608 43.2948 132.608 43.9914V44.1148L132.444 44.2793H130.058C130.058 44.7017 130.151 45.0198 130.337 45.2337C130.524 45.4476 130.787 45.5546 131.127 45.5546C131.33 45.5546 131.541 45.4943 131.761 45.3736C131.876 45.3078 131.966 45.2447 132.032 45.1844H132.115L132.403 45.678C132.304 45.7603 132.18 45.8371 132.032 45.9084C131.747 46.0565 131.418 46.1305 131.045 46.1305ZM131.785 43.7034C131.785 43.2701 131.706 42.9492 131.547 42.7408C131.393 42.5323 131.185 42.4281 130.922 42.4281C130.658 42.4281 130.447 42.5323 130.288 42.7408C130.134 42.9492 130.058 43.2701 130.058 43.7034H131.785Z" fill="black"/>
<path d="M134.088 41.9345H134.664L134.746 42.4281H134.788C134.842 42.3458 134.936 42.2499 135.067 42.1402C135.325 41.9482 135.616 41.8522 135.939 41.8522C136.082 41.8522 136.208 41.8659 136.318 41.8933L136.474 41.9345L136.351 42.5927H136.269C136.23 42.5872 136.173 42.5735 136.096 42.5515C135.975 42.5241 135.854 42.5104 135.734 42.5104C135.553 42.5104 135.358 42.5927 135.15 42.7572C135.078 42.8176 134.999 42.8998 134.911 43.004V46.0483H134.088V41.9345Z" fill="black"/>
<path d="M61.6656 15.1376V6.13428H64.5768V4.94141H57.3911V6.13428H60.3023V15.1376H61.6656Z" fill="black"/>
<path d="M73.9155 15.1376V4.94141H72.5664V9.23007H67.6103V4.94141H66.247V15.1376H67.6103V10.4655H72.5664V15.1376H73.9155Z" fill="black"/>
<path d="M82.8994 15.1376V13.9448H77.8865V10.4371H81.3231V9.27267H77.8865V6.13428H82.6722V4.94141H76.5232V15.1376H82.8994Z" fill="black"/>
<path d="M93.6754 11.8856C93.2494 13.4619 92.3974 14.101 91.1761 14.101C89.401 14.101 88.5631 12.6951 88.5631 9.98272C88.5631 7.46916 89.5714 5.96387 91.2187 5.96387C92.3548 5.96387 93.1074 6.56031 93.5476 8.0656L94.8115 7.80998C94.2719 5.65145 93.1074 4.771 91.2329 4.771C88.7477 4.771 87.2141 6.67391 87.2141 9.98272C87.2141 13.3057 88.4637 15.308 91.1619 15.308C92.9796 15.308 94.3429 14.5412 94.9677 12.1697L93.6754 11.8856Z" fill="black"/>
<path d="M104.169 15.1376L101.769 10.3945C102.976 9.99692 103.729 9.15907 103.729 7.76738C103.729 5.92127 102.565 4.94141 99.9232 4.94141H96.7706V15.1376H98.1339V10.7496H100.477L102.636 15.1376H104.169ZM98.1339 9.57089V6.13428H100.037C101.13 6.13428 102.366 6.31889 102.366 7.83838C102.366 9.42888 100.846 9.57089 99.9658 9.57089H98.1339Z" fill="black"/>
<path d="M109.429 15.1376V10.9484L112.681 4.94141H111.232L108.747 9.62769H108.719L106.39 4.94141H104.899L108.065 10.9484V15.1376H109.429Z" fill="black"/>
<path d="M115.441 15.1376V10.9058H117.103C119.701 10.9058 121.008 9.94011 121.008 7.89519C121.008 5.89286 119.744 4.94141 117.216 4.94141H114.078V15.1376H115.441ZM115.441 9.7413V6.13428H117.33C118.864 6.13428 119.659 6.68811 119.659 7.89519C119.659 9.55669 118.281 9.7413 117.202 9.7413H115.441Z" fill="black"/>
<path d="M126.166 15.1376V6.13428H129.077V4.94141H121.891V6.13428H124.803V15.1376H126.166Z" fill="black"/>
<path d="M133.839 15.308C136.452 15.308 138 13.2915 138 10.0395C138 7.00053 136.58 4.771 133.839 4.771C131.098 4.771 129.664 7.00053 129.664 10.0395C129.664 13.2915 131.212 15.308 133.839 15.308ZM133.839 14.1436C132.092 14.1436 131.013 12.6241 131.013 10.0395C131.013 7.44076 132.092 5.92127 133.839 5.92127C135.572 5.92127 136.651 7.44076 136.651 10.0395C136.651 12.6241 135.586 14.1436 133.839 14.1436Z" fill="black"/>
<path d="M70.0157 32.209V21.4976H67.1812L64.7644 29.5088H64.7346L62.4073 21.4976H59.543V32.209H61.4376V24.0785H61.4674L63.9141 32.209H65.6297L68.0614 24.0785H68.0912V32.209H70.0157Z" fill="black"/>
<path d="M79.4643 32.209V30.4785H74.4368V27.5246H77.9128V25.8538H74.4368V23.2281H79.3002V21.4976H72.3781V32.209H79.4643Z" fill="black"/>
<path d="M89.3265 32.209L86.9843 27.3456C88.1181 26.8831 88.8492 25.988 88.8492 24.5857C88.8492 22.5419 87.5214 21.4976 84.6869 21.4976H81.0319V32.209H83.0906V27.9125H85.0897L87.044 32.209H89.3265ZM83.0906 26.2417V23.2281H84.8063C85.7014 23.2281 86.7755 23.3922 86.7755 24.72C86.7755 26.0925 85.4776 26.2417 84.7018 26.2417H83.0906Z" fill="black"/>
<path d="M96.9518 28.6286C96.564 30.1055 95.7434 30.6575 94.7141 30.6575C93.1626 30.6575 92.3719 29.4044 92.3719 26.7638C92.3719 24.3619 93.2819 23.0193 94.7588 23.0193C95.7733 23.0193 96.4744 23.5265 96.8474 24.9288L98.757 24.5708C98.2497 22.2883 96.9518 21.3186 94.7887 21.3186C92.0437 21.3186 90.3131 23.2878 90.3131 26.7638C90.3131 30.3144 91.8199 32.388 94.6544 32.388C96.6087 32.388 98.1751 31.7018 98.9061 29.0761L96.9518 28.6286Z" fill="black"/>
<path d="M108.97 32.209V21.4976H106.911V25.7643H102.555V21.4976H100.481V32.209H102.555V27.5992H106.911V32.209H108.97Z" fill="black"/>
<path d="M119.615 32.209L116.377 21.4976H113.588L110.365 32.209H112.439L113.215 29.3894H116.676L117.451 32.209H119.615ZM114.93 23.1983H114.96L116.198 27.6738H113.692L114.93 23.1983Z" fill="black"/>
<path d="M129.542 32.209V21.4976H127.617V28.6584H127.588L123.56 21.4976H121.009V32.209H122.948V24.3768H122.978L127.513 32.209H129.542Z" fill="black"/>
<path d="M135.994 32.209V23.2281H138.903V21.4976H131.041V23.2281H133.935V32.209H135.994Z" fill="black"/>
<path d="M25.0825 48.8513C37.6731 48.8513 47.8798 38.4272 47.8798 25.5684C47.8798 12.7096 37.6731 2.28543 25.0825 2.28543C12.4919 2.28543 2.28516 12.7096 2.28516 25.5684C2.28516 38.4272 12.4919 48.8513 25.0825 48.8513Z" fill="white"/>
<path fill-rule="evenodd" clip-rule="evenodd" d="M25.0827 4.57089C13.7995 4.57089 4.57089 13.9261 4.57089 25.5684C4.57089 37.2107 13.7995 46.5659 25.0827 46.5659C36.366 46.5659 45.5946 37.2107 45.5946 25.5684C45.5946 13.9261 36.366 4.57089 25.0827 4.57089ZM0 25.5684C0 11.493 11.1847 0 25.0827 0C38.9807 0 50.1655 11.493 50.1655 25.5684C50.1655 39.6438 38.9807 51.1368 25.0827 51.1368C11.1847 51.1368 0 39.6438 0 25.5684Z" fill="#006EFF"/>
<g clip-path="url(#clip0)">
<path d="M31.1697 31.1729C30.8729 31.4599 30.8423 31.5516 31.0001 31.8109C31.0741 31.9312 31.1865 32.0348 31.2979 32.1245C31.3985 32.2054 31.5563 32.232 31.6283 32.3277C31.931 32.731 32.3649 33.0308 32.57 33.5061C32.6667 33.7299 32.7899 33.9035 33.0197 33.9932C33.214 34.0692 33.3283 34.2171 33.4141 34.4054C33.7484 35.1352 34.1606 35.8205 34.6153 36.4803C34.8687 36.8491 35.0422 37.2455 35.1103 37.6922C35.1635 38.0413 35.0827 38.3194 34.8361 38.5866C34.3441 39.1211 33.7248 39.4377 33.0641 39.6822C32.1766 40.0116 31.29 40.3479 30.3542 40.5244C30.1461 40.5638 29.939 40.6072 29.729 40.6348C29.0988 40.7196 28.4687 40.8636 27.8386 40.8616C27.1098 40.8597 26.3712 40.7758 25.6533 40.6407C24.1475 40.3577 22.6683 39.9544 21.2059 39.4959C20.63 39.3154 20.0471 39.1547 19.4831 38.9436C18.9348 38.7385 18.4112 38.4683 17.8678 38.2484C17.288 38.0147 16.7653 37.6863 16.2604 37.3254C15.721 36.9398 15.2703 36.4615 14.9735 35.8718C14.7526 35.433 14.6836 34.9498 14.7822 34.4469C14.8818 33.939 15.0869 33.4893 15.3818 33.0692C15.7851 32.4963 16.1657 31.9086 16.571 31.3366C16.8905 30.885 17.2386 30.4521 17.5601 30.0014C17.6725 29.8436 17.7643 29.6641 17.8274 29.4817C17.9457 29.1444 18.0354 28.7973 18.139 28.4542C18.2129 28.2096 18.4269 28.1129 18.6232 28.2737C18.7957 28.4147 18.9126 28.535 19.1394 28.5537C19.2567 28.5636 19.486 28.6681 19.5965 28.749C19.5876 28.7815 19.5038 28.8141 19.4949 28.8466C19.2513 28.8713 18.9101 28.796 18.7612 28.9216C18.7124 28.9628 18.7169 29.0577 18.7356 29.0833C19.0166 29.4462 19.3103 29.7707 19.7679 29.8244C19.9666 29.8478 20.0402 29.8416 20.1625 29.7647C20.271 29.6967 20.3392 29.4817 20.3392 29.4817C20.3392 29.4817 20.3045 28.609 20.0925 28.182C20.0264 28.0498 20.0314 27.8556 20.0688 27.7047C20.129 27.4572 20.0245 27.3349 19.8154 27.2343C19.6251 27.3102 19.3973 27.3497 19.2415 27.4779C19.0945 27.5992 19.0235 27.8142 18.9101 28.0025C18.7966 27.4779 18.8645 27.5235 18.8537 27.3105C18.7492 27.0294 18.5117 26.9789 18.2899 26.7472C17.9654 26.4079 17.9349 25.973 18.2287 25.6042C18.2997 25.5155 18.3855 25.4366 18.4674 25.3567C18.6311 25.196 18.7977 25.0392 18.9614 24.8784C19.2711 24.5777 19.4239 24.2118 19.416 23.7799C19.415 23.7473 19.4091 23.7128 19.417 23.6823C19.5718 23.0018 19.2701 22.4368 18.9535 21.8796C18.8667 21.7268 18.7494 21.5818 18.6202 21.4625C18.2928 21.1607 18.065 21.1568 17.7041 21.4152C17.2811 21.7179 17.0937 21.6627 16.6608 21.3866C16.0198 20.9763 15.8541 20.4675 16.0799 19.7585C16.1924 19.4054 16.1874 19.0159 16.2752 18.652C16.3975 18.1461 16.5365 17.6402 16.713 17.1511C16.787 16.946 16.9635 16.7715 17.1164 16.6048C17.359 16.3395 17.6183 16.0881 17.8757 15.8356C18.3086 15.4126 18.6961 14.953 19.0659 14.4728C19.5186 13.887 20.0955 13.4196 20.7138 13.0242C21.4682 12.541 22.2472 12.0942 23.0322 11.6603C23.8359 11.2166 24.6889 10.8783 25.604 10.762C26.7193 10.62 27.8395 10.5214 28.9578 10.408C29.4962 10.3527 29.9913 10.5155 30.4755 10.7265C30.9094 10.9148 31.3502 11.0894 31.7831 11.2807C31.9142 11.3389 32.0503 11.4118 32.148 11.5124C32.5128 11.8881 32.7002 12.3615 32.7751 12.8684C32.8333 13.2628 32.5927 13.6099 32.218 13.748C32.0809 13.7983 31.934 13.821 31.7929 13.8644C31.4764 13.962 31.3669 14.2312 31.5464 14.5113C31.9882 15.1996 32.2762 15.9579 32.57 16.7143C32.6174 16.8356 32.641 16.9815 32.7239 17.0712C33.0651 17.442 33.1045 17.9282 33.2416 18.3749C33.2761 18.4893 33.2416 18.6362 33.2061 18.7585C33.069 19.2299 33.212 19.6086 33.5256 19.9675C33.7908 20.2712 34.0098 20.6164 34.2533 20.9398C34.4959 21.2633 34.7296 21.5956 34.992 21.9033C35.4604 22.4506 35.342 22.9723 34.6655 23.2553C34.3135 23.4032 34.1932 23.478 34.2533 23.8823C34.2997 24.1969 34.2687 24.3923 34.1662 24.6822C33.9453 24.6822 33.7457 24.6733 33.5377 24.6822C33.3326 24.6911 33.1124 24.944 33.1508 25.1964C33.6972 25.1393 33.7207 25.2555 33.9376 25.3107C34.1122 25.6874 34.2366 25.9898 34.3796 26.3359C34.4535 26.5144 34.4959 26.7097 34.5314 26.901C34.5876 27.2018 34.6271 27.5065 34.6784 27.8339C34.561 27.9374 34.4091 28.0715 34.2583 28.2047C34.488 28.5893 34.704 28.2589 34.916 28.2402C35.1044 28.464 35.0432 28.7204 35.0166 28.9512C34.9663 29.386 34.8736 29.816 34.8026 30.2479C34.7681 30.458 34.6182 30.5516 34.4407 30.6019C34.3332 30.6325 34.2129 30.6167 34.1005 30.6325C33.9062 30.6591 33.7662 30.738 33.7465 30.9668C33.7376 31.0753 33.6912 31.1926 33.6271 31.2804C33.5068 31.4451 33.284 31.4786 33.0493 31.3859C32.9004 31.3267 32.7653 31.2084 32.5888 31.2903C32.0917 31.522 31.6085 31.5043 31.1697 31.1729ZM23.5252 31.6601C23.539 32.0328 23.6771 32.2872 23.9236 32.4726C24.2057 32.6847 24.3329 32.9302 24.1366 33.2556C24.4029 33.6254 24.8151 33.7349 25.1474 33.9508C25.3032 34.0524 25.4413 34.1224 25.5014 34.3108C25.5951 34.6037 25.7884 34.8038 26.0833 34.8965C26.2065 34.7605 26.313 34.6421 26.4156 34.5287C26.6592 34.5958 26.7499 34.7437 26.7499 34.9547C26.6227 35.1017 26.5073 35.2338 26.4018 35.3551C26.4452 35.5336 26.5497 35.6026 26.6917 35.6046C26.8386 35.6066 26.9865 35.5987 27.1315 35.5799C27.4362 35.5405 27.524 35.4586 27.5684 35.1569C27.5999 34.9439 27.6256 34.7348 27.8405 34.6017C28.0328 34.6826 28.2251 34.7644 28.4184 34.8462C28.4184 35.1766 28.5022 35.5316 28.3967 35.8146C28.2715 36.1509 27.9825 36.425 27.7784 36.7071C27.5526 36.7278 27.4126 36.4615 27.1946 36.6183C27.1917 36.6666 27.167 36.7327 27.1887 36.7574C27.3731 36.9615 27.5319 37.2416 27.7656 37.3382C28.1975 37.5187 28.3119 37.8737 28.4194 38.2445C28.5367 38.6488 28.6166 38.7454 29.0111 38.7227C29.3671 38.703 29.7231 38.6626 30.0761 38.6093C30.1658 38.5955 30.2418 38.4969 30.365 38.4082C30.1451 38.204 29.9676 38.0384 29.7931 37.8766C29.7546 37.8954 29.7211 37.9033 29.6974 37.924C29.5919 38.0137 29.4815 38.0847 29.3473 37.989C29.1994 37.8835 29.2744 37.7652 29.3316 37.6439C29.3503 37.6054 29.3345 37.5502 29.3345 37.5068C29.3109 37.4772 29.2951 37.4427 29.2685 37.4289C29.2122 37.3993 29.1511 37.3707 29.089 37.3609C28.9923 37.3461 28.8918 37.3579 28.7961 37.3402C28.5456 37.2938 28.4608 37.1025 28.6432 36.9221C28.9056 36.6617 28.9529 36.3185 29.0791 36.005C29.161 35.8018 29.161 35.6302 28.9864 35.4724C28.7695 35.2762 28.8267 35.0464 28.9095 34.7703C28.9913 34.8295 29.0594 34.8551 29.086 34.9025C29.3424 35.3709 29.583 35.8482 29.8453 36.3126C29.9873 36.5641 30.085 36.8077 29.9144 37.1163C30.2171 37.1301 30.3463 37.3076 30.4577 37.5196C30.6096 37.8086 30.7753 38.0906 30.936 38.3746C31.0109 38.5068 31.1313 38.5423 31.2713 38.5166C31.4212 38.488 31.4981 38.3874 31.4971 38.2395C31.4961 38.0936 31.502 37.9397 31.4616 37.8017C31.2831 37.1923 31.0869 36.5878 30.9015 35.9803C30.797 35.6381 30.5997 35.3679 30.3039 35.1677C30.1954 35.0948 30.086 35.0238 29.9775 34.9518C29.6313 34.722 29.4331 34.4281 29.4105 33.9844C29.3858 33.5031 29.3286 33.0002 28.8109 32.7379C28.7547 32.7093 28.7211 32.6393 28.6669 32.6058C28.2646 32.3592 27.8622 32.1107 27.451 31.879C27.3958 31.8484 27.2903 31.9086 27.1493 31.9391C27.3317 32.2162 27.4806 32.445 27.6315 32.6728C27.6946 32.7685 27.8188 32.8661 27.8119 32.9558C27.7873 33.298 28.0486 33.5169 28.1403 33.797C28.0397 33.9932 27.9461 34.1767 27.8484 34.366C27.6344 34.2151 27.4481 34.0613 27.242 33.9439C26.8061 33.6944 26.7479 33.5958 26.8031 33.0791C26.8337 32.7921 26.6621 32.6127 26.3771 32.6491C26.2686 32.663 26.1651 32.7073 26.0576 32.7379C25.8357 32.519 25.5784 32.372 25.462 32.0772C25.4186 31.9658 25.3022 31.8524 25.1918 31.804C24.8989 31.6749 24.8703 31.4747 24.9778 31.2725C24.8338 31.1009 24.7234 30.9639 24.607 30.8337C24.5321 30.7499 24.4552 30.6167 24.3654 30.6049C24.111 30.5714 24.041 30.3554 23.9 30.1917C23.758 30.1779 23.614 30.1641 23.4897 30.1523C23.3428 29.9521 23.2126 29.7746 23.0775 29.5902C23.1367 29.4363 23.2038 29.2638 23.2718 29.0872C23.1732 29.0251 23.1219 28.9679 23.0647 28.96C22.7442 28.9196 22.4918 28.748 22.2502 28.5537C22.0736 28.4117 21.9001 28.2648 21.7275 28.1169C21.5875 27.9966 21.4356 27.965 21.2788 28.0646C21.1496 28.1465 21.052 28.2668 21.0855 28.4325C21.1072 28.5419 21.1506 28.6524 21.2088 28.749C21.3262 28.9443 21.4622 29.1287 21.5855 29.32C21.6999 29.4975 21.8419 29.605 22.0687 29.5862C22.3083 29.5665 22.5125 29.6444 22.6574 29.8752C22.5993 29.9629 22.5144 30.0379 22.5006 30.1237C22.4809 30.241 22.4789 30.3909 22.5381 30.4806C22.5815 30.5457 22.7373 30.5546 22.8428 30.5546C22.9316 30.5546 23.0203 30.5053 23.1613 30.4619C23.185 30.6029 23.2432 30.7213 23.2116 30.8021C23.0943 31.097 22.832 30.8209 22.6269 30.9264C22.6091 31.0033 22.545 31.1187 22.5785 31.1778C22.6377 31.2834 22.7432 31.3839 22.8537 31.4342C23.0627 31.525 23.2846 31.5802 23.5252 31.6601ZM27.4812 16.232C27.7104 16.3403 27.8818 16.4059 27.9955 16.4993C28.239 16.6995 28.2932 16.5851 28.1837 16.9006C28.1028 17.1314 28.1255 17.3868 28.2725 17.6087C28.5279 17.9943 28.4579 18.3848 28.2912 18.7782C28.093 19.2486 27.8317 19.6756 27.4895 20.0592C27.099 20.4961 27.2696 21.1775 27.8238 21.3106C28.4549 21.4615 28.9381 21.8283 29.4193 22.2218C29.7073 22.4575 30.0071 22.6794 30.3335 22.9328C30.6836 22.7149 31.0277 22.5295 31.3374 22.2977C31.5366 22.1488 31.6539 21.9348 31.5218 21.6518C31.4005 21.3915 31.2121 21.2889 30.939 21.2988C30.8088 21.3037 30.6757 21.3156 30.5475 21.2988C30.3591 21.2741 30.1974 21.1193 30.2575 20.9803C30.3739 20.713 30.2122 20.5858 30.0662 20.433C29.9873 20.3501 29.9006 20.2732 29.8315 20.1825C29.6708 19.9705 29.6787 19.8206 29.8542 19.6204C30.0041 19.4478 30.1501 19.2713 30.3108 19.1096C30.7407 18.6786 31.2239 18.372 31.8728 18.4656C31.9695 18.4794 32.0691 18.4775 32.1667 18.4755C32.5 18.4696 32.6805 18.2881 32.6657 17.9588C32.6499 17.5998 32.4793 17.3631 32.1371 17.2113C31.5888 16.9677 31.1746 16.6088 31.1904 15.9234C31.1973 15.6414 31.0386 15.527 30.7476 15.522C30.651 15.521 30.5514 15.5289 30.4577 15.5526C29.7891 15.7163 29.1077 15.7577 28.4243 15.7893C28.2498 15.7942 27.8241 16.0546 27.4812 16.232ZM29.1018 14.7321C28.9539 14.6464 28.871 14.5655 28.7764 14.5497C28.6334 14.5251 28.4835 14.5438 28.3366 14.5477C28.1048 14.5537 27.8958 14.5339 27.7104 14.3485C27.5171 14.1553 27.2567 14.1996 27.0191 14.2815C26.3426 14.5162 25.6671 14.7509 24.9975 15.0033C24.8545 15.0576 24.7135 15.1611 24.6149 15.2794C24.3763 15.5654 24.1396 15.8593 23.9453 16.1768C23.6929 16.589 23.3852 16.8415 22.8724 16.7764C22.6269 16.7448 22.476 16.8898 22.402 17.1186C22.3665 17.2271 22.3231 17.3326 22.2945 17.443C22.2117 17.7596 22.3468 17.9233 22.6663 17.8818C22.7758 17.8671 22.8872 17.8247 22.9848 17.7704C23.3379 17.5722 23.6801 17.3553 24.037 17.1639C24.1919 17.0811 24.3684 17.016 24.5409 16.9924C25.0172 16.9263 25.4492 16.7626 25.8495 16.4993C26.0113 16.3928 26.2016 16.3297 26.3702 16.232C26.9313 15.9066 27.5457 15.6838 28.0871 15.3189C28.3011 15.1749 28.5417 15.0714 28.7685 14.9461C28.8632 14.8909 28.9489 14.8288 29.1018 14.7321ZM31.4744 35.0859C31.4586 35.2841 31.6371 35.436 31.5257 35.6539C31.4626 35.7772 31.5316 35.9359 31.6894 35.9497C31.8965 35.9685 31.9409 36.1282 32.0336 36.2564C32.147 36.4132 32.2485 36.5947 32.3994 36.7041C32.5937 36.8441 32.8116 36.929 32.9546 37.1538C33.0759 37.3441 33.3185 37.2702 33.4141 37.0542C33.5049 36.8481 33.4388 36.6686 33.3323 36.499C33.0572 36.0582 32.783 35.6154 32.4931 35.1845C32.2939 34.8887 32.0967 34.582 31.8482 34.3305C31.4833 33.9607 31.1204 33.5929 30.795 33.1866C30.6175 32.9657 30.368 32.8286 30.0751 32.8237C29.8897 32.8207 29.6452 32.7468 29.5603 32.9884C29.4893 33.1895 29.6353 33.3562 29.7674 33.5051C29.939 33.6994 30.0919 33.9144 30.2792 34.0909C30.6411 34.4321 30.9113 34.8847 31.4744 35.0859ZM32.9329 19.5267C32.3097 19.7555 32 20.2604 32.1065 20.8156C32.2101 21.3589 32.2357 21.8816 31.9123 22.3687C31.8689 22.4338 31.8649 22.5236 31.8403 22.6015C31.789 22.7622 31.8541 22.847 32.0464 22.8865C32.1184 22.7947 32.2668 22.706 32.3378 22.6015C32.4374 22.4545 32.4734 22.2997 32.5562 22.1429C32.6933 21.8855 33.1508 21.9664 33.1508 21.9664C33.1508 21.9664 32.4521 22.3231 33.3017 22.7149C33.4398 22.5512 33.5719 22.3944 33.6972 22.2455C34.0246 22.1262 34.5009 22.3835 34.6389 21.8737C34.061 21.0799 33.499 20.3058 32.9329 19.5267ZM32.0848 25.4336C31.6085 25.5115 31.715 25.9089 31.6539 26.1989C31.5513 26.2423 31.4665 26.2778 31.3393 26.332C31.3186 26.1072 31.5523 25.8182 31.1352 25.7482C31.0395 25.8971 30.938 26.0559 30.8137 26.2501C30.655 26.117 30.511 25.9957 30.367 25.8744C30.2142 25.9523 30.1599 26.0983 30.2733 26.1939C30.512 26.3941 31.3665 27.0819 31.7573 26.7391C31.995 26.9105 31.211 27.7244 31.0808 27.8053C30.9161 27.685 29.942 27.0055 29.8177 26.9138C29.5958 27.1712 29.9361 27.2708 29.9173 27.4503C29.8651 27.6061 29.6106 27.6988 29.8049 27.9374C30.2309 27.7727 30.6599 27.6071 31.148 27.4187C31.2871 27.5262 31.4872 27.6426 31.6371 27.8053C31.788 27.97 31.9468 28.0084 32.1549 27.9226C32.2426 28.3003 32.5306 28.3812 32.8402 28.5064C32.8905 28.391 32.9526 28.2974 32.9704 28.1948C33.0207 27.9108 32.6607 27.9374 32.6085 27.755C32.5493 27.3724 32.8806 27.2964 33.0562 27.1337C33.0838 26.8231 33.1035 26.544 32.7308 26.4365C32.3748 26.7334 32.1549 27.4084 32.1549 27.9226C31.9379 28.3389 30.8924 27.7008 31.1379 27.4819C31.3628 27.2817 32.1105 26.2995 32.2249 26.0519C32.3343 25.8143 32.2633 25.6141 32.0848 25.4336ZM25.5734 23.4032C25.2184 23.4663 24.8634 23.5797 24.5695 23.347C24.3467 23.1705 24.1731 23.1645 23.9936 23.3549C23.7106 23.1912 23.7106 23.1912 23.6524 22.9239C23.5923 22.6488 23.3951 22.5581 23.1525 22.6892C22.9967 22.7731 22.9099 22.8963 22.8951 23.0659C23.1327 23.4022 23.3497 23.7424 23.6012 24.056C23.825 24.3361 24.0282 24.3282 24.2895 24.0678C24.3457 24.0116 24.3697 23.9321 24.453 23.8823C24.6012 23.7937 24.8204 23.8445 24.853 23.9966C24.8909 24.1735 24.7125 24.3086 24.7958 24.4536C24.8792 24.5987 25.1208 24.7355 25.3003 24.6112C25.5162 24.4613 25.5724 24.2128 25.6582 23.985C25.7282 23.7947 25.749 23.6073 25.5734 23.4032ZM20.7917 29.742C20.9485 29.9955 21.0638 30.2104 21.2078 30.4047C21.3025 30.5319 21.4228 30.6621 21.5618 30.7282C21.7029 30.7952 21.8952 30.813 22.0086 30.6512C22.0993 30.5211 22.0618 30.383 21.9898 30.2371C21.7729 29.8002 21.34 29.7391 20.9455 29.6148C20.913 29.605 20.8508 29.6908 20.7917 29.742ZM27.8603 25.619C27.8938 25.7038 27.9046 25.8103 27.9638 25.8646C28.1068 25.9957 28.2646 26.1131 28.4283 26.2176C28.7596 26.4306 29.0525 26.3419 29.2231 25.979C29.2537 25.9149 29.2625 25.7975 29.2251 25.7531C29.1708 25.689 29.0564 25.6259 28.9825 25.6407C28.8454 25.6673 28.7182 25.7502 28.5999 25.8034C28.3533 25.7324 28.1936 25.4119 27.8603 25.619ZM27.4106 26.4612C27.1315 26.4543 26.9836 26.7107 27.095 26.9444C27.1818 27.1268 27.5792 27.3457 27.7824 27.3231C28.019 27.2964 28.1423 27.0657 28.0141 26.8596C27.8691 26.6268 27.6187 26.544 27.4106 26.4612ZM24.6001 21.6252C24.392 21.7416 24.2214 21.8372 24.0272 21.9457C24.2609 22.1952 24.5035 22.1202 24.7628 22.1005C24.8289 21.9743 24.9285 21.852 24.9531 21.7159C24.9837 21.5493 24.9709 21.3668 24.9413 21.1982C24.9147 21.0444 24.7816 20.9921 24.6386 21.0384C24.4956 21.0858 24.4423 21.1972 24.4956 21.3461C24.5242 21.4221 24.5528 21.497 24.6001 21.6252ZM23.1673 22.1222C23.3507 21.8441 23.4325 21.6065 23.2146 21.3441C22.8566 21.6597 22.8428 21.8047 23.1673 22.1222Z" fill="black"/>
<path d="M25.4306 33.0364C24.905 33.2909 24.7551 33.2721 24.5224 32.9664C24.3735 32.7702 24.4346 32.4132 24.6476 32.286C24.6979 32.2564 24.7877 32.2318 24.8281 32.2574C25.0046 32.3659 25.194 32.4714 25.3291 32.6233C25.4099 32.714 25.3981 32.8875 25.4306 33.0364Z" fill="black"/>
<path d="M26.1406 33.9022C26.0291 33.9022 25.9305 33.919 25.8398 33.8993C25.6347 33.8529 25.5696 33.7346 25.6465 33.5383C25.6998 33.4023 25.7649 33.2652 25.8536 33.1518C25.9039 33.0877 26.0242 33.0275 26.0942 33.0443C26.1672 33.0611 26.2412 33.1646 26.2737 33.2455C26.3348 33.4003 26.2984 33.5334 26.1406 33.9022Z" fill="black"/>
<path d="M23.9082 31.1569C24.0325 31.3038 24.1321 31.4211 24.2494 31.5602C24.0591 31.6746 23.9141 31.8274 23.7169 31.6558C23.5936 31.5484 23.6351 31.4389 23.9082 31.1569Z" fill="black"/>
</g>
<defs>
<clipPath id="clip0">
<rect width="20.5381" height="30.4645" fill="white" transform="translate(14.7412 10.3988)"/>
</clipPath>
</defs>
</svg>
