<svg width="72" height="72" viewBox="0 0 72 72" fill="none" xmlns="http://www.w3.org/2000/svg">
<rect width="72" height="72" fill="white"/>
<path d="M37.4121 29.5C37.4121 31.1569 36.069 32.5 34.4121 32.5C32.7553 32.5 31.4121 31.1569 31.4121 29.5C31.4121 27.8431 32.7553 26.5 34.4121 26.5C36.069 26.5 37.4121 27.8431 37.4121 29.5Z" fill="#026DFA"/>
<path fill-rule="evenodd" clip-rule="evenodd" d="M32.9121 37.5C36.502 37.5 39.4121 34.5899 39.4121 31C39.4121 27.4101 36.502 24.5 32.9121 24.5C29.3223 24.5 26.4121 27.4101 26.4121 31C26.4121 34.5899 29.3223 37.5 32.9121 37.5ZM32.9121 40.5C38.1588 40.5 42.4121 36.2467 42.4121 31C42.4121 25.7533 38.1588 21.5 32.9121 21.5C27.6654 21.5 23.4121 25.7533 23.4121 31C23.4121 36.2467 27.6654 40.5 32.9121 40.5Z" fill="black"/>
<path fill-rule="evenodd" clip-rule="evenodd" d="M33.618 15.7046C32.6995 16.9463 32.4121 18.3775 32.4121 19V21H29.4121V19C29.4121 17.7891 29.8748 15.7204 31.2062 13.9204C32.5958 12.0418 34.9067 10.5 38.4121 10.5C41.9175 10.5 44.2284 12.0418 45.618 13.9204C46.9495 15.7204 47.4121 17.7891 47.4121 19V21H44.4121V19C44.4121 18.3775 44.1248 16.9463 43.2062 15.7046C42.3458 14.5415 40.9067 13.5 38.4121 13.5C35.9175 13.5 34.4784 14.5415 33.618 15.7046Z" fill="#026DFA"/>
<path fill-rule="evenodd" clip-rule="evenodd" d="M26.0567 37.8564L28.7665 39.1436L19.8232 57.9717L20.7742 58.6057L24.4116 55.332V51.5H25.4116V47.5109L28.9116 46.0109V44.073L30.2594 43.3991L32.0409 39.3908L34.7823 40.6092L32.5638 45.601L31.9116 45.9271V47.9891L28.4116 49.4891V54.5H27.4116V56.6681L21.049 62.3944L16 59.0284L26.0567 37.8564Z" fill="black"/>
<path fill-rule="evenodd" clip-rule="evenodd" d="M41.0184 21.5039L48.8947 22.0665L53.6204 32.1087L50.0898 37.6568L50.9115 39.7112V43.573L52.9115 44.573V48.0001H54.4115V52.8788L56.8003 55.2676L51.8072 63.5894L39.5762 39.6833L42.2469 38.3169L52.0159 57.4107L53.0227 55.7326L51.4115 54.1214V51.0001H49.9115V46.4271L47.9115 45.4271V40.289L46.7333 37.3434L50.2027 31.8915L46.9284 24.9337L40.8047 24.4963L41.0184 21.5039Z" fill="black"/>
</svg>
