<svg width="80" height="81" viewBox="0 0 80 81" fill="none" xmlns="http://www.w3.org/2000/svg">
<g filter="url(#filter0_d)">
<rect x="-206" y="-28" width="625" height="710" fill="white"/>
</g>
<path d="M39.9224 77.3799C59.9614 77.3799 76.2062 60.8682 76.2062 40.5C76.2062 20.1318 59.9614 3.62012 39.9224 3.62012C19.8835 3.62012 3.63867 20.1318 3.63867 40.5C3.63867 60.8682 19.8835 77.3799 39.9224 77.3799Z" fill="white"/>
<path fill-rule="evenodd" clip-rule="evenodd" d="M39.9212 7.24022C21.9631 7.24022 7.27494 22.0588 7.27494 40.5C7.27494 58.9412 21.9631 73.7598 39.9212 73.7598C57.8793 73.7598 72.5675 58.9412 72.5675 40.5C72.5675 22.0588 57.8793 7.24022 39.9212 7.24022ZM0 40.5C0 18.2048 17.8014 0 39.9212 0C62.041 0 79.8424 18.2048 79.8424 40.5C79.8424 62.7952 62.041 81 39.9212 81C17.8014 81 0 62.7952 0 40.5Z" fill="#006EFF"/>
<g clip-path="url(#clip0)">
<path d="M49.6109 49.3783C49.1385 49.8329 49.0899 49.9782 49.341 50.389C49.4587 50.5795 49.6376 50.7435 49.815 50.8857C49.9751 51.0138 50.2262 51.056 50.3407 51.2075C50.8226 51.8463 51.5132 52.3212 51.8396 53.0741C51.9934 53.4287 52.1896 53.7036 52.5553 53.8457C52.8645 53.966 53.0466 54.2003 53.1831 54.4986C53.7152 55.6545 54.3712 56.7401 55.0948 57.7851C55.4981 58.3693 55.7744 58.9973 55.8827 59.7048C55.9674 60.2578 55.8387 60.6983 55.4464 61.1216C54.6632 61.9682 53.6775 62.4696 52.626 62.857C51.2134 63.3787 49.8024 63.9114 48.3129 64.191C47.9818 64.2534 47.6522 64.3222 47.3179 64.3659C46.315 64.5002 45.3121 64.7283 44.3091 64.7252C43.1493 64.7221 41.9737 64.5893 40.8311 64.3753C38.4345 63.927 36.0802 63.2881 33.7526 62.5618C32.8361 62.2759 31.9085 62.0213 31.0107 61.687C30.1381 61.3621 29.3047 60.9342 28.4399 60.5858C27.517 60.2156 26.6852 59.6955 25.8816 59.1238C25.023 58.513 24.3058 57.7555 23.8334 56.8214C23.4818 56.1263 23.3719 55.3609 23.5289 54.5642C23.6874 53.7598 24.0139 53.0475 24.4831 52.3821C25.1251 51.4746 25.7309 50.5436 26.376 49.6376C26.8845 48.9222 27.4385 48.2365 27.9502 47.5227C28.1291 47.2727 28.2751 46.9885 28.3755 46.6995C28.5639 46.1653 28.7067 45.6154 28.8715 45.0719C28.9892 44.6845 29.3298 44.5314 29.6421 44.786C29.9168 45.0094 30.1027 45.1999 30.4637 45.2296C30.6504 45.2452 31.0154 45.4108 31.1912 45.5389C31.177 45.5905 31.0437 45.642 31.0295 45.6935C30.6419 45.7326 30.0988 45.6133 29.8618 45.8123C29.784 45.8776 29.7912 46.0278 29.821 46.0684C30.2683 46.6433 30.7357 47.1573 31.464 47.2424C31.7803 47.2793 31.8975 47.2696 32.0921 47.1478C32.2647 47.04 32.3733 46.6995 32.3733 46.6995C32.3733 46.6995 32.3181 45.3171 31.9807 44.6407C31.8755 44.4314 31.8834 44.1237 31.943 43.8847C32.0387 43.4927 31.8724 43.299 31.5396 43.1396C31.2367 43.2599 30.8742 43.3224 30.6262 43.5255C30.3923 43.7176 30.2793 44.0581 30.0988 44.3565C29.9181 43.5255 30.0263 43.5977 30.009 43.2603C29.8426 42.8151 29.4648 42.7351 29.1116 42.368C28.5952 41.8307 28.5466 41.1418 29.0143 40.5576C29.1273 40.4171 29.2639 40.2921 29.3941 40.1656C29.6547 39.911 29.9199 39.6626 30.1804 39.408C30.6733 38.9316 30.9165 38.3521 30.904 37.6679C30.9024 37.6164 30.893 37.5617 30.9056 37.5133C31.152 36.4355 30.6717 35.5404 30.1679 34.6579C30.0298 34.4158 29.843 34.1862 29.6374 33.9972C29.1163 33.5192 28.7538 33.5129 28.1793 33.9222C27.506 34.4017 27.2078 34.3142 26.5188 33.8769C25.4986 33.2271 25.2349 32.4211 25.5943 31.298C25.7733 30.7388 25.7654 30.1218 25.9051 29.5454C26.0997 28.7441 26.321 27.9428 26.602 27.168C26.7197 26.8431 27.0006 26.5666 27.2439 26.3027C27.63 25.8825 28.0428 25.4842 28.4524 25.0843C29.1414 24.4142 29.7582 23.6863 30.3468 22.9256C31.0672 21.9977 31.9854 21.2573 32.9695 20.631C34.1701 19.8656 35.41 19.158 36.6594 18.4707C37.9385 17.7678 39.2961 17.232 40.7526 17.0477C42.5277 16.8228 44.3107 16.6666 46.0905 16.4869C46.9475 16.3995 47.7354 16.6572 48.506 16.9915C49.1966 17.2898 49.8981 17.5663 50.5872 17.8693C50.7959 17.9615 51.0125 18.0771 51.1679 18.2364C51.7486 18.8315 52.0468 19.5813 52.1661 20.3842C52.2587 21.009 51.8757 21.5588 51.2793 21.7775C51.0612 21.8572 50.8273 21.8931 50.6029 21.9618C50.099 22.1165 49.9248 22.5429 50.2105 22.9865C50.9136 24.0768 51.3719 25.278 51.8396 26.476C51.915 26.6682 51.9526 26.8994 52.0845 27.0415C52.6275 27.6288 52.6903 28.3989 52.9085 29.1065C52.9634 29.2877 52.9085 29.5204 52.852 29.7141C52.6338 30.4608 52.8614 31.0606 53.3605 31.6291C53.7827 32.1102 54.1311 32.6569 54.5188 33.1693C54.9049 33.6816 55.2768 34.208 55.6943 34.6954C56.4398 35.5623 56.2515 36.3886 55.1748 36.8369C54.6145 37.0712 54.423 37.1897 54.5188 37.8301C54.5925 38.3284 54.5432 38.6379 54.38 39.0971C54.0285 39.0971 53.7109 39.0831 53.3797 39.0971C53.0533 39.1112 52.7029 39.5118 52.7641 39.9117C53.6336 39.8212 53.671 40.0052 54.0163 40.0927C54.2941 40.6894 54.4921 41.1684 54.7197 41.7167C54.8374 41.9994 54.9049 42.3087 54.9614 42.6117C55.0508 43.0881 55.1136 43.5708 55.1952 44.0894C55.0085 44.2534 54.7668 44.4658 54.5266 44.6767C54.8923 45.2859 55.236 44.7626 55.5735 44.7329C55.8733 45.0875 55.7759 45.4936 55.7336 45.8591C55.6535 46.548 55.506 47.229 55.393 47.9132C55.3381 48.2459 55.0995 48.3943 54.817 48.4739C54.6459 48.5224 54.4544 48.4974 54.2755 48.5224C53.9663 48.5645 53.7434 48.6895 53.712 49.0519C53.6979 49.2237 53.6242 49.4096 53.5221 49.5486C53.3307 49.8095 52.976 49.8626 52.6024 49.7157C52.3654 49.622 52.1504 49.4346 51.8694 49.5642C51.0784 49.9313 50.3094 49.9032 49.6109 49.3783ZM37.4441 50.15C37.4661 50.7404 37.6858 51.1434 38.0782 51.4371C38.5271 51.7729 38.7295 52.1619 38.4172 52.6773C38.841 53.2631 39.497 53.4365 40.026 53.7785C40.2739 53.9394 40.4937 54.0503 40.5894 54.3487C40.7385 54.8126 41.0461 55.1297 41.5154 55.2765C41.7116 55.061 41.8811 54.8735 42.0443 54.6939C42.432 54.8001 42.5764 55.0344 42.5764 55.3687C42.3739 55.6014 42.1903 55.8107 42.0224 56.0029C42.0914 56.2856 42.2578 56.3949 42.4838 56.3981C42.7177 56.4012 42.9531 56.3887 43.1838 56.359C43.6688 56.2965 43.8085 56.1669 43.8791 55.6889C43.9293 55.3515 43.9701 55.0204 44.3123 54.8095C44.6183 54.9376 44.9244 55.0672 45.232 55.1969C45.232 55.7201 45.3654 56.2825 45.1975 56.7308C44.9982 57.2634 44.5383 57.6977 44.2134 58.1444C43.854 58.1772 43.6311 57.7555 43.2843 58.0038C43.2795 58.0804 43.2403 58.185 43.2748 58.2241C43.5683 58.5474 43.821 58.991 44.193 59.1441C44.8804 59.4299 45.0625 59.9923 45.2336 60.5796C45.4203 61.22 45.5475 61.3731 46.1753 61.3372C46.7419 61.3059 47.3085 61.2419 47.8703 61.1575C48.0132 61.1357 48.134 60.9795 48.3302 60.8389C47.9802 60.5155 47.6977 60.2531 47.4199 59.9969C47.3587 60.0266 47.3053 60.0391 47.2677 60.0719C47.0997 60.2141 46.9239 60.3265 46.7105 60.175C46.4751 60.0079 46.5943 59.8204 46.6854 59.6283C46.7152 59.5674 46.6901 59.4799 46.6901 59.4112C46.6524 59.3643 46.6273 59.3097 46.5849 59.2878C46.4955 59.2409 46.3981 59.1956 46.2993 59.18C46.1455 59.1566 45.9854 59.1753 45.8331 59.1472C45.4345 59.0738 45.2995 58.7708 45.5899 58.4849C46.0073 58.0725 46.0827 57.529 46.2836 57.0322C46.4138 56.7105 46.4138 56.4387 46.136 56.1887C45.7908 55.8779 45.8818 55.514 46.0136 55.0766C46.1439 55.1703 46.2522 55.2109 46.2946 55.2859C46.7026 56.0279 47.0856 56.7839 47.5031 57.5196C47.7291 57.9179 47.8845 58.3037 47.6129 58.7926C48.0948 58.8145 48.3004 59.0957 48.4777 59.4315C48.7194 59.8892 48.9831 60.3359 49.239 60.7858C49.3582 60.9951 49.5497 61.0513 49.7726 61.0107C50.0112 60.9654 50.1336 60.8061 50.132 60.5718C50.1304 60.3406 50.1399 60.0969 50.0755 59.8782C49.7914 58.9129 49.4791 57.9554 49.184 56.9932C49.0177 56.4512 48.7038 56.0232 48.2329 55.7061C48.0603 55.5905 47.886 55.478 47.7134 55.364C47.1625 55 46.847 54.5346 46.8109 53.8317C46.7717 53.0694 46.6807 52.2728 45.8567 51.8573C45.7672 51.812 45.7138 51.7011 45.6275 51.648C44.9872 51.2575 44.3468 50.8638 43.6923 50.4967C43.6044 50.4483 43.4365 50.5436 43.2121 50.592C43.5024 51.031 43.7394 51.3934 43.9795 51.7542C44.08 51.9057 44.2777 52.0603 44.2668 52.2025C44.2275 52.7445 44.6434 53.0913 44.7894 53.5349C44.6293 53.8457 44.4802 54.1363 44.3248 54.4362C43.9842 54.1972 43.6876 53.9535 43.3596 53.7676C42.6659 53.3724 42.5733 53.2162 42.6612 52.3977C42.7098 51.9432 42.4367 51.6589 41.9831 51.7167C41.8105 51.7386 41.6457 51.8088 41.4746 51.8573C41.1215 51.5105 40.7118 51.2778 40.5266 50.8107C40.4576 50.6342 40.2724 50.4546 40.0966 50.378C39.6304 50.1734 39.5849 49.8563 39.756 49.5361C39.5269 49.2643 39.3511 49.0472 39.1659 48.841C39.0466 48.7082 38.9242 48.4974 38.7813 48.4786C38.3764 48.4255 38.265 48.0834 38.0405 47.8241C37.8145 47.8023 37.5854 47.7804 37.3876 47.7617C37.1538 47.4446 36.9466 47.1634 36.7316 46.8713C36.8257 46.6276 36.9325 46.3543 37.0408 46.0747C36.8838 45.9763 36.8022 45.8857 36.7112 45.8732C36.2011 45.8091 35.7993 45.5373 35.4147 45.2296C35.1338 45.0047 34.8576 44.772 34.5829 44.5377C34.36 44.3471 34.1183 44.2971 33.8688 44.4549C33.6632 44.5845 33.5078 44.7751 33.5612 45.0375C33.5957 45.2109 33.6647 45.3858 33.7573 45.5389C33.9441 45.8482 34.1607 46.1403 34.3569 46.4433C34.539 46.7245 34.765 46.8947 35.126 46.8651C35.5073 46.8338 35.8322 46.9572 36.063 47.3227C35.9704 47.4618 35.8354 47.5805 35.8134 47.7164C35.782 47.9022 35.7789 48.1397 35.873 48.2818C35.9421 48.3849 36.1901 48.399 36.358 48.399C36.4993 48.399 36.6405 48.3209 36.865 48.2521C36.9026 48.4755 36.9952 48.6629 36.945 48.791C36.7582 49.2581 36.3408 48.8207 36.0143 48.9878C35.986 49.1097 35.884 49.2924 35.9374 49.3862C36.0316 49.5533 36.1995 49.7126 36.3753 49.7923C36.708 49.936 37.0612 50.0235 37.4441 50.15ZM43.7404 25.7122C44.1051 25.8837 44.3779 25.9875 44.5589 26.1355C44.9465 26.4526 45.0327 26.2714 44.8585 26.7713C44.7298 27.1368 44.7659 27.5413 44.9997 27.8928C45.4062 28.5035 45.2948 29.1221 45.0295 29.7453C44.7141 30.4904 44.2982 31.1668 43.7535 31.7744C43.132 32.4664 43.4035 33.5457 44.2856 33.7566C45.2901 33.9956 46.0591 34.5767 46.8251 35.1999C47.2833 35.5732 47.7605 35.9247 48.28 36.3261C48.8372 35.9809 49.3849 35.6873 49.8777 35.3202C50.1948 35.0843 50.3816 34.7454 50.1712 34.2971C49.9782 33.8847 49.6784 33.7222 49.2437 33.7379C49.0365 33.7457 48.8246 33.7644 48.6206 33.7379C48.3208 33.6988 48.0634 33.4536 48.1591 33.2333C48.3443 32.81 48.0869 32.6085 47.8547 32.3664C47.7291 32.2352 47.591 32.1134 47.4811 31.9697C47.2253 31.6338 47.2378 31.3964 47.5172 31.0793C47.7558 30.806 47.9881 30.5264 48.2439 30.2702C48.9282 29.5876 49.6973 29.1018 50.73 29.2502C50.8838 29.2721 51.0423 29.2689 51.1977 29.2658C51.7282 29.2564 52.0154 28.969 51.9919 28.4473C51.9668 27.8787 51.6952 27.5039 51.1506 27.2633C50.278 26.8775 49.6188 26.3089 49.6439 25.2233C49.6549 24.7766 49.4022 24.5954 48.9392 24.5876C48.7854 24.586 48.6268 24.5985 48.4777 24.636C47.4136 24.8953 46.3291 24.9609 45.2414 25.0109C44.9636 25.0187 44.286 25.4312 43.7404 25.7122ZM46.3197 23.3364C46.0842 23.2005 45.9524 23.0724 45.8017 23.0474C45.5742 23.0084 45.3356 23.038 45.1017 23.0443C44.7329 23.0537 44.4002 23.0224 44.1051 22.7288C43.7975 22.4226 43.3831 22.4929 43.0049 22.6225C41.9282 22.9943 40.8531 23.3661 39.7874 23.7659C39.5598 23.8519 39.3354 24.0159 39.1784 24.2033C38.7986 24.6563 38.4219 25.1218 38.1127 25.6247C37.7109 26.2777 37.2212 26.6775 36.4051 26.5745C36.0143 26.5245 35.7742 26.7541 35.6565 27.1165C35.5999 27.2883 35.5309 27.4554 35.4854 27.6304C35.3535 28.1318 35.5686 28.3911 36.0771 28.3255C36.2513 28.302 36.4286 28.2349 36.584 28.149C37.1459 27.835 37.6905 27.4914 38.2587 27.1883C38.5051 27.0571 38.786 26.954 39.0607 26.9165C39.8188 26.8119 40.5062 26.5526 41.1434 26.1355C41.4008 25.9668 41.7038 25.8669 41.9721 25.7122C42.8652 25.1968 43.843 24.8437 44.7047 24.2658C45.0452 24.0377 45.4282 23.8737 45.7892 23.6753C45.9399 23.5879 46.0764 23.4895 46.3197 23.3364ZM50.0959 55.5764C50.0708 55.8904 50.3549 56.1309 50.1775 56.4762C50.0771 56.6714 50.1869 56.9229 50.4381 56.9448C50.7677 56.9744 50.8383 57.2275 50.9858 57.4306C51.1663 57.6789 51.328 57.9663 51.5681 58.1397C51.8773 58.3615 52.2242 58.4958 52.4517 58.852C52.6448 59.1535 53.0309 59.0363 53.1831 58.6942C53.3275 58.3678 53.2224 58.0835 53.0529 57.8148C52.615 57.1166 52.1786 56.4152 51.7172 55.7326C51.4002 55.264 51.0863 54.7782 50.6908 54.3799C50.11 53.7942 49.5325 53.2115 49.0145 52.568C48.732 52.2181 48.3349 52.001 47.8688 51.9932C47.5737 51.9885 47.1845 51.8713 47.0495 52.254C46.9365 52.5727 47.1688 52.8367 47.3791 53.0725C47.6522 53.3802 47.8955 53.7208 48.1937 54.0004C48.7697 54.5408 49.1997 55.2578 50.0959 55.5764ZM52.4172 30.9309C51.4253 31.2933 50.9325 32.0931 51.102 32.9725C51.2668 33.8331 51.3076 34.661 50.7928 35.4327C50.7237 35.5357 50.7174 35.6779 50.6782 35.8013C50.5966 36.0559 50.7002 36.1902 51.0062 36.2527C51.1208 36.1074 51.357 35.9669 51.47 35.8013C51.6286 35.5685 51.6858 35.3233 51.8177 35.075C52.0358 34.6673 52.7641 34.7954 52.7641 34.7954C52.7641 34.7954 51.6519 35.3604 53.0042 35.9809C53.2239 35.7216 53.4342 35.4733 53.6336 35.2374C54.1546 35.0484 54.9127 35.4561 55.1325 34.6485C54.2127 33.3911 53.3181 32.1649 52.4172 30.9309ZM51.0674 40.2874C50.3094 40.4108 50.4789 41.0403 50.3816 41.4995C50.2183 41.5683 50.0833 41.6245 49.8809 41.7104C49.8479 41.3543 50.2199 40.8966 49.556 40.7857C49.4038 41.0216 49.2421 41.273 49.0443 41.5808C48.7916 41.3699 48.5625 41.1778 48.3334 40.9856C48.0901 41.109 48.0038 41.3402 48.1842 41.4917C48.5641 41.8088 49.9241 42.8982 50.5462 42.3552C50.9244 42.6267 49.6766 43.916 49.4694 44.0441C49.2073 43.8535 47.6569 42.7773 47.4591 42.632C47.106 43.0397 47.6475 43.1974 47.6177 43.4817C47.5345 43.7285 47.1295 43.8754 47.4387 44.2534C48.1168 43.9925 48.7995 43.7301 49.5764 43.4317C49.7977 43.602 50.1163 43.7863 50.3549 44.0441C50.595 44.3049 50.8477 44.3658 51.1789 44.2299C51.3186 44.8282 51.7768 44.9563 52.2697 45.1547C52.3497 44.9719 52.4486 44.8235 52.4768 44.6611C52.5569 44.2112 51.984 44.2534 51.9008 43.9644C51.8067 43.3583 52.334 43.2381 52.6134 42.9803C52.6573 42.4883 52.6887 42.0462 52.0955 41.876C51.5289 42.3461 51.1789 43.4154 51.1789 44.2299C50.8335 44.8893 49.1696 43.8785 49.5604 43.5318C49.9182 43.2147 51.1082 41.6589 51.2903 41.2668C51.4645 40.8903 51.3515 40.5733 51.0674 40.2874ZM40.704 37.0712C40.139 37.1712 39.5739 37.3508 39.1062 36.9822C38.7515 36.7026 38.4753 36.6932 38.1896 36.9947C37.7392 36.7354 37.7392 36.7354 37.6466 36.3121C37.5508 35.8763 37.2369 35.7326 36.8508 35.9403C36.6029 36.0731 36.4647 36.2683 36.4412 36.537C36.8195 37.0696 37.1647 37.6085 37.565 38.1053C37.9212 38.5489 38.2446 38.5364 38.6605 38.124C38.7499 38.035 38.7882 37.909 38.9208 37.8301C39.1565 37.6898 39.5055 37.7702 39.5573 38.0111C39.6177 38.2914 39.3337 38.5053 39.4664 38.7351C39.5991 38.9649 39.9836 39.1815 40.2692 38.9847C40.613 38.7473 40.7024 38.3536 40.839 37.9928C40.9504 37.6913 40.9834 37.3945 40.704 37.0712ZM33.0934 47.1119C33.343 47.5133 33.5266 47.8538 33.7558 48.1615C33.9065 48.363 34.0979 48.5692 34.3192 48.6739C34.5437 48.7801 34.8497 48.8082 35.0302 48.552C35.1746 48.3459 35.115 48.1272 35.0004 47.896C34.6551 47.204 33.9661 47.1072 33.3383 46.9104C33.2865 46.8947 33.1876 47.0306 33.0934 47.1119ZM44.3437 40.5811C44.397 40.7154 44.4143 40.8841 44.5085 40.97C44.736 41.1778 44.9872 41.3636 45.2477 41.5292C45.7751 41.8666 46.2412 41.726 46.5127 41.1512C46.5614 41.0497 46.5755 40.8638 46.5159 40.7935C46.4295 40.692 46.2475 40.592 46.1298 40.6154C45.9116 40.6576 45.7091 40.7888 45.5208 40.8732C45.1284 40.7607 44.8742 40.253 44.3437 40.5811ZM43.628 41.915C43.1838 41.9041 42.9484 42.3102 43.1257 42.6804C43.2638 42.9694 43.8964 43.3162 44.2197 43.2802C44.5964 43.2381 44.7925 42.8725 44.5885 42.5461C44.3578 42.1774 43.9591 42.0462 43.628 41.915ZM39.1549 34.2549C38.8237 34.4392 38.5522 34.5907 38.243 34.7625C38.615 35.1577 39.0011 35.039 39.4138 35.0078C39.519 34.8078 39.6775 34.6142 39.7168 34.3986C39.7654 34.1346 39.745 33.8456 39.6979 33.5785C39.6556 33.3349 39.4437 33.2521 39.2161 33.3255C38.9885 33.4005 38.9038 33.577 38.9885 33.8128C39.034 33.9331 39.0795 34.0518 39.1549 34.2549ZM36.8744 35.0421C37.1663 34.6017 37.2966 34.2252 36.9497 33.8097C36.38 34.3096 36.358 34.5392 36.8744 35.0421Z" fill="black"/>
<path d="M40.4764 52.3291C39.6398 52.7321 39.4013 52.7024 39.0309 52.2182C38.7939 51.9074 38.8912 51.3419 39.2302 51.1404C39.3102 51.0936 39.4531 51.0545 39.5174 51.0951C39.7983 51.2669 40.0997 51.4341 40.3147 51.6746C40.4434 51.8183 40.4246 52.0932 40.4764 52.3291Z" fill="black"/>
<path d="M41.6057 53.7004C41.4283 53.7004 41.2713 53.7269 41.127 53.6957C40.8005 53.6223 40.6969 53.4348 40.8193 53.124C40.9041 52.9084 41.0077 52.6913 41.1489 52.5117C41.229 52.4101 41.4205 52.3149 41.5319 52.3414C41.648 52.368 41.7657 52.532 41.8175 52.6601C41.9148 52.9053 41.8568 53.1162 41.6057 53.7004Z" fill="black"/>
<path d="M38.0522 49.3516C38.2499 49.5843 38.4084 49.7702 38.5952 49.9904C38.2923 50.1716 38.0616 50.4137 37.7477 50.1419C37.5515 49.9717 37.6174 49.7983 38.0522 49.3516Z" fill="black"/>
</g>
<defs>
<filter id="filter0_d" x="-231" y="-53" width="675" height="760" filterUnits="userSpaceOnUse" color-interpolation-filters="sRGB">
<feFlood flood-opacity="0" result="BackgroundImageFix"/>
<feColorMatrix in="SourceAlpha" type="matrix" values="0 0 0 0 0 0 0 0 0 0 0 0 0 0 0 0 0 0 127 0"/>
<feOffset/>
<feGaussianBlur stdDeviation="12.5"/>
<feColorMatrix type="matrix" values="0 0 0 0 0 0 0 0 0 0 0 0 0 0 0 0 0 0 0.25 0"/>
<feBlend mode="normal" in2="BackgroundImageFix" result="effect1_dropShadow"/>
<feBlend mode="normal" in="SourceGraphic" in2="effect1_dropShadow" result="shape"/>
</filter>
<clipPath id="clip0">
<rect width="32.6881" height="48.2554" fill="white" transform="translate(23.4609 16.4717)"/>
</clipPath>
</defs>
</svg>
