<svg width="56" height="56" viewBox="0 0 56 56" fill="none" xmlns="http://www.w3.org/2000/svg">
<path fill-rule="evenodd" clip-rule="evenodd" d="M28.0002 10.124C30.1561 10.0991 33.5412 10.5734 37.1598 11.7842C40.7936 13.0001 44.7482 14.9869 47.9618 18.048L48.8207 18.8662L41.2725 27.1692L33.3709 22.2778L33.9523 17.9174C32.5141 17.4121 30.5053 16.8022 28.0002 16.8022C25.4951 16.8022 23.4863 17.4121 22.0481 17.9174L22.6295 22.2778L14.7279 27.1692L7.17969 18.8662L8.03864 18.048C11.2522 14.9869 15.2068 13.0001 18.8406 11.7842C22.4592 10.5734 25.8443 10.0991 28.0002 10.124ZM10.5952 19.0132L15.1666 24.0416L20.0146 21.0405L19.3816 16.2927L20.3065 15.9623C20.4091 15.9257 20.5189 15.8858 20.6356 15.8434C22.1053 15.3099 24.6838 14.3738 28.0002 14.3738C31.3166 14.3738 33.8951 15.3099 35.3648 15.8434C35.4815 15.8858 35.5913 15.9257 35.6939 15.9623L36.6188 16.2927L35.9858 21.0405L40.8338 24.0416L45.4051 19.0132C42.6865 16.7013 39.455 15.1129 36.3892 14.0871C32.978 12.9458 29.8573 12.5291 28.0156 12.5524L28.0002 12.5526L27.9848 12.5524C26.1431 12.5291 23.0224 12.9458 19.6112 14.0871C16.5454 15.1129 13.3139 16.7013 10.5952 19.0132Z" fill="black"/>
<path fill-rule="evenodd" clip-rule="evenodd" d="M26.7852 37.7484V24.999H29.2136V37.7484H26.7852Z" fill="#006EFF"/>
<path fill-rule="evenodd" clip-rule="evenodd" d="M32.25 34.5612V28.1865H34.6785V34.5612H32.25Z" fill="#006EFF"/>
<path fill-rule="evenodd" clip-rule="evenodd" d="M21.3223 34.5612V28.1865H23.7507V34.5612H21.3223Z" fill="#006EFF"/>
<path fill-rule="evenodd" clip-rule="evenodd" d="M14.0353 35.7751C13.3647 35.7751 12.821 36.3188 12.821 36.9894C12.821 37.66 13.3647 38.2036 14.0353 38.2036C14.7059 38.2036 15.2495 37.66 15.2495 36.9894C15.2495 36.3188 14.7059 35.7751 14.0353 35.7751ZM10.3926 36.9894C10.3926 34.9776 12.0235 33.3467 14.0353 33.3467C16.0471 33.3467 17.6779 34.9776 17.6779 36.9894C17.6779 39.0012 16.0471 40.632 14.0353 40.632C12.0235 40.632 10.3926 39.0012 10.3926 36.9894Z" fill="black"/>
<path fill-rule="evenodd" clip-rule="evenodd" d="M41.963 35.7751C41.2924 35.7751 40.7488 36.3188 40.7488 36.9894C40.7488 37.66 41.2924 38.2036 41.963 38.2036C42.6336 38.2036 43.1772 37.66 43.1772 36.9894C43.1772 36.3188 42.6336 35.7751 41.963 35.7751ZM38.3203 36.9894C38.3203 34.9776 39.9512 33.3467 41.963 33.3467C43.9748 33.3467 45.6057 34.9776 45.6057 36.9894C45.6057 39.0012 43.9748 40.632 41.963 40.632C39.9512 40.632 38.3203 39.0012 38.3203 36.9894Z" fill="black"/>
<path fill-rule="evenodd" clip-rule="evenodd" d="M10.4015 45.5868H17.6208C17.5924 45.5353 17.5619 45.4837 17.529 45.4322C17.1265 44.8014 16.2405 43.9714 14.0372 43.9714C11.743 43.9714 10.8727 44.812 10.4972 45.4184C10.4625 45.4745 10.4306 45.5307 10.4015 45.5868ZM19.1977 46.801C20.4119 46.801 20.4119 46.8003 20.4119 46.7995L20.4119 46.7978L20.4119 46.7942L20.4119 46.7858C20.4118 46.7797 20.4117 46.7726 20.4115 46.7645C20.4112 46.7482 20.4106 46.728 20.4096 46.704C20.4075 46.6562 20.4038 46.5931 20.3969 46.5171C20.383 46.3654 20.3564 46.1593 20.3047 45.9166C20.2023 45.4348 19.9962 44.7841 19.5763 44.126C18.6887 42.7349 16.9945 41.543 14.0372 41.543C11.0191 41.543 9.30914 42.7243 8.43256 44.1398C8.01952 44.8068 7.82959 45.4658 7.74132 45.9525C7.69683 46.1978 7.67694 46.4059 7.66832 46.5591C7.664 46.6359 7.66247 46.6996 7.66217 46.7481C7.66202 46.7723 7.66217 46.7928 7.66244 46.8093C7.66258 46.8176 7.66274 46.8248 7.66291 46.8311L7.66317 46.8396L7.66329 46.8433L7.66335 46.845C7.66338 46.8458 7.66341 46.8466 8.87678 46.801L7.66341 46.8466L7.70732 48.0153H8.87678H19.1976L19.1977 46.801ZM19.1977 46.801L19.1976 48.0153H20.4119V46.801H19.1977Z" fill="black"/>
<path fill-rule="evenodd" clip-rule="evenodd" d="M38.3292 45.5868H45.5485C45.5201 45.5353 45.4896 45.4837 45.4568 45.4322C45.0543 44.8014 44.1682 43.9714 41.965 43.9714C39.6707 43.9714 38.8005 44.812 38.4249 45.4184C38.3902 45.4745 38.3584 45.5307 38.3292 45.5868ZM47.1254 46.801C48.3397 46.801 48.3397 46.8003 48.3397 46.7995L48.3397 46.7978L48.3397 46.7942L48.3396 46.7858C48.3395 46.7797 48.3394 46.7726 48.3393 46.7645C48.3389 46.7482 48.3383 46.728 48.3373 46.704C48.3353 46.6562 48.3315 46.5931 48.3246 46.5171C48.3108 46.3654 48.2841 46.1593 48.2325 45.9166C48.13 45.4348 47.9239 44.7841 47.504 44.126C46.6164 42.7349 44.9222 41.543 41.965 41.543C38.9469 41.543 37.2369 42.7243 36.3603 44.1398C35.9472 44.8068 35.7573 45.4658 35.669 45.9525C35.6246 46.1978 35.6047 46.4059 35.5961 46.5591C35.5917 46.6359 35.5902 46.6996 35.5899 46.7481C35.5898 46.7723 35.5899 46.7928 35.5902 46.8093C35.5903 46.8176 35.5905 46.8248 35.5906 46.8311L35.5909 46.8396L35.591 46.8433L35.5911 46.845C35.5911 46.8458 35.5911 46.8466 36.8045 46.801L35.5911 46.8466L35.6351 48.0153H36.8045H47.1253L47.1254 46.801ZM47.1254 46.801L47.1253 48.0153H48.3397V46.801H47.1254Z" fill="black"/>
</svg>
