<svg viewBox="0 0 97 44" xmlns="http://www.w3.org/2000/svg"><g fill="#000"><path d="m45.9594 19.5138v7.9482c-.9758 0-1.8668 0-2.871 0 0-.2545 0-.495 0-.7495 0-5.0207 0-10.0415 0-15.048 0-1.1598-.0424-1.2022-1.1173-1.6265 0-.6364-.0282-1.30111.0142-1.95168.0141-.18386.2404-.43843.4384-.495 1.485-.49501 2.673.11314 3.2812 1.683.99-1.03243 2.2063-1.56986 3.5781-1.76786 2.5457-.35357 5.7137.93343 5.5864 4.73784-.0424 1.3012-.0707 2.5882 0 3.8893.1839 3.4933-2.6871 5.2187-5.544 4.95-1.2587-.1131-2.3477-.594-3.366-1.5698zm6.0249-5.1905c0-.5374 0-1.0748 0-1.6264-.0141-1.4992-.7779-2.4609-2.2629-2.5174-.8485-.0283-1.7678.198-2.574.5091-.8202.3111-1.2162 1.0607-1.2021 1.98.0141 1.0324.0424 2.0649-.0141 3.0973-.0566 1.2163.5091 2.0366 1.5981 2.376.7779.2404 1.6689.3536 2.475.2546 1.3153-.1415 1.98-1.0466 1.98-2.4043 0-.5374 0-1.1032 0-1.6689z"/><path d="m96.6899 7.93077c.0142.198.0424.38186.0424.56571.0142 5.72782.0283 11.44162.0566 17.16942 0 .8486-.1697 1.6123-.9758 2.0508-.9335.495-1.9093.4101-2.871.0707-.1132-.0425-.2122-.297-.2122-.4526-.0283-.6364-.0141-1.2729-.0141-1.9517.198-.0707.4384-.0849.5798-.198.2546-.2405.6082-.5375.6223-.8203.0566-1.5557.0283-3.0973.0283-4.7944-.2687.1697-.4101.2687-.5516.3677-1.3294.9051-2.8003 1.386-4.3984 1.1597-2.4184-.3394-3.8327-1.98-3.8751-4.455-.0283-1.8386 0-3.6772 0-5.5157 0-.2546 0-.5092 0-.8203-.4243-.0283-.792-.0425-1.2305-.0707 0-.76376 0-1.51333 0-2.31947h4.059c.0142.24042.0283.495.0283.74957 0 2.4467-.0141 4.8934-.0141 7.3543 0 1.485.6647 2.2487 2.1355 2.5033 1.0042.1697 1.9235-.0424 2.772-.5657.6789-.4243 1.0608-1.0183 1.0466-1.8669-.0283-1.9093-.0141-3.8044-.0141-5.7561-.4243-.0283-.792-.0566-1.2163-.0849 0-.74957 0-1.49914 0-2.30529 1.2587-.01414 2.5881-.01414 4.0024-.01414z"/><path d="m4.1531 20.8573c-1.04658 0-1.95172 0-2.92758 0 0-.2828 0-.5374 0-.792 0-4.9924 0-9.9848 0-14.97727 0-1.25871-.01414-1.27285-1.21628387-1.65471 0-.63643-.02828573-1.287.01414297-1.93758.0141428-.18385.2545719-.48085.4242859-.509139.650575-.099 1.315285-.198 1.951715-.113143 1.15972.155572 1.69715.919282 1.69715 2.220432.01414 2.75786 0 5.51572 0 8.27361v.9193c1.07485.0282 2.06485.3111 2.871-.792.86271-1.1739 1.89514-2.22048 2.88514-3.28119.24043-.25457.65053-.42429 1.00413-.46672.6789-.07071 1.3577-.01414 2.1073-.01414v2.43255c-1.287-.41012-1.7961.594-2.4467 1.3295-.73544.8202-1.44259 1.6688-2.22044 2.5457 1.11728 1.4567 2.19214 2.9134 3.36604 4.2853.2262.2687.8061.2262 1.3011.3535v2.2346c-.8203 0-1.6689.0283-2.5033-.0141-.1838-.0142-.3677-.2546-.50913-.4243-1.07486-1.3719-2.178-2.7296-3.21043-4.1297-.396-.5375-.80614-.7779-1.47086-.693-.33943.0424-.70714.0141-1.13143.0141.01415 1.7113.01415 3.4226.01415 5.1904z"/><path d="m55.7044 3.41917c0-.48085.0566-.97585-.0142-1.47086-.099-.76371.2263-1.088996.9335-1.117282.4525-.014143.9051-.070714 1.3435-.014143 1.2022.141429 1.8245.905145 1.8245 2.192145.0141 2.80029 0 5.60058 0 8.41497v.8486c1.1031.0283 2.1073.3112 2.9134-.8203.8344-1.1597 1.8952-2.16383 2.8144-3.25284.297-.35357.6223-.50914 1.089-.48085.6506.02828 1.3153.01414 2.0366.01414v2.41845c-1.2728-.38188-1.782.6081-2.4326 1.3436-.7354.8344-1.4567 1.6688-2.2062 2.5457 1.1172 1.4425 2.1921 2.8993 3.3518 4.2853.2263.2687.8062.2404 1.287.3535v2.2346c-.8061 0-1.6123.0283-2.4326-.0141-.198-.0142-.4242-.2546-.5657-.4385-1.0465-1.3294-2.1214-2.6447-3.1114-4.0165-.4384-.594-.9051-.9052-1.6406-.792-.3253.0424-.6506.0141-1.0607.0141v5.2187c-.99 0-1.8951 0-2.8851 0 0-.2404 0-.495 0-.7496 0-5.0207 0-10.0414 0-15.04797 0-1.27286-.0283-1.30114-1.2446-1.66886z"/><path d="m31.3643 15.3134c-.0424 1.8668 1.6264 3.267 3.6489 3.2104 1.0324-.0283 1.9941-.297 2.871-.8486.2828-.1697.5657-.3253.8768-.5091.4526.7071.8769 1.3718 1.3577 2.1073-2.5457 1.485-5.1338 2.4325-8.0472 1.5557-1.9093-.5799-2.9135-2.079-3.3943-3.9317-.4526-1.7679-.4102-3.5499.1414-5.3036.891-2.85687 3.4226-4.3843 6.7037-4.07316 2.7437.25457 4.356 1.66886 4.8652 4.38426.1697.891.1272 1.8245.198 2.7437.0282.5233-.198.6789-.7072.6789-2.5457-.0283-5.0914-.0141-7.6371-.0141-.2687 0-.5516 0-.8769 0zm6.435-2.0932c.2122-1.7113-.6081-2.8144-2.2346-3.0548-2.1497-.31119-4.1297 1.089-4.2428 3.0548z"/><path d="m17.3914 15.3133c.2122 3.267 3.3943 4.0449 7.4392 1.8669.4243.6647.8485 1.3294 1.3436 2.0932-.4809.2687-.9052.5374-1.3578.7495-1.5981.7779-3.267 1.2163-5.049 1.1173-2.3618-.1414-4.0024-1.3153-4.7944-3.5499-.7496-2.1638-.7354-4.356.099-6.5057 1.0041-2.57398 3.4509-3.87512 6.5623-3.56398 2.6871.25458 4.3701 1.75372 4.851 4.42668.1556.891.1131 1.8245.1697 2.7438.0283.495-.198.6222-.6788.6222-2.5882-.0141-5.1905-.0141-7.7786-.0141-.2405.0141-.495.0141-.8062.0141zm6.4633-2.0931c.1697-1.9376-.8061-3.0407-2.673-3.0831-2.0507-.0425-3.7196 1.3011-3.7761 3.0831z"/><path d="m73.5807 15.5821c.1697 3.2528 3.3943 4.0307 7.4533 1.881.4243.6505.8486 1.3153 1.2446 1.9517-.0283.099-.0425.1556-.0708.1838-1.9658 1.287-4.1155 1.98-6.4774 1.8103-2.4326-.1838-4.1014-1.6688-4.7661-4.1438-.4526-1.7255-.4385-3.4509.0565-5.1622.8062-2.7437 2.8145-4.24285 5.7562-4.31356 3.8327-.099 5.8693 1.89515 6.0673 5.92586.0848 1.881.0848 1.881-1.7537 1.881-2.2346 0-4.4692 0-6.7179 0-.2404-.0141-.4809-.0141-.792-.0141zm-.0424-2.1073h6.5623c.099-1.386-.4102-2.3619-1.4002-2.8003-2.2204-.96173-4.6954.3677-5.1621 2.8003z"/><path d="m11.0186 40.3632h-3.348l-.7068 1.6368h-.9765l2.94811-6.6216h.8091l2.95739 6.6216h-.9765zm-.3255-.7626-1.3485-3.1527-1.3485 3.1527z"/><path d="m17.5492 37.3128v4.6872h-.9114v-.7812c-.1488.2728-.3534.4836-.6138.6324-.2604.1426-.5549.2139-.8835.2139-1.1284 0-1.6926-.6262-1.6926-1.8786v-2.8737h.93v2.8644c0 .3844.0775.6696.2325.8556.1612.1798.403.2697.7254.2697.3844 0 .6913-.124.9207-.372.2356-.248.3534-.5766.3534-.9858v-2.6319z"/><path d="m20.1433 38.0382v2.3529c0 .3224.0682.5518.2046.6882.1426.1302.3379.1953.5859.1953.1612 0 .3255-.0248.4929-.0744v.7626c-.2046.0682-.4371.1023-.6975.1023-.4836 0-.8587-.1364-1.1253-.4092s-.3999-.6696-.3999-1.1904v-2.4273h-.9114v-.7254h.9114v-1.1718l.9393-.3255v1.4973h1.2927v.7254z"/><path d="m24.7959 37.2012c1.1222 0 1.6833.6262 1.6833 1.8786v2.9202h-.9393v-2.8644c0-.4092-.0806-.7068-.2418-.8928-.155-.186-.4061-.279-.7533-.279-.3968 0-.7161.124-.9579.372-.2356.248-.3534.5797-.3534.9951v2.6691h-.93v-6.8448h.93v2.883c.155-.2728.3689-.4805.6417-.6231s.5797-.2139.9207-.2139z"/><path d="m29.8344 42.0651c-.4588 0-.8618-.0992-1.209-.2976s-.6169-.4805-.8091-.8463c-.186-.3658-.279-.7936-.279-1.2834s.093-.9176.279-1.2834c.1922-.372.4619-.6572.8091-.8556s.7502-.2976 1.209-.2976c.4526 0 .8525.0992 1.1997.2976s.6138.4836.7998.8556c.1922.3658.2883.7936.2883 1.2834s-.0961.9176-.2883 1.2834c-.186.3658-.4526.6479-.7998.8463s-.7471.2976-1.1997.2976zm-.0093-.744c.434 0 .7657-.1426.9951-.4278s.3441-.7037.3441-1.2555c0-.5394-.1178-.9548-.3534-1.2462-.2294-.2914-.5549-.4371-.9765-.4371-.4278 0-.7595.1457-.9951.4371s-.3534.7068-.3534 1.2462c0 .5518.1147.9703.3441 1.2555.2356.2852.5673.4278.9951.4278z"/><path d="m35.5544 37.2012c.1426 0 .2914.0217.4464.0651l-.0186.8556c-.1674-.062-.3503-.093-.5487-.093-.4278 0-.7502.1302-.9672.3906-.2108.2542-.3162.5766-.3162.9672v2.6133h-.93v-3.3666c0-.4898-.0248-.93-.0744-1.3206h.8742l.0837.8463c.124-.31.3162-.5456.5766-.7068.2604-.1674.5518-.2511.8742-.2511z"/><path d="m36.7167 37.3128h.93v4.6872h-.93zm1.0044-2.046v.9858h-1.0881v-.9858z"/><path d="m42.8086 41.2746v.7254h-4.0083v-.651l2.7714-3.3108h-2.697v-.7254h3.8316v.6603l-2.7714 3.3015z"/><path d="m47.7724 39.675h-3.348c.031 1.0974.5301 1.6461 1.4973 1.6461.5394 0 1.0323-.1767 1.4787-.5301l.2883.6696c-.2108.186-.4805.3348-.8091.4464-.3224.1054-.6479.1581-.9765.1581-.7502 0-1.3392-.2139-1.767-.6417-.4278-.434-.6417-1.0261-.6417-1.7763 0-.4774.093-.9021.279-1.2741.1922-.372.4588-.6603.7998-.8649s.7285-.3069 1.1625-.3069c.6324 0 1.1284.2046 1.488.6138.3658.4092.5487.9765.5487 1.7019zm-2.0181-1.7763c-.3534 0-.6417.1054-.8649.3162s-.3658.5115-.4278.9021h2.4831c-.0372-.3968-.1581-.6975-.3627-.9021-.2046-.2108-.4805-.3162-.8277-.3162z"/><path d="m53.1376 35.1552v6.8448h-.93v-.7998c-.1364.279-.341.4929-.6138.6417-.2666.1488-.5797.2232-.9393.2232-.403 0-.7626-.1023-1.0788-.3069s-.5642-.4898-.744-.8556c-.1736-.372-.2604-.7998-.2604-1.2834s.0868-.9083.2604-1.2741.4154-.6479.7254-.8463c.3162-.1984.682-.2976 1.0974-.2976.3534 0 .6634.0744.93.2232.2728.1488.4774.3596.6138.6324v-2.9016zm-2.2692 6.1659c.4278 0 .7564-.1457.9858-.4371.2356-.2976.3534-.713.3534-1.2462s-.1178-.9455-.3534-1.2369c-.2294-.2976-.5549-.4464-.9765-.4464-.4278 0-.7626.1457-1.0044.4371-.2356.2914-.3534.7006-.3534 1.2276 0 .5332.1178.9517.3534 1.2555.2418.2976.5735.4464.9951.4464z"/><path d="m62.3909 42h-1.0137l-.8277-2.2041c-.0868-.2356-.2139-.3968-.3813-.4836-.1674-.093-.3968-.1395-.6882-.1395h-1.4508v2.8272h-.9486v-6.6216h2.7249c.7254 0 1.2803.1612 1.6647.4836.3906.3224.5859.7843.5859 1.3857 0 .434-.1147.8029-.3441 1.1067s-.5549.5177-.9765.6417c.3844.0682.6634.341.837.8184zm-2.697-3.5991c.4836 0 .8432-.093 1.0788-.279.2356-.1922.3534-.4774.3534-.8556s-.1178-.6572-.3534-.837c-.2294-.186-.589-.279-1.0788-.279h-1.6647v2.2506z"/><path d="m67.4804 39.675h-3.348c.031 1.0974.5301 1.6461 1.4973 1.6461.5394 0 1.0323-.1767 1.4787-.5301l.2883.6696c-.2108.186-.4805.3348-.8091.4464-.3224.1054-.6479.1581-.9765.1581-.7502 0-1.3392-.2139-1.767-.6417-.4278-.434-.6417-1.0261-.6417-1.7763 0-.4774.093-.9021.279-1.2741.1922-.372.4588-.6603.7998-.8649s.7285-.3069 1.1625-.3069c.6324 0 1.1284.2046 1.488.6138.3658.4092.5487.9765.5487 1.7019zm-2.0181-1.7763c-.3534 0-.6417.1054-.8649.3162s-.3658.5115-.4278.9021h2.4831c-.0372-.3968-.1581-.6975-.3627-.9021-.2046-.2108-.4805-.3162-.8277-.3162z"/><path d="m69.7312 38.0382v2.3529c0 .3224.0682.5518.2046.6882.1426.1302.3379.1953.5859.1953.1612 0 .3255-.0248.4929-.0744v.7626c-.2046.0682-.4371.1023-.6975.1023-.4836 0-.8587-.1364-1.1253-.4092s-.3999-.6696-.3999-1.1904v-2.4273h-.9114v-.7254h.9114v-1.1718l.9393-.3255v1.4973h1.2927v.7254z"/><path d="m76.1787 37.3128v4.6872h-.93v-.7998c-.1364.279-.341.4929-.6138.6417-.2666.1488-.5797.2232-.9393.2232-.4154 0-.7812-.0992-1.0974-.2976-.31-.1984-.5518-.4774-.7254-.837-.1736-.3658-.2604-.7905-.2604-1.2741s.0868-.9114.2604-1.2834c.1798-.372.4278-.6603.744-.8649s.6758-.3069 1.0788-.3069c.3596 0 .6727.0775.9393.2325.2666.1488.4712.3627.6138.6417v-.7626zm-2.2599 4.0083c.4216 0 .7471-.1457.9765-.4371.2356-.2976.3534-.713.3534-1.2462 0-.5394-.1178-.9548-.3534-1.2462-.2294-.2914-.558-.4371-.9858-.4371-.4216 0-.7533.1519-.9951.4557-.2356.2976-.3534.713-.3534 1.2462 0 .527.1178.9362.3534 1.2276.2418.2914.5766.4371 1.0044.4371z"/><path d="m77.5586 37.3128h.93v4.6872h-.93zm1.0044-2.046v.9858h-1.0881v-.9858z"/><path d="m79.8654 35.1552h.93v6.8448h-.93z"/><path d="m86.1712 39.675h-3.348c.031 1.0974.5301 1.6461 1.4973 1.6461.5394 0 1.0323-.1767 1.4787-.5301l.2883.6696c-.2108.186-.4805.3348-.809.4464-.3225.1054-.648.1581-.9766.1581-.7501 0-1.3391-.2139-1.7669-.6417-.4279-.434-.6418-1.0261-.6418-1.7763 0-.4774.0931-.9021.279-1.2741.1922-.372.4588-.6603.7998-.8649s.7285-.3069 1.1625-.3069c.6324 0 1.1285.2046 1.4881.6138.3657.4092.5486.9765.5486 1.7019zm-2.0181-1.7763c-.3534 0-.6417.1054-.8649.3162s-.3658.5115-.4277.9021h2.483c-.0372-.3968-.1581-.6975-.3626-.9021-.2046-.2108-.4806-.3162-.8278-.3162z"/><path d="m89.5834 37.2012c.1426 0 .2914.0217.4464.0651l-.0186.8556c-.1674-.062-.3503-.093-.5487-.093-.4278 0-.7502.1302-.9672.3906-.2108.2542-.3162.5766-.3162.9672v2.6133h-.93v-3.3666c0-.4898-.0248-.93-.0744-1.3206h.8742l.0837.8463c.124-.31.3162-.5456.5766-.7068.2604-.1674.5518-.2511.8742-.2511z"/></g></svg>