<svg width="98" height="43" viewBox="0 0 98 43" fill="none" xmlns="http://www.w3.org/2000/svg">
<path d="M46.2065 19.5138C46.2065 22.2575 46.2065 24.8456 46.2065 27.462C45.2306 27.462 44.3396 27.462 43.3355 27.462C43.3355 27.2075 43.3355 26.967 43.3355 26.7125C43.3355 21.6918 43.3355 16.671 43.3355 11.6645C43.3355 10.5047 43.2931 10.4623 42.2182 10.038C42.2182 9.4016 42.1899 8.73689 42.2324 8.08632C42.2465 7.90246 42.4728 7.64789 42.6708 7.59132C44.1558 7.09631 45.3438 7.70446 45.9519 9.27432C46.9419 8.24189 48.1582 7.70446 49.5301 7.50646C52.0758 7.15289 55.2438 8.43989 55.1165 12.2443C55.0741 13.5455 55.0458 14.8325 55.1165 16.1336C55.3004 19.6269 52.4294 21.3523 49.5725 21.0836C48.3138 20.9705 47.2248 20.4896 46.2065 19.5138ZM52.2314 14.3233C52.2314 13.7859 52.2314 13.2485 52.2314 12.6969C52.2172 11.1977 51.4535 10.236 49.9685 10.1795C49.1199 10.1512 48.2007 10.3775 47.3945 10.6886C46.5742 10.9997 46.1782 11.7493 46.1924 12.6686C46.2065 13.701 46.2348 14.7335 46.1782 15.7659C46.1217 16.9822 46.6874 17.8025 47.7764 18.1419C48.5542 18.3823 49.4452 18.4955 50.2514 18.3965C51.5667 18.255 52.2314 17.3499 52.2314 15.9922C52.2314 15.4548 52.2314 14.889 52.2314 14.3233Z" fill="black"/>
<path d="M96.937 7.93077C96.9511 8.12877 96.9794 8.31263 96.9794 8.49648C96.9936 14.2243 97.0077 19.9381 97.036 25.6659C97.036 26.5145 96.8663 27.2782 96.0601 27.7167C95.1267 28.2117 94.1508 28.1268 93.1891 27.7874C93.076 27.7449 92.977 27.4904 92.977 27.3348C92.9487 26.6984 92.9628 26.0619 92.9628 25.3831C93.1608 25.3124 93.4013 25.2982 93.5427 25.1851C93.7973 24.9446 94.1508 24.6476 94.165 24.3648C94.2216 22.8091 94.1933 21.2675 94.1933 19.5704C93.9246 19.7401 93.7831 19.8391 93.6417 19.9381C92.3123 20.8432 90.8414 21.3241 89.2433 21.0978C86.8248 20.7584 85.4106 19.1178 85.3681 16.6428C85.3398 14.8042 85.3681 12.9656 85.3681 11.1271C85.3681 10.8725 85.3681 10.6179 85.3681 10.3068C84.9438 10.2785 84.5761 10.2643 84.1377 10.2361C84.1377 9.47234 84.1377 8.72277 84.1377 7.91663C85.4671 7.91663 86.7966 7.91663 88.1967 7.91663C88.2108 8.15705 88.225 8.41163 88.225 8.6662C88.225 11.1129 88.2108 13.5596 88.2108 16.0205C88.2108 17.5055 88.8756 18.2692 90.3464 18.5238C91.3506 18.6935 92.2698 18.4814 93.1184 17.9581C93.7973 17.5338 94.1791 16.9398 94.165 16.0912C94.1367 14.1819 94.1508 12.2868 94.1508 10.3351C93.7266 10.3068 93.3588 10.2785 92.9346 10.2502C92.9346 9.50063 92.9346 8.75106 92.9346 7.94491C94.1933 7.93077 95.5227 7.93077 96.937 7.93077Z" fill="black"/>
<path d="M4.40017 20.8573C3.35359 20.8573 2.44845 20.8573 1.47259 20.8573C1.47259 20.5745 1.47259 20.3199 1.47259 20.0653C1.47259 15.0729 1.47259 10.0805 1.47259 5.08803C1.47259 3.82932 1.45845 3.81518 0.256306 3.43332C0.256306 2.79689 0.228021 2.14632 0.270449 1.49574C0.284592 1.31189 0.525021 1.01489 0.694735 0.986601C1.34531 0.887601 2.01002 0.788601 2.64645 0.873458C3.80617 1.02903 4.3436 1.79274 4.3436 3.09389C4.35774 5.85175 4.3436 8.60961 4.3436 11.3675C4.3436 11.6503 4.3436 11.9332 4.3436 12.2868C5.41845 12.315 6.40845 12.5979 7.2146 11.4948C8.07731 10.3209 9.10974 9.27432 10.0997 8.21361C10.3402 7.95904 10.7503 7.78932 11.1039 7.74689C11.7827 7.67618 12.4616 7.73275 13.2112 7.73275C13.2112 8.53889 13.2112 9.30261 13.2112 10.1653C11.9242 9.75518 11.415 10.7593 10.7645 11.4948C10.029 12.315 9.32189 13.1636 8.54403 14.0405C9.66131 15.4972 10.7362 16.9539 11.91 18.3258C12.1363 18.5945 12.7162 18.552 13.2112 18.6793C13.2112 19.344 13.2112 20.0795 13.2112 20.9139C12.3909 20.9139 11.5423 20.9422 10.7079 20.8998C10.524 20.8856 10.3402 20.6452 10.1987 20.4755C9.12389 19.1036 8.02074 17.7459 6.98831 16.3458C6.59231 15.8083 6.18217 15.5679 5.51745 15.6528C5.17802 15.6952 4.81031 15.6669 4.38602 15.6669C4.40017 17.3782 4.40017 19.0895 4.40017 20.8573Z" fill="black"/>
<path d="M55.9515 3.41917C55.9515 2.93832 56.008 2.44332 55.9373 1.94831C55.8383 1.1846 56.1636 0.859314 56.8707 0.831028C57.3233 0.816885 57.7759 0.760314 58.2143 0.816885C59.4165 0.958314 60.0387 1.72203 60.0387 3.00903C60.0529 5.80932 60.0387 8.60961 60.0387 11.424C60.0387 11.6786 60.0387 11.9332 60.0387 12.2726C61.1419 12.3009 62.146 12.5838 62.9522 11.4523C63.7866 10.2926 64.8473 9.28847 65.7666 8.19946C66.0636 7.84589 66.3889 7.69032 66.8556 7.71861C67.5062 7.74689 68.1709 7.73275 68.8922 7.73275C68.8922 8.52475 68.8922 9.28847 68.8922 10.1512C67.6193 9.76932 67.1102 10.7593 66.4596 11.4948C65.7242 12.3292 65.0029 13.1636 64.2533 14.0405C65.3706 15.483 66.4455 16.9398 67.6052 18.3258C67.8315 18.5945 68.4113 18.5662 68.8922 18.6793C68.8922 19.344 68.8922 20.0795 68.8922 20.9139C68.086 20.9139 67.2799 20.9422 66.4596 20.8998C66.2616 20.8856 66.0353 20.6452 65.8939 20.4613C64.8473 19.1319 63.7725 17.8166 62.7825 16.4448C62.344 15.8508 61.8773 15.5396 61.1419 15.6528C60.8166 15.6952 60.4913 15.6669 60.0812 15.6669C60.0812 17.4206 60.0812 19.1319 60.0812 20.8856C59.0912 20.8856 58.186 20.8856 57.196 20.8856C57.196 20.6452 57.196 20.3906 57.196 20.136C57.196 15.1153 57.196 10.0946 57.196 5.08803C57.196 3.81517 57.1677 3.78689 55.9515 3.41917Z" fill="black"/>
<path d="M31.6114 15.3134C31.5689 17.1802 33.2378 18.5804 35.2602 18.5238C36.2927 18.4955 37.2544 18.2268 38.1312 17.6752C38.4141 17.5055 38.697 17.3499 39.0081 17.1661C39.4607 17.8732 39.885 18.5379 40.3658 19.2734C37.8201 20.7584 35.232 21.7059 32.3185 20.8291C30.4092 20.2492 29.4051 18.7501 28.9242 16.8974C28.4717 15.1295 28.5141 13.3475 29.0657 11.5938C29.9567 8.73693 32.4882 7.2095 35.7694 7.52064C38.5131 7.77521 40.1254 9.1895 40.6345 11.9049C40.8042 12.7959 40.7618 13.7294 40.8325 14.6486C40.8608 15.1719 40.6345 15.3275 40.1254 15.3275C37.5797 15.2992 35.034 15.3134 32.4882 15.3134C32.2195 15.3134 31.9367 15.3134 31.6114 15.3134ZM38.0464 13.2202C38.2585 11.5089 37.4382 10.4058 35.8118 10.1654C33.6621 9.85421 31.6821 11.2544 31.5689 13.2202C33.7187 13.2202 35.8542 13.2202 38.0464 13.2202Z" fill="black"/>
<path d="M17.6385 15.3133C17.8506 18.5803 21.0328 19.3582 25.0776 17.1802C25.5019 17.8449 25.9262 18.5096 26.4212 19.2734C25.9404 19.5421 25.5161 19.8108 25.0635 20.0229C23.4654 20.8008 21.7965 21.2392 20.0145 21.1402C17.6526 20.9988 16.0121 19.8249 15.2201 17.5903C14.4705 15.4265 14.4846 13.2343 15.3191 11.0846C16.3232 8.51062 18.7699 7.20948 21.8814 7.52062C24.5685 7.7752 26.2515 9.27434 26.7324 11.9473C26.8879 12.8383 26.8455 13.7718 26.9021 14.6911C26.9304 15.1861 26.7041 15.3133 26.2232 15.3133C23.6351 15.2992 21.0328 15.2992 18.4446 15.2992C18.2042 15.3133 17.9496 15.3133 17.6385 15.3133ZM24.1018 13.2202C24.2715 11.2826 23.2956 10.1795 21.4288 10.1371C19.3781 10.0946 17.7092 11.4382 17.6526 13.2202C19.7882 13.2202 21.9238 13.2202 24.1018 13.2202Z" fill="black"/>
<path d="M73.8278 15.5821C73.9975 18.8349 77.2221 19.6128 81.2811 17.4631C81.7053 18.1136 82.1296 18.7784 82.5256 19.4148C82.4973 19.5138 82.4832 19.5704 82.4549 19.5986C80.4891 20.8856 78.3393 21.5786 75.9775 21.4089C73.5449 21.2251 71.8761 19.7401 71.2113 17.2651C70.7588 15.5396 70.7729 13.8142 71.2679 12.1029C72.0741 9.3592 74.0823 7.86005 77.0241 7.78934C80.8568 7.69034 82.8933 9.68449 83.0913 13.7152C83.1762 15.5962 83.1762 15.5962 81.3376 15.5962C79.1031 15.5962 76.8685 15.5962 74.6198 15.5962C74.3793 15.5821 74.1389 15.5821 73.8278 15.5821ZM73.7853 13.4748C76.0058 13.4748 78.1838 13.4748 80.3476 13.4748C80.4466 12.0888 79.9375 11.1129 78.9475 10.6745C76.7271 9.71277 74.2521 11.0422 73.7853 13.4748Z" fill="black"/>
<path d="M10.8536 41.2245H7.48739L6.77674 42.8702H5.79492L8.75908 36.2125H9.57259L12.5461 42.8702H11.5643L10.8536 41.2245ZM10.5264 40.4577L9.17051 37.2878L7.81466 40.4577H10.5264Z" fill="black"/>
<path d="M17.4198 38.1574V42.8702H16.5034V42.0847C16.3538 42.359 16.1481 42.571 15.8862 42.7206C15.6244 42.8639 15.3283 42.9356 14.9979 42.9356C13.8634 42.9356 13.2961 42.306 13.2961 41.0468V38.1574H14.2312V41.0374C14.2312 41.4239 14.3091 41.7107 14.4649 41.8977C14.627 42.0785 14.8701 42.1689 15.1943 42.1689C15.5808 42.1689 15.8894 42.0442 16.12 41.7949C16.3569 41.5455 16.4753 41.2151 16.4753 40.8037V38.1574H17.4198Z" fill="black"/>
<path d="M20.028 38.8868V41.2525C20.028 41.5767 20.0966 41.8073 20.2337 41.9445C20.3771 42.0754 20.5735 42.1408 20.8228 42.1408C20.9849 42.1408 21.1501 42.1159 21.3184 42.066V42.8328C21.1127 42.9013 20.8789 42.9356 20.6171 42.9356C20.1309 42.9356 19.7537 42.7985 19.4857 42.5242C19.2176 42.2499 19.0836 41.851 19.0836 41.3273V38.8868H18.1672V38.1574H19.0836V36.9793L20.028 36.652V38.1574H21.3277V38.8868H20.028Z" fill="black"/>
<path d="M24.706 38.0452C25.8343 38.0452 26.3984 38.6749 26.3984 39.9341V42.8702H25.454V39.9902C25.454 39.5787 25.373 39.2795 25.2109 39.0925C25.055 38.9055 24.8026 38.812 24.4535 38.812C24.0545 38.812 23.7335 38.9367 23.4904 39.186C23.2535 39.4354 23.135 39.7689 23.135 40.1865V42.8702H22.2V35.9881H23.135V38.8868C23.2909 38.6125 23.506 38.4037 23.7802 38.2603C24.0545 38.1169 24.3631 38.0452 24.706 38.0452Z" fill="black"/>
<path d="M29.7719 42.9356C29.3106 42.9356 28.9054 42.8359 28.5563 42.6364C28.2072 42.4369 27.936 42.1533 27.7428 41.7855C27.5558 41.4177 27.4623 40.9876 27.4623 40.4951C27.4623 40.0026 27.5558 39.5725 27.7428 39.2047C27.936 38.8307 28.2072 38.5439 28.5563 38.3445C28.9054 38.145 29.3106 38.0452 29.7719 38.0452C30.227 38.0452 30.629 38.145 30.9781 38.3445C31.3272 38.5439 31.5953 38.8307 31.7823 39.2047C31.9755 39.5725 32.0722 40.0026 32.0722 40.4951C32.0722 40.9876 31.9755 41.4177 31.7823 41.7855C31.5953 42.1533 31.3272 42.4369 30.9781 42.6364C30.629 42.8359 30.227 42.9356 29.7719 42.9356ZM29.7625 42.1876C30.1989 42.1876 30.5324 42.0442 30.7631 41.7574C30.9937 41.4707 31.109 41.0499 31.109 40.4951C31.109 39.9528 30.9906 39.5351 30.7537 39.2421C30.5231 38.9491 30.1958 38.8026 29.7719 38.8026C29.3418 38.8026 29.0083 38.9491 28.7714 39.2421C28.5345 39.5351 28.416 39.9528 28.416 40.4951C28.416 41.0499 28.5314 41.4707 28.762 41.7574C28.9989 42.0442 29.3324 42.1876 29.7625 42.1876Z" fill="black"/>
<path d="M35.5231 38.0452C35.6664 38.0452 35.816 38.0671 35.9719 38.1107L35.9532 38.971C35.7849 38.9086 35.601 38.8774 35.4015 38.8774C34.9714 38.8774 34.6472 39.0084 34.429 39.2702C34.2171 39.5258 34.1111 39.8499 34.1111 40.2426V42.8702H33.176V39.4852C33.176 38.9928 33.1511 38.5502 33.1012 38.1574H33.9802L34.0644 39.0084C34.189 38.6967 34.3823 38.4598 34.6441 38.2977C34.9059 38.1294 35.1989 38.0452 35.5231 38.0452Z" fill="black"/>
<path d="M36.6917 38.1574H37.6267V42.8702H36.6917V38.1574ZM37.7015 36.1003V37.0915H36.6075V36.1003H37.7015Z" fill="black"/>
<path d="M42.8168 42.1408V42.8702H38.7866V42.2156L41.5731 38.8868H38.8615V38.1574H42.7139V38.8213L39.9274 42.1408H42.8168Z" fill="black"/>
<path d="M47.8076 40.5325H44.4414C44.4726 41.6359 44.9744 42.1876 45.9468 42.1876C46.4892 42.1876 46.9848 42.0099 47.4336 41.6546L47.7235 42.3278C47.5115 42.5149 47.2403 42.6645 46.91 42.7767C46.5858 42.8826 46.2585 42.9356 45.9281 42.9356C45.1739 42.9356 44.5816 42.7206 44.1515 42.2904C43.7214 41.8541 43.5063 41.2587 43.5063 40.5045C43.5063 40.0245 43.5998 39.5974 43.7868 39.2234C43.9801 38.8494 44.2481 38.5595 44.591 38.3538C44.9339 38.1481 45.3235 38.0452 45.7598 38.0452C46.3957 38.0452 46.8944 38.251 47.2559 38.6624C47.6237 39.0738 47.8076 39.6442 47.8076 40.3736V40.5325ZM45.7785 38.7465C45.4232 38.7465 45.1333 38.8525 44.9089 39.0645C44.6845 39.2764 44.5411 39.5787 44.4788 39.9715H46.9754C46.938 39.5725 46.8164 39.2702 46.6107 39.0645C46.405 38.8525 46.1276 38.7465 45.7785 38.7465Z" fill="black"/>
<path d="M53.202 35.9881V42.8702H52.2669V42.066C52.1298 42.3465 51.9241 42.5616 51.6498 42.7112C51.3817 42.8608 51.0669 42.9356 50.7054 42.9356C50.3002 42.9356 49.9386 42.8328 49.6207 42.6271C49.3028 42.4213 49.0534 42.1346 48.8726 41.7668C48.6981 41.3928 48.6108 40.9626 48.6108 40.4764C48.6108 39.9902 48.6981 39.5632 48.8726 39.1954C49.0472 38.8276 49.2903 38.5439 49.602 38.3445C49.9199 38.145 50.2877 38.0452 50.7054 38.0452C51.0607 38.0452 51.3724 38.12 51.6404 38.2697C51.9147 38.4193 52.1204 38.6312 52.2576 38.9055V35.9881H53.202ZM50.9204 42.1876C51.3506 42.1876 51.681 42.0411 51.9116 41.7481C52.1485 41.4489 52.2669 41.0312 52.2669 40.4951C52.2669 39.959 52.1485 39.5445 51.9116 39.2515C51.681 38.9523 51.3537 38.8026 50.9298 38.8026C50.4997 38.8026 50.163 38.9491 49.9199 39.2421C49.683 39.5351 49.5646 39.9465 49.5646 40.4764C49.5646 41.0125 49.683 41.4333 49.9199 41.7387C50.163 42.038 50.4965 42.1876 50.9204 42.1876Z" fill="black"/>
<path d="M62.5057 42.8702H61.4864L60.6542 40.6541C60.567 40.4172 60.4392 40.2551 60.2709 40.1678C60.1026 40.0743 59.8719 40.0276 59.5789 40.0276H58.1202V42.8702H57.1664V36.2125H59.9062C60.6355 36.2125 61.1935 36.3746 61.58 36.6987C61.9727 37.0229 62.169 37.4873 62.169 38.092C62.169 38.5284 62.0537 38.8993 61.8231 39.2047C61.5924 39.5102 61.2651 39.7252 60.8413 39.8499C61.2277 39.9185 61.5083 40.1928 61.6828 40.6728L62.5057 42.8702ZM59.794 39.2515C60.2802 39.2515 60.6418 39.158 60.8787 38.971C61.1155 38.7777 61.234 38.491 61.234 38.1107C61.234 37.7304 61.1155 37.4499 60.8787 37.2691C60.648 37.0821 60.2865 36.9886 59.794 36.9886H58.1202V39.2515H59.794Z" fill="black"/>
<path d="M67.623 40.5325H64.2567C64.2879 41.6359 64.7897 42.1876 65.7622 42.1876C66.3045 42.1876 66.8001 42.0099 67.2489 41.6546L67.5388 42.3278C67.3269 42.5149 67.0557 42.6645 66.7253 42.7767C66.4011 42.8826 66.0739 42.9356 65.7435 42.9356C64.9892 42.9356 64.397 42.7206 63.9669 42.2904C63.5367 41.8541 63.3217 41.2587 63.3217 40.5045C63.3217 40.0245 63.4152 39.5974 63.6022 39.2234C63.7954 38.8494 64.0635 38.5595 64.4063 38.3538C64.7492 38.1481 65.1388 38.0452 65.5752 38.0452C66.211 38.0452 66.7097 38.251 67.0713 38.6624C67.4391 39.0738 67.623 39.6442 67.623 40.3736V40.5325ZM65.5939 38.7465C65.2385 38.7465 64.9487 38.8525 64.7243 39.0645C64.4998 39.2764 64.3565 39.5787 64.2941 39.9715H66.7908C66.7534 39.5725 66.6318 39.2702 66.4261 39.0645C66.2204 38.8525 65.943 38.7465 65.5939 38.7465Z" fill="black"/>
<path d="M70.3524 42.9356C69.5295 42.9356 68.8812 42.7362 68.4075 42.3372L68.688 41.6546C69.1805 42.0286 69.7446 42.2156 70.3805 42.2156C70.7046 42.2156 70.9508 42.1626 71.1192 42.0567C71.2875 41.9445 71.3716 41.7886 71.3716 41.5891C71.3716 41.4208 71.3124 41.2899 71.194 41.1964C71.0818 41.0967 70.8885 41.0125 70.6142 40.9439L69.8288 40.7569C69.4173 40.6697 69.1025 40.5169 68.8843 40.2987C68.6724 40.0743 68.5664 39.7969 68.5664 39.4665C68.5664 39.0426 68.7347 38.6998 69.0714 38.438C69.4142 38.1762 69.8662 38.0452 70.4272 38.0452C70.7638 38.0452 71.0818 38.0982 71.381 38.2042C71.6864 38.3102 71.9451 38.4598 72.1571 38.653L71.8672 39.3169C71.4121 38.9554 70.9321 38.7746 70.4272 38.7746C70.1218 38.7746 69.8849 38.8338 69.7166 38.9523C69.5482 39.0645 69.4641 39.2234 69.4641 39.4291C69.4641 39.5912 69.5171 39.7221 69.6231 39.8219C69.729 39.9216 69.8973 39.9995 70.128 40.0556L70.9321 40.252C71.381 40.3517 71.7114 40.5107 71.9233 40.7289C72.1415 40.9408 72.2506 41.2182 72.2506 41.5611C72.2506 41.985 72.0792 42.3216 71.7363 42.571C71.3997 42.8141 70.9384 42.9356 70.3524 42.9356Z" fill="black"/>
<path d="M77.3845 40.5325H74.0183C74.0495 41.6359 74.5513 42.1876 75.5238 42.1876C76.0661 42.1876 76.5617 42.0099 77.0105 41.6546L77.3004 42.3278C77.0884 42.5149 76.8173 42.6645 76.4869 42.7767C76.1627 42.8826 75.8354 42.9356 75.505 42.9356C74.7508 42.9356 74.1586 42.7206 73.7284 42.2904C73.2983 41.8541 73.0832 41.2587 73.0832 40.5045C73.0832 40.0245 73.1767 39.5974 73.3637 39.2234C73.557 38.8494 73.825 38.5595 74.1679 38.3538C74.5108 38.1481 74.9004 38.0452 75.3367 38.0452C75.9726 38.0452 76.4713 38.251 76.8328 38.6624C77.2006 39.0738 77.3845 39.6442 77.3845 40.3736V40.5325ZM75.3554 38.7465C75.0001 38.7465 74.7102 38.8525 74.4858 39.0645C74.2614 39.2764 74.118 39.5787 74.0557 39.9715H76.5523C76.5149 39.5725 76.3934 39.2702 76.1876 39.0645C75.9819 38.8525 75.7045 38.7465 75.3554 38.7465Z" fill="black"/>
<path d="M78.4683 35.9881H79.4033V42.8702H78.4683V35.9881Z" fill="black"/>
<path d="M80.7877 35.9881H81.7227V42.8702H80.7877V35.9881Z" fill="black"/>
<path d="M87.1278 40.5325H83.7616C83.7928 41.6359 84.2946 42.1876 85.2671 42.1876C85.8094 42.1876 86.305 42.0099 86.7538 41.6546L87.0437 42.3278C86.8317 42.5149 86.5606 42.6645 86.2302 42.7767C85.906 42.8826 85.5787 42.9356 85.2484 42.9356C84.4941 42.9356 83.9019 42.7206 83.4717 42.2904C83.0416 41.8541 82.8265 41.2587 82.8265 40.5045C82.8265 40.0245 82.92 39.5974 83.1071 39.2234C83.3003 38.8494 83.5684 38.5595 83.9112 38.3538C84.2541 38.1481 84.6437 38.0452 85.08 38.0452C85.7159 38.0452 86.2146 38.251 86.5761 38.6624C86.9439 39.0738 87.1278 39.6442 87.1278 40.3736V40.5325ZM85.0987 38.7465C84.7434 38.7465 84.4536 38.8525 84.2291 39.0645C84.0047 39.2764 83.8613 39.5787 83.799 39.9715H86.2956C86.2582 39.5725 86.1367 39.2702 85.931 39.0645C85.7252 38.8525 85.4478 38.7465 85.0987 38.7465Z" fill="black"/>
<path d="M90.5586 38.0452C90.702 38.0452 90.8516 38.0671 91.0074 38.1107L90.9887 38.971C90.8204 38.9086 90.6365 38.8774 90.437 38.8774C90.0069 38.8774 89.6827 39.0084 89.4645 39.2702C89.2526 39.5258 89.1466 39.8499 89.1466 40.2426V42.8702H88.2116V39.4852C88.2116 38.9928 88.1866 38.5502 88.1368 38.1574H89.0157L89.0999 39.0084C89.2245 38.6967 89.4178 38.4598 89.6796 38.2977C89.9414 38.1294 90.2344 38.0452 90.5586 38.0452Z" fill="black"/>
</svg>
