<svg viewBox="0 0 107 44" xmlns="http://www.w3.org/2000/svg"><g fill="#000"><path d="m19.1143.571411h-9.9589v13.450389h13.4393v-9.96717c0-1.92995-1.552-3.483219-3.4804-3.483219zm-13.06288 0h-1.71268c-1.92835 0-3.480342 1.553269-3.480342 3.483219v1.7141h5.193022zm-5.193022 8.303859h5.193022v5.19733h-5.193022zm16.598202 13.45043h1.7127c1.9284 0 3.4803-1.5533 3.4803-3.4832v-1.6591h-5.193zm-8.3012-5.1423h5.193v5.1973h-5.193zm-8.297002 0v1.7141c0 1.9299 1.551992 3.4832 3.480342 3.4832h1.71268v-5.1973zm35.014902-15.21955h-2.0341v19.02015h10.7624v-1.8199h-8.7283zm15.2576 5.03649c-3.9624 0-6.745 2.94572-6.745 7.17806v.4867c.055 1.8199.8585 3.5383 2.1948 4.8207 1.2856 1.1808 2.9433 1.8749 4.7109 1.8749h.2664c1.8734 0 3.6411-.6983 5.0324-1.8749l.0549-.0551-.9092-1.4982-.1057.055c-1.1248 1.02-2.5161 1.6083-4.0131 1.6083-2.4612 0-4.9774-1.6083-5.1381-5.1973h10.2803v-.1058s.055-.6433.055-.965c-.0127-3.8599-2.2582-6.32736-5.6836-6.32736zm-4.6052 5.67986c.4271-2.4125 2.1948-3.96575 4.4953-3.96575 1.7127 0 3.586 1.01999 3.7467 3.96575zm22.0577-4.07156v.69833c-.8585-1.44746-2.4612-2.35741-4.1231-2.35741h-.1607c-3.6411 0-6.1572 2.89492-6.1572 7.12724 0 4.2874 2.4104 7.1781 5.9965 7.1781 2.8375 0 4.1231-1.7141 4.5502-2.4632v2.0907h1.9284v-18.91855h-1.9791v6.64479zm-4.1781 10.87716c-2.5162 0-4.1739-2.1416-4.1739-5.3582 0-3.1065 1.7677-5.30311 4.2289-5.30311 2.089 0 4.1738 1.65911 4.1738 5.30311 0 3.9657-2.1947 5.3582-4.2288 5.3582zm17.9345-10.61053v.10581c-.3763-.64331-1.552-2.03576-4.3895-2.03576-3.5861 0-5.9415 2.7341-5.9415 6.91138 0 4.1774 2.4611 7.0173 6.1022 7.0173 1.9791 0 3.3196-.6984 4.2288-2.1416v1.8749c0 2.6241-1.6577 4.1266-4.6052 4.1266-1.2306 0-2.5162-.3217-3.641-.91l-.1057-.055-.7486 1.6591.1058.055c1.3913.6983 2.9432 1.0708 4.4445 1.0708 3.1589 0 6.5293-1.6083 6.5293-6.0565v-13.1753h-1.9791zm-3.9624 10.23383c-2.6219 0-4.3346-2.0358-4.3346-5.1973 0-3.2166 1.497-5.03653 4.0682-5.03653 2.8375 0 4.1738 1.65913 4.1738 5.03653.055 3.3224-1.3363 5.1973-3.9074 5.1973zm14.0271-12.10876c-3.9624 0-6.6901 2.94572-6.6901 7.12726v.4825c.055 1.8199.8585 3.5382 2.1948 4.8206 1.2856 1.1809 2.9433 1.875 4.7109 1.875h.2665c1.8733 0 3.641-.6984 5.0323-1.875l.055-.055-.9642-1.4982-.1057.055c-1.1249 1.02-2.5162 1.6083-4.0132 1.6083-2.4612 0-4.9774-1.6083-5.1381-5.1973h10.3269v-.1058s.055-.6434.055-.965c0-3.8049-2.2498-6.27236-5.7301-6.27236zm-4.5503 5.67986c.4271-2.4125 2.1948-3.96575 4.4953-3.96575 1.7127 0 3.5861 1.01999 3.7468 3.96575zm18.6328-5.41322c-.267-.05502-.483-.05502-.749-.10581-1.873 0-3.425 1.18083-4.229 3.16153v-3.05572h-1.9789l.055 13.55622v.1058h2.0339v-5.7306c0-.8592.106-1.7691.377-2.5733.642-2.0907 2.089-3.42817 3.801-3.42817.216 0 .427 0 .643.05502h.106v-1.98073z"/><path d="m16.3262 40.3632h-3.348l-.7068 1.6368h-.9765l2.9481-6.6216h.8091l2.9574 6.6216h-.9765zm-.3255-.7626-1.3485-3.1527-1.3485 3.1527z"/><path d="m22.8568 37.3128v4.6872h-.9114v-.7812c-.1488.2728-.3534.4836-.6138.6324-.2604.1426-.5549.2139-.8835.2139-1.1284 0-1.6926-.6262-1.6926-1.8786v-2.8737h.93v2.8644c0 .3844.0775.6696.2325.8556.1612.1798.403.2697.7254.2697.3844 0 .6913-.124.9207-.372.2356-.248.3534-.5766.3534-.9858v-2.6319z"/><path d="m25.4509 38.0382v2.3529c0 .3224.0682.5518.2046.6882.1426.1302.3379.1953.5859.1953.1612 0 .3255-.0248.4929-.0744v.7626c-.2046.0682-.4371.1023-.6975.1023-.4836 0-.8587-.1364-1.1253-.4092s-.3999-.6696-.3999-1.1904v-2.4273h-.9114v-.7254h.9114v-1.1718l.9393-.3255v1.4973h1.2927v.7254z"/><path d="m30.1035 37.2012c1.1222 0 1.6833.6262 1.6833 1.8786v2.9202h-.9393v-2.8644c0-.4092-.0806-.7068-.2418-.8928-.155-.186-.4061-.279-.7533-.279-.3968 0-.7161.124-.9579.372-.2356.248-.3534.5797-.3534.9951v2.6691h-.93v-6.8448h.93v2.883c.155-.2728.3689-.4805.6417-.6231s.5797-.2139.9207-.2139z"/><path d="m35.142 42.0651c-.4588 0-.8618-.0992-1.209-.2976s-.6169-.4805-.8091-.8463c-.186-.3658-.279-.7936-.279-1.2834s.093-.9176.279-1.2834c.1922-.372.4619-.6572.8091-.8556s.7502-.2976 1.209-.2976c.4526 0 .8525.0992 1.1997.2976s.6138.4836.7998.8556c.1922.3658.2883.7936.2883 1.2834s-.0961.9176-.2883 1.2834c-.186.3658-.4526.6479-.7998.8463s-.7471.2976-1.1997.2976zm-.0093-.744c.434 0 .7657-.1426.9951-.4278s.3441-.7037.3441-1.2555c0-.5394-.1178-.9548-.3534-1.2462-.2294-.2914-.5549-.4371-.9765-.4371-.4278 0-.7595.1457-.9951.4371s-.3534.7068-.3534 1.2462c0 .5518.1147.9703.3441 1.2555.2356.2852.5673.4278.9951.4278z"/><path d="m40.862 37.2012c.1426 0 .2914.0217.4464.0651l-.0186.8556c-.1674-.062-.3503-.093-.5487-.093-.4278 0-.7502.1302-.9672.3906-.2108.2542-.3162.5766-.3162.9672v2.6133h-.93v-3.3666c0-.4898-.0248-.93-.0744-1.3206h.8742l.0837.8463c.124-.31.3162-.5456.5766-.7068.2604-.1674.5518-.2511.8742-.2511z"/><path d="m42.0243 37.3128h.93v4.6872h-.93zm1.0044-2.046v.9858h-1.0881v-.9858z"/><path d="m48.1162 41.2746v.7254h-4.0083v-.651l2.7714-3.3108h-2.697v-.7254h3.8316v.6603l-2.7714 3.3015z"/><path d="m53.08 39.675h-3.348c.031 1.0974.5301 1.6461 1.4973 1.6461.5394 0 1.0323-.1767 1.4787-.5301l.2883.6696c-.2108.186-.4805.3348-.8091.4464-.3224.1054-.6479.1581-.9765.1581-.7502 0-1.3392-.2139-1.767-.6417-.4278-.434-.6417-1.0261-.6417-1.7763 0-.4774.093-.9021.279-1.2741.1922-.372.4588-.6603.7998-.8649s.7285-.3069 1.1625-.3069c.6324 0 1.1284.2046 1.488.6138.3658.4092.5487.9765.5487 1.7019zm-2.0181-1.7763c-.3534 0-.6417.1054-.8649.3162s-.3658.5115-.4278.9021h2.4831c-.0372-.3968-.1581-.6975-.3627-.9021-.2046-.2108-.4805-.3162-.8277-.3162z"/><path d="m58.4452 35.1552v6.8448h-.93v-.7998c-.1364.279-.341.4929-.6138.6417-.2666.1488-.5797.2232-.9393.2232-.403 0-.7626-.1023-1.0788-.3069s-.5642-.4898-.744-.8556c-.1736-.372-.2604-.7998-.2604-1.2834s.0868-.9083.2604-1.2741.4154-.6479.7254-.8463c.3162-.1984.682-.2976 1.0974-.2976.3534 0 .6634.0744.93.2232.2728.1488.4774.3596.6138.6324v-2.9016zm-2.2692 6.1659c.4278 0 .7564-.1457.9858-.4371.2356-.2976.3534-.713.3534-1.2462s-.1178-.9455-.3534-1.2369c-.2294-.2976-.5549-.4464-.9765-.4464-.4278 0-.7626.1457-1.0044.4371-.2356.2914-.3534.7006-.3534 1.2276 0 .5332.1178.9517.3534 1.2555.2418.2976.5735.4464.9951.4464z"/><path d="m67.6985 42h-1.0137l-.8277-2.2041c-.0868-.2356-.2139-.3968-.3813-.4836-.1674-.093-.3968-.1395-.6882-.1395h-1.4508v2.8272h-.9486v-6.6216h2.7249c.7254 0 1.2803.1612 1.6647.4836.3906.3224.5859.7843.5859 1.3857 0 .434-.1147.8029-.3441 1.1067s-.5549.5177-.9765.6417c.3844.0682.6634.341.837.8184zm-2.697-3.5991c.4836 0 .8432-.093 1.0788-.279.2356-.1922.3534-.4774.3534-.8556s-.1178-.6572-.3534-.837c-.2294-.186-.589-.279-1.0788-.279h-1.6647v2.2506z"/><path d="m72.788 39.675h-3.348c.031 1.0974.5301 1.6461 1.4973 1.6461.5394 0 1.0324-.1767 1.4787-.5301l.2883.6696c-.2108.186-.4804.3348-.8091.4464-.3224.1054-.6478.1581-.9764.1581-.7502 0-1.3393-.2139-1.7671-.6417-.4278-.434-.6417-1.0261-.6417-1.7763 0-.4774.0931-.9021.2791-1.2741.1922-.372.4587-.6603.7997-.8649s.7285-.3069 1.1626-.3069c.6324 0 1.1283.2046 1.4879.6138.3658.4092.5487.9765.5487 1.7019zm-2.018-1.7763c-.3535 0-.6417.1054-.865.3162-.2232.2108-.3658.5115-.4278.9021h2.4832c-.0373-.3968-.1582-.6975-.3628-.9021-.2046-.2108-.4805-.3162-.8276-.3162z"/><path d="m75.0388 38.0382v2.3529c0 .3224.0682.5518.2046.6882.1426.1302.3379.1953.5859.1953.1612 0 .3255-.0248.4929-.0744v.7626c-.2046.0682-.4371.1023-.6975.1023-.4836 0-.8587-.1364-1.1253-.4092s-.3999-.6696-.3999-1.1904v-2.4273h-.9114v-.7254h.9114v-1.1718l.9393-.3255v1.4973h1.2927v.7254z"/><path d="m81.4863 37.3128v4.6872h-.93v-.7998c-.1364.279-.341.4929-.6138.6417-.2666.1488-.5797.2232-.9393.2232-.4154 0-.7812-.0992-1.0974-.2976-.31-.1984-.5518-.4774-.7254-.837-.1736-.3658-.2604-.7905-.2604-1.2741s.0868-.9114.2604-1.2834c.1798-.372.4278-.6603.744-.8649s.6758-.3069 1.0788-.3069c.3596 0 .6727.0775.9393.2325.2666.1488.4712.3627.6138.6417v-.7626zm-2.2599 4.0083c.4216 0 .7471-.1457.9765-.4371.2356-.2976.3534-.713.3534-1.2462 0-.5394-.1178-.9548-.3534-1.2462-.2294-.2914-.558-.4371-.9858-.4371-.4216 0-.7533.1519-.9951.4557-.2356.2976-.3534.713-.3534 1.2462 0 .527.1178.9362.3534 1.2276.2418.2914.5766.4371 1.0044.4371z"/><path d="m82.8662 37.3128h.93v4.6872h-.93zm1.0044-2.046v.9858h-1.0881v-.9858z"/><path d="m85.173 35.1552h.93v6.8448h-.93z"/><path d="m91.4789 39.675h-3.348c.031 1.0974.5301 1.6461 1.4973 1.6461.5394 0 1.0323-.1767 1.4787-.5301l.2883.6696c-.2108.186-.4805.3348-.8091.4464-.3224.1054-.6479.1581-.9765.1581-.7502 0-1.3392-.2139-1.767-.6417-.4278-.434-.6417-1.0261-.6417-1.7763 0-.4774.093-.9021.279-1.2741.1922-.372.4588-.6603.7998-.8649s.7285-.3069 1.1625-.3069c.6324 0 1.1284.2046 1.488.6138.3658.4092.5487.9765.5487 1.7019zm-2.0181-1.7763c-.3534 0-.6417.1054-.8649.3162s-.3658.5115-.4278.9021h2.4831c-.0372-.3968-.1581-.6975-.3627-.9021-.2046-.2108-.4805-.3162-.8277-.3162z"/><path d="m94.891 37.2012c.1426 0 .2914.0217.4464.0651l-.0186.8556c-.1674-.062-.3503-.093-.5487-.093-.4278 0-.7502.1302-.9672.3906-.2108.2542-.3162.5766-.3162.9672v2.6133h-.93v-3.3666c0-.4898-.0248-.93-.0744-1.3206h.8742l.0837.8463c.124-.31.3162-.5456.5766-.7068.2604-.1674.5518-.2511.8742-.2511z"/></g></svg>