<svg width="107" height="43" viewBox="0 0 107 43" fill="none" xmlns="http://www.w3.org/2000/svg">
<path d="M19.1143 0.571411H9.1554V14.0218H22.5947V4.05463C22.5947 2.12468 21.0427 0.571411 19.1143 0.571411V0.571411ZM6.05142 0.571411H4.33874C2.41039 0.571411 0.858398 2.12468 0.858398 4.05463V5.76873H6.05142V0.571411ZM0.858398 8.87527H6.05142V14.0726H0.858398V8.87527ZM17.4566 22.3257H19.1693C21.0977 22.3257 22.6496 20.7724 22.6496 18.8425V17.1834H17.4566V22.3257ZM9.1554 17.1834H14.3484V22.3807H9.1554V17.1834ZM0.858398 17.1834V18.8975C0.858398 20.8274 2.41039 22.3807 4.33874 22.3807H6.05142V17.1834H0.858398ZM35.8733 1.96385H33.8392V20.984H44.6016V19.1641H35.8733V1.96385ZM51.1309 7.00034C47.1685 7.00034 44.3859 9.94606 44.3859 14.1784V14.6651C44.4409 16.485 45.2444 18.2034 46.5807 19.4858C47.8663 20.6666 49.524 21.3607 51.2916 21.3607H51.558C53.4314 21.3607 55.1991 20.6624 56.5904 19.4858L56.6453 19.4307L55.7361 17.9325L55.6304 17.9875C54.5056 19.0075 53.1143 19.5958 51.6173 19.5958C49.1561 19.5958 46.6399 17.9875 46.4792 14.3985H56.7595V14.2927C56.7595 14.2927 56.8145 13.6494 56.8145 13.3277C56.8018 9.4678 54.5563 7.00034 51.1309 7.00034V7.00034ZM46.5257 12.6802C46.9528 10.2677 48.7205 8.71445 51.021 8.71445C52.7337 8.71445 54.607 9.73444 54.7677 12.6802H46.5257ZM68.5834 8.60864V9.30697C67.7249 7.85951 66.1222 6.94956 64.4603 6.94956H64.2996C60.6585 6.94956 58.1424 9.84448 58.1424 14.0768C58.1424 18.3642 60.5528 21.2549 64.1389 21.2549C66.9764 21.2549 68.262 19.5408 68.6891 18.7917V20.8824H70.6175V1.96385H68.6384V8.60864H68.5834ZM64.4053 19.4858C61.8891 19.4858 60.2314 17.3442 60.2314 14.1276C60.2314 11.0211 61.9991 8.82449 64.4603 8.82449C66.5493 8.82449 68.6341 10.4836 68.6341 14.1276C68.6341 18.0933 66.4394 19.4858 64.4053 19.4858ZM82.3398 8.87527V8.98108C81.9635 8.33777 80.7878 6.94532 77.9503 6.94532C74.3642 6.94532 72.0087 9.67942 72.0087 13.8567C72.0087 18.0341 74.4699 20.874 78.111 20.874C80.0901 20.874 81.4306 20.1756 82.3398 18.7324V20.6073C82.3398 23.2314 80.6821 24.7339 77.7346 24.7339C76.504 24.7339 75.2184 24.4122 74.0936 23.8239L73.9879 23.7689L73.2393 25.428L73.3451 25.483C74.7364 26.1813 76.2883 26.5538 77.7896 26.5538C80.9485 26.5538 84.3189 24.9455 84.3189 20.4973V7.322H82.3398V8.87527ZM78.3774 19.1091C75.7555 19.1091 74.0428 17.0733 74.0428 13.9118C74.0428 10.6952 75.5398 8.87527 78.111 8.87527C80.9485 8.87527 82.2848 10.5344 82.2848 13.9118C82.3398 17.2342 80.9485 19.1091 78.3774 19.1091ZM92.4045 7.00034C88.4421 7.00034 85.7144 9.94606 85.7144 14.1276V14.6101C85.7694 16.43 86.5729 18.1483 87.9092 19.4307C89.1948 20.6116 90.8525 21.3057 92.6201 21.3057H92.8866C94.7599 21.3057 96.5276 20.6073 97.9189 19.4307L97.9739 19.3757L97.0097 17.8775L96.904 17.9325C95.7791 18.9525 94.3878 19.5408 92.8908 19.5408C90.4296 19.5408 87.9134 17.9325 87.7527 14.3435H98.0796V14.2377C98.0796 14.2377 98.1346 13.5943 98.1346 13.2727C98.1346 9.4678 95.8848 7.00034 92.4045 7.00034V7.00034ZM87.8542 12.6802C88.2814 10.2677 90.049 8.71445 92.3495 8.71445C94.0622 8.71445 95.9356 9.73444 96.0963 12.6802H87.8542ZM106.487 7.26698C106.22 7.21196 106.004 7.21196 105.738 7.16117C103.865 7.16117 102.313 8.342 101.509 10.3227V7.26698H99.5301L99.5851 20.8232V20.929H101.619V15.1984C101.619 14.3392 101.725 13.4293 101.996 12.6251C102.638 10.5344 104.085 9.19693 105.797 9.19693C106.013 9.19693 106.224 9.19693 106.44 9.25195H106.546V7.27122L106.487 7.26698Z" fill="black"/>
<path d="M15.8536 41.1377H12.4874L11.7767 42.7834H10.7949L13.7591 36.1257H14.5726L17.5461 42.7834H16.5643L15.8536 41.1377ZM15.5264 40.3709L14.1705 37.201L12.8147 40.3709H15.5264Z" fill="black"/>
<path d="M22.4198 38.0707V42.7834H21.5034V41.9979C21.3538 42.2722 21.1481 42.4842 20.8862 42.6338C20.6244 42.7772 20.3283 42.8488 19.9979 42.8488C18.8634 42.8488 18.2961 42.2192 18.2961 40.96V38.0707H19.2312V40.9507C19.2312 41.3372 19.3091 41.6239 19.4649 41.8109C19.627 41.9917 19.8701 42.0821 20.1943 42.0821C20.5808 42.0821 20.8894 41.9574 21.12 41.7081C21.3569 41.4587 21.4753 41.1283 21.4753 40.7169V38.0707H22.4198Z" fill="black"/>
<path d="M25.028 38.8V41.1657C25.028 41.4899 25.0966 41.7205 25.2337 41.8577C25.3771 41.9886 25.5735 42.054 25.8228 42.054C25.9849 42.054 26.1501 42.0291 26.3184 41.9792V42.746C26.1127 42.8146 25.8789 42.8488 25.6171 42.8488C25.1309 42.8488 24.7537 42.7117 24.4857 42.4374C24.2176 42.1631 24.0836 41.7642 24.0836 41.2405V38.8H23.1672V38.0707H24.0836V36.8925L25.028 36.5652V38.0707H26.3277V38.8H25.028Z" fill="black"/>
<path d="M29.706 37.9584C30.8343 37.9584 31.3984 38.5881 31.3984 39.8473V42.7834H30.454V39.9034C30.454 39.492 30.373 39.1927 30.2109 39.0057C30.055 38.8187 29.8026 38.7252 29.4535 38.7252C29.0545 38.7252 28.7335 38.8499 28.4904 39.0992C28.2535 39.3486 28.135 39.6821 28.135 40.0997V42.7834H27.2V35.9013H28.135V38.8C28.2909 38.5257 28.506 38.3169 28.7802 38.1735C29.0545 38.0301 29.3631 37.9584 29.706 37.9584Z" fill="black"/>
<path d="M34.7719 42.8488C34.3106 42.8488 33.9054 42.7491 33.5563 42.5496C33.2072 42.3501 32.936 42.0665 32.7428 41.6987C32.5558 41.3309 32.4623 40.9008 32.4623 40.4083C32.4623 39.9159 32.5558 39.4857 32.7428 39.1179C32.936 38.7439 33.2072 38.4572 33.5563 38.2577C33.9054 38.0582 34.3106 37.9584 34.7719 37.9584C35.227 37.9584 35.629 38.0582 35.9781 38.2577C36.3272 38.4572 36.5953 38.7439 36.7823 39.1179C36.9755 39.4857 37.0722 39.9159 37.0722 40.4083C37.0722 40.9008 36.9755 41.3309 36.7823 41.6987C36.5953 42.0665 36.3272 42.3501 35.9781 42.5496C35.629 42.7491 35.227 42.8488 34.7719 42.8488ZM34.7625 42.1008C35.1989 42.1008 35.5324 41.9574 35.7631 41.6707C35.9937 41.3839 36.109 40.9631 36.109 40.4083C36.109 39.866 35.9906 39.4483 35.7537 39.1553C35.5231 38.8623 35.1958 38.7159 34.7719 38.7159C34.3418 38.7159 34.0083 38.8623 33.7714 39.1553C33.5345 39.4483 33.416 39.866 33.416 40.4083C33.416 40.9631 33.5314 41.3839 33.762 41.6707C33.9989 41.9574 34.3324 42.1008 34.7625 42.1008Z" fill="black"/>
<path d="M40.5231 37.9584C40.6664 37.9584 40.816 37.9803 40.9719 38.0239L40.9532 38.8842C40.7849 38.8218 40.601 38.7907 40.4015 38.7907C39.9714 38.7907 39.6472 38.9216 39.429 39.1834C39.2171 39.439 39.1111 39.7631 39.1111 40.1559V42.7834H38.176V39.3984C38.176 38.906 38.1511 38.4634 38.1012 38.0707H38.9802L39.0644 38.9216C39.189 38.6099 39.3823 38.373 39.6441 38.2109C39.9059 38.0426 40.1989 37.9584 40.5231 37.9584Z" fill="black"/>
<path d="M41.6917 38.0707H42.6267V42.7834H41.6917V38.0707ZM42.7015 36.0135V37.0047H41.6075V36.0135H42.7015Z" fill="black"/>
<path d="M47.8168 42.054V42.7834H43.7866V42.1288L46.5731 38.8H43.8615V38.0707H47.7139V38.7346L44.9274 42.054H47.8168Z" fill="black"/>
<path d="M52.8076 40.4457H49.4414C49.4726 41.5491 49.9744 42.1008 50.9468 42.1008C51.4892 42.1008 51.9848 41.9231 52.4336 41.5678L52.7235 42.241C52.5115 42.4281 52.2403 42.5777 51.91 42.6899C51.5858 42.7959 51.2585 42.8488 50.9281 42.8488C50.1739 42.8488 49.5816 42.6338 49.1515 42.2036C48.7214 41.7673 48.5063 41.172 48.5063 40.4177C48.5063 39.9377 48.5998 39.5107 48.7868 39.1366C48.9801 38.7626 49.2481 38.4727 49.591 38.267C49.9339 38.0613 50.3235 37.9584 50.7598 37.9584C51.3957 37.9584 51.8944 38.1642 52.2559 38.5756C52.6237 38.987 52.8076 39.5574 52.8076 40.2868V40.4457ZM50.7785 38.6597C50.4232 38.6597 50.1333 38.7657 49.9089 38.9777C49.6845 39.1896 49.5411 39.492 49.4788 39.8847H51.9754C51.938 39.4857 51.8164 39.1834 51.6107 38.9777C51.405 38.7657 51.1276 38.6597 50.7785 38.6597Z" fill="black"/>
<path d="M58.202 35.9013V42.7834H57.2669V41.9792C57.1298 42.2597 56.9241 42.4748 56.6498 42.6244C56.3817 42.774 56.0669 42.8488 55.7054 42.8488C55.3002 42.8488 54.9386 42.746 54.6207 42.5403C54.3028 42.3346 54.0534 42.0478 53.8726 41.68C53.6981 41.306 53.6108 40.8759 53.6108 40.3896C53.6108 39.9034 53.6981 39.4764 53.8726 39.1086C54.0472 38.7408 54.2903 38.4572 54.602 38.2577C54.9199 38.0582 55.2877 37.9584 55.7054 37.9584C56.0607 37.9584 56.3724 38.0333 56.6404 38.1829C56.9147 38.3325 57.1204 38.5444 57.2576 38.8187V35.9013H58.202ZM55.9204 42.1008C56.3506 42.1008 56.681 41.9543 56.9116 41.6613C57.1485 41.3621 57.2669 40.9444 57.2669 40.4083C57.2669 39.8722 57.1485 39.4577 56.9116 39.1647C56.681 38.8655 56.3537 38.7159 55.9298 38.7159C55.4997 38.7159 55.163 38.8623 54.9199 39.1553C54.683 39.4483 54.5646 39.8597 54.5646 40.3896C54.5646 40.9257 54.683 41.3465 54.9199 41.652C55.163 41.9512 55.4965 42.1008 55.9204 42.1008Z" fill="black"/>
<path d="M67.5057 42.7834H66.4864L65.6542 40.5673C65.567 40.3304 65.4392 40.1683 65.2709 40.081C65.1026 39.9875 64.8719 39.9408 64.5789 39.9408H63.1202V42.7834H62.1664V36.1257H64.9062C65.6355 36.1257 66.1935 36.2878 66.58 36.612C66.9727 36.9361 67.169 37.4005 67.169 38.0052C67.169 38.4416 67.0537 38.8125 66.8231 39.1179C66.5924 39.4234 66.2651 39.6384 65.8413 39.7631C66.2277 39.8317 66.5083 40.106 66.6828 40.586L67.5057 42.7834ZM64.794 39.1647C65.2802 39.1647 65.6418 39.0712 65.8787 38.8842C66.1155 38.6909 66.234 38.4042 66.234 38.0239C66.234 37.6436 66.1155 37.3631 65.8787 37.1823C65.648 36.9953 65.2865 36.9018 64.794 36.9018H63.1202V39.1647H64.794Z" fill="black"/>
<path d="M72.623 40.4457H69.2567C69.2879 41.5491 69.7897 42.1008 70.7622 42.1008C71.3045 42.1008 71.8001 41.9231 72.2489 41.5678L72.5388 42.241C72.3269 42.4281 72.0557 42.5777 71.7253 42.6899C71.4011 42.7959 71.0739 42.8488 70.7435 42.8488C69.9892 42.8488 69.397 42.6338 68.9669 42.2036C68.5367 41.7673 68.3217 41.172 68.3217 40.4177C68.3217 39.9377 68.4152 39.5107 68.6022 39.1366C68.7954 38.7626 69.0635 38.4727 69.4063 38.267C69.7492 38.0613 70.1388 37.9584 70.5752 37.9584C71.211 37.9584 71.7097 38.1642 72.0713 38.5756C72.4391 38.987 72.623 39.5574 72.623 40.2868V40.4457ZM70.5939 38.6597C70.2385 38.6597 69.9487 38.7657 69.7243 38.9777C69.4998 39.1896 69.3565 39.492 69.2941 39.8847H71.7908C71.7534 39.4857 71.6318 39.1834 71.4261 38.9777C71.2204 38.7657 70.943 38.6597 70.5939 38.6597Z" fill="black"/>
<path d="M75.3524 42.8488C74.5295 42.8488 73.8812 42.6494 73.4075 42.2504L73.688 41.5678C74.1805 41.9418 74.7446 42.1288 75.3805 42.1288C75.7046 42.1288 75.9508 42.0759 76.1192 41.9699C76.2875 41.8577 76.3716 41.7018 76.3716 41.5023C76.3716 41.334 76.3124 41.2031 76.194 41.1096C76.0818 41.0099 75.8885 40.9257 75.6142 40.8572L74.8288 40.6701C74.4173 40.5829 74.1025 40.4301 73.8843 40.212C73.6724 39.9875 73.5664 39.7101 73.5664 39.3797C73.5664 38.9559 73.7347 38.613 74.0714 38.3512C74.4142 38.0894 74.8662 37.9584 75.4272 37.9584C75.7638 37.9584 76.0818 38.0114 76.381 38.1174C76.6864 38.2234 76.9451 38.373 77.1571 38.5662L76.8672 39.2301C76.4121 38.8686 75.9321 38.6878 75.4272 38.6878C75.1218 38.6878 74.8849 38.747 74.7166 38.8655C74.5482 38.9777 74.4641 39.1366 74.4641 39.3423C74.4641 39.5044 74.5171 39.6353 74.6231 39.7351C74.729 39.8348 74.8973 39.9127 75.128 39.9688L75.9321 40.1652C76.381 40.2649 76.7114 40.4239 76.9233 40.6421C77.1415 40.854 77.2506 41.1314 77.2506 41.4743C77.2506 41.8982 77.0792 42.2348 76.7363 42.4842C76.3997 42.7273 75.9384 42.8488 75.3524 42.8488Z" fill="black"/>
<path d="M82.3845 40.4457H79.0183C79.0495 41.5491 79.5513 42.1008 80.5238 42.1008C81.0661 42.1008 81.5617 41.9231 82.0105 41.5678L82.3004 42.241C82.0884 42.4281 81.8173 42.5777 81.4869 42.6899C81.1627 42.7959 80.8354 42.8488 80.505 42.8488C79.7508 42.8488 79.1586 42.6338 78.7284 42.2036C78.2983 41.7673 78.0832 41.172 78.0832 40.4177C78.0832 39.9377 78.1767 39.5107 78.3637 39.1366C78.557 38.7626 78.825 38.4727 79.1679 38.267C79.5108 38.0613 79.9004 37.9584 80.3367 37.9584C80.9726 37.9584 81.4713 38.1642 81.8328 38.5756C82.2006 38.987 82.3845 39.5574 82.3845 40.2868V40.4457ZM80.3554 38.6597C80.0001 38.6597 79.7102 38.7657 79.4858 38.9777C79.2614 39.1896 79.118 39.492 79.0557 39.8847H81.5523C81.5149 39.4857 81.3934 39.1834 81.1876 38.9777C80.9819 38.7657 80.7045 38.6597 80.3554 38.6597Z" fill="black"/>
<path d="M83.4683 35.9013H84.4033V42.7834H83.4683V35.9013Z" fill="black"/>
<path d="M85.7877 35.9013H86.7227V42.7834H85.7877V35.9013Z" fill="black"/>
<path d="M92.1278 40.4457H88.7616C88.7928 41.5491 89.2946 42.1008 90.2671 42.1008C90.8094 42.1008 91.305 41.9231 91.7538 41.5678L92.0437 42.241C91.8317 42.4281 91.5606 42.5777 91.2302 42.6899C90.906 42.7959 90.5787 42.8488 90.2484 42.8488C89.4941 42.8488 88.9019 42.6338 88.4717 42.2036C88.0416 41.7673 87.8265 41.172 87.8265 40.4177C87.8265 39.9377 87.92 39.5107 88.1071 39.1366C88.3003 38.7626 88.5684 38.4727 88.9112 38.267C89.2541 38.0613 89.6437 37.9584 90.08 37.9584C90.7159 37.9584 91.2146 38.1642 91.5761 38.5756C91.9439 38.987 92.1278 39.5574 92.1278 40.2868V40.4457ZM90.0987 38.6597C89.7434 38.6597 89.4536 38.7657 89.2291 38.9777C89.0047 39.1896 88.8613 39.492 88.799 39.8847H91.2956C91.2582 39.4857 91.1367 39.1834 90.931 38.9777C90.7252 38.7657 90.4478 38.6597 90.0987 38.6597Z" fill="black"/>
<path d="M95.5586 37.9584C95.702 37.9584 95.8516 37.9803 96.0074 38.0239L95.9887 38.8842C95.8204 38.8218 95.6365 38.7907 95.437 38.7907C95.0069 38.7907 94.6827 38.9216 94.4645 39.1834C94.2526 39.439 94.1466 39.7631 94.1466 40.1559V42.7834H93.2116V39.3984C93.2116 38.906 93.1866 38.4634 93.1368 38.0707H94.0157L94.0999 38.9216C94.2245 38.6099 94.4178 38.373 94.6796 38.2109C94.9414 38.0426 95.2344 37.9584 95.5586 37.9584Z" fill="black"/>
</svg>
