<svg width="362" height="137" viewBox="0 0 362 137" fill="none" xmlns="http://www.w3.org/2000/svg">
<path d="M67.5305 130.877C101.428 130.877 128.908 102.95 128.908 68.5001C128.908 34.0502 101.428 6.12305 67.5305 6.12305C33.6328 6.12305 6.15332 34.0502 6.15332 68.5001C6.15332 102.95 33.6328 130.877 67.5305 130.877Z" fill="white"/>
<path fill-rule="evenodd" clip-rule="evenodd" d="M67.5303 12.2458C37.1525 12.2458 12.3062 37.3094 12.3062 68.5C12.3062 99.6907 37.1525 124.754 67.5303 124.754C97.9081 124.754 122.754 99.6907 122.754 68.5C122.754 37.3094 97.9081 12.2458 67.5303 12.2458ZM0 68.5C0 30.7908 30.1127 0 67.5303 0C104.948 0 135.061 30.7908 135.061 68.5C135.061 106.209 104.948 137 67.5303 137C30.1127 137 0 106.209 0 68.5Z" fill="#006EFF"/>
<path d="M156.485 53.1169V28.9961H164.322V25.8003H144.977V28.9961H152.814V53.1169H156.485Z" fill="black"/>
<path d="M189.465 53.1169V25.8003H185.833V37.29H172.49V25.8003H168.819V53.1169H172.49V40.5999H185.833V53.1169H189.465Z" fill="black"/>
<path d="M213.653 53.1169V49.9211H200.156V40.5239H209.409V37.4041H200.156V28.9961H213.041V25.8003H196.486V53.1169H213.653Z" fill="black"/>
<path d="M242.665 44.4045C241.518 48.6275 239.224 50.3396 235.936 50.3396C231.157 50.3396 228.901 46.5731 228.901 39.3064C228.901 32.5724 231.616 28.5396 236.051 28.5396C239.109 28.5396 241.136 30.1375 242.321 34.1703L245.724 33.4855C244.271 27.7026 241.136 25.3438 236.089 25.3438C229.398 25.3438 225.269 30.4418 225.269 39.3064C225.269 48.209 228.633 53.5734 235.898 53.5734C240.791 53.5734 244.462 51.519 246.144 45.1654L242.665 44.4045Z" fill="black"/>
<path d="M270.917 53.1169L264.456 40.4097C267.706 39.3445 269.732 37.0998 269.732 33.3713C269.732 28.4254 266.597 25.8003 259.486 25.8003H250.998V53.1169H254.668V41.3609H260.977L266.788 53.1169H270.917ZM254.668 38.2031V28.9961H259.792C262.735 28.9961 266.062 29.4907 266.062 33.5616C266.062 37.8226 261.971 38.2031 259.6 38.2031H254.668Z" fill="black"/>
<path d="M285.078 53.1169V41.8935L293.833 25.8003H289.933L283.242 38.3553H283.166L276.896 25.8003H272.881L281.407 41.8935V53.1169H285.078Z" fill="black"/>
<path d="M301.265 53.1169V41.7794H305.738C312.735 41.7794 316.252 39.1923 316.252 33.7137C316.252 28.3493 312.849 25.8003 306.044 25.8003H297.594V53.1169H301.265ZM301.265 38.6596V28.9961H306.35C310.479 28.9961 312.62 30.4799 312.62 33.7137C312.62 38.165 308.911 38.6596 306.006 38.6596H301.265Z" fill="black"/>
<path d="M330.139 53.1169V28.9961H337.977V25.8003H318.631V28.9961H326.468V53.1169H330.139Z" fill="black"/>
<path d="M350.798 53.5734C357.833 53.5734 362 48.171 362 39.4586C362 31.3169 358.177 25.3438 350.798 25.3438C343.419 25.3438 339.557 31.3169 339.557 39.4586C339.557 48.171 343.725 53.5734 350.798 53.5734ZM350.798 50.4537C346.095 50.4537 343.189 46.3828 343.189 39.4586C343.189 32.4963 346.095 28.4254 350.798 28.4254C355.462 28.4254 358.368 32.4963 358.368 39.4586C358.368 46.3828 355.5 50.4537 350.798 50.4537Z" fill="black"/>
<path d="M176.274 101.3V72.6036H168.643L162.136 94.0663H162.055L155.79 72.6036H148.078V101.3H153.179V79.5181H153.259L159.846 101.3H164.465L171.012 79.5181H171.093V101.3H176.274Z" fill="black"/>
<path d="M201.712 101.3V96.6642H188.177V88.7506H197.535V84.2742H188.177V77.2399H201.271V72.6036H182.634V101.3H201.712Z" fill="black"/>
<path d="M228.264 101.3L221.959 88.271C225.011 87.032 226.979 84.6339 226.979 80.877C226.979 75.4014 223.404 72.6036 215.773 72.6036H205.933V101.3H211.476V89.7898H216.858L222.119 101.3H228.264ZM211.476 85.3134V77.2399H216.094C218.504 77.2399 221.396 77.6795 221.396 81.2367C221.396 84.9137 217.902 85.3134 215.813 85.3134H211.476Z" fill="black"/>
<path d="M248.794 91.7082C247.75 95.665 245.541 97.1438 242.769 97.1438C238.592 97.1438 236.463 93.7865 236.463 86.7123C236.463 80.2774 238.913 76.6803 242.89 76.6803C245.621 76.6803 247.509 78.0392 248.513 81.7962L253.654 80.837C252.288 74.7219 248.794 72.124 242.97 72.124C235.58 72.124 230.921 77.3998 230.921 86.7123C230.921 96.2246 234.977 101.78 242.609 101.78C247.87 101.78 252.088 99.9416 254.056 92.9073L248.794 91.7082Z" fill="black"/>
<path d="M281.15 101.3V72.6036H275.607V84.0344H263.879V72.6036H258.296V101.3H263.879V88.9504H275.607V101.3H281.15Z" fill="black"/>
<path d="M309.809 101.3L301.093 72.6036H293.582L284.907 101.3H290.49L292.578 93.7466H301.897L303.985 101.3H309.809ZM297.197 77.16H297.278L300.611 89.1503H293.864L297.197 77.16Z" fill="black"/>
<path d="M336.536 101.3V72.6036H331.355V91.7882H331.275L320.43 72.6036H313.562V101.3H318.783V80.3174H318.864L331.074 101.3H336.536Z" fill="black"/>
<path d="M353.906 101.3V77.2399H361.738V72.6036H340.572V77.2399H348.364V101.3H353.906Z" fill="black"/>
<g clip-path="url(#clip0)">
<path d="M83.92 83.5157C83.1208 84.2845 83.0385 84.5302 83.4633 85.225C83.6624 85.5474 83.9651 85.8248 84.2651 86.0652C84.5359 86.2818 84.9607 86.3531 85.1545 86.6094C85.9696 87.69 87.1378 88.4931 87.69 89.7665C87.9502 90.3662 88.2821 90.8312 88.9007 91.0716C89.4237 91.2751 89.7317 91.6714 89.9627 92.176C90.8627 94.131 91.9725 95.9671 93.1964 97.7346C93.8787 98.7227 94.346 99.7847 94.5292 100.982C94.6726 101.917 94.4549 102.662 93.7911 103.378C92.4663 104.81 90.799 105.658 89.0202 106.313C86.6307 107.195 84.2439 108.096 81.7243 108.569C81.1641 108.675 80.6066 108.791 80.0411 108.865C78.3446 109.092 76.648 109.478 74.9515 109.473C72.9895 109.467 71.0009 109.243 69.0681 108.881C65.014 108.123 61.0316 107.042 57.0943 105.814C55.5438 105.33 53.9747 104.9 52.4561 104.334C50.9799 103.785 49.5701 103.061 48.1072 102.472C46.5461 101.845 45.139 100.966 43.7797 99.9987C42.3274 98.9657 41.1141 97.6844 40.3149 96.1045C39.7202 94.9289 39.5344 93.6343 39.7999 92.2869C40.068 90.9263 40.6203 89.7216 41.4141 88.5961C42.5 87.0612 43.5248 85.4866 44.616 83.9543C45.4762 82.7443 46.4134 81.5845 47.2789 80.3771C47.5816 79.9544 47.8285 79.4736 47.9984 78.9848C48.317 78.0813 48.5586 77.1513 48.8374 76.2319C49.0365 75.5767 49.6126 75.3178 50.1409 75.7484C50.6056 76.1262 50.9201 76.4486 51.5307 76.4987C51.8466 76.5252 52.464 76.8052 52.7613 77.0219C52.7374 77.109 52.5118 77.1962 52.4879 77.2834C51.8321 77.3495 50.9135 77.1477 50.5126 77.4842C50.381 77.5946 50.3932 77.8488 50.4436 77.9175C51.2003 78.8897 51.9908 79.7591 53.2228 79.903C53.7579 79.9655 53.9561 79.9491 54.2853 79.743C54.5774 79.5607 54.7611 78.9848 54.7611 78.9848C54.7611 78.9848 54.6676 76.6467 54.0968 75.5027C53.9189 75.1487 53.9322 74.6283 54.0331 74.224C54.1951 73.5609 53.9136 73.2333 53.3508 72.9638C52.8384 73.1673 52.2251 73.2729 51.8056 73.6164C51.41 73.9414 51.2189 74.5173 50.9135 75.0219C50.6077 73.6164 50.7908 73.7385 50.7616 73.1678C50.4801 72.4149 49.8409 72.2796 49.2436 71.6587C48.3701 70.7499 48.2878 69.5848 49.079 68.5967C49.2701 68.359 49.5011 68.1476 49.7215 67.9336C50.1622 67.503 50.6109 67.0829 51.0516 66.6523C51.8852 65.8465 52.2968 64.8663 52.2755 63.7092C52.2729 63.622 52.2569 63.5295 52.2782 63.4476C52.695 61.6247 51.8826 60.1109 51.0303 58.6182C50.7967 58.2087 50.4808 57.8203 50.133 57.5006C49.2515 56.6922 48.6382 56.6816 47.6665 57.3738C46.5275 58.1849 46.0231 58.0369 44.8576 57.2972C43.1318 56.1982 42.6858 54.8349 43.2938 52.9354C43.5965 51.9896 43.5832 50.946 43.8195 49.9711C44.1487 48.6158 44.523 47.2605 44.9983 45.9501C45.1974 45.4006 45.6726 44.933 46.0842 44.4865C46.7373 43.7758 47.4355 43.1021 48.1285 42.4258C49.294 41.2924 50.3374 40.0612 51.333 38.7746C52.5516 37.2053 54.1048 35.953 55.7695 34.8936C57.8005 33.5991 59.8979 32.4023 62.0113 31.2398C64.175 30.051 66.4716 29.1448 68.9354 28.833C71.9381 28.4526 74.9542 28.1884 77.9649 27.8846C79.4145 27.7366 80.7473 28.1726 82.0509 28.7379C83.2191 29.2425 84.4058 29.7102 85.5714 30.2227C85.9245 30.3786 86.2909 30.5741 86.5537 30.8435C87.536 31.8501 88.0405 33.1182 88.2422 34.4762C88.3989 35.533 87.7511 36.4629 86.7422 36.8328C86.3732 36.9675 85.9776 37.0283 85.5979 37.1446C84.7457 37.4061 84.451 38.1274 84.9342 38.8777C86.1236 40.7217 86.8988 42.7534 87.69 44.7797C87.8175 45.1047 87.8812 45.4957 88.1042 45.7361C89.0228 46.7295 89.129 48.0319 89.498 49.2287C89.591 49.5352 89.498 49.9289 89.4025 50.2565C89.0334 51.5193 89.4184 52.5338 90.2627 53.4955C90.9769 54.3092 91.5663 55.2338 92.222 56.1004C92.8752 56.967 93.5044 57.8573 94.2106 58.6816C95.4717 60.1478 95.1531 61.5454 93.3318 62.3037C92.384 62.6999 92.0601 62.9003 92.222 63.9835C92.3468 64.8263 92.2634 65.3498 91.9873 66.1265C91.3926 66.1265 90.8554 66.1027 90.2952 66.1265C89.743 66.1503 89.1502 66.8278 89.2538 67.5042C90.7246 67.3511 90.7879 67.6624 91.372 67.8103C91.8419 68.8195 92.1769 69.6297 92.5619 70.557C92.761 71.0352 92.8752 71.5583 92.9707 72.0709C93.1221 72.8767 93.2283 73.693 93.3663 74.5701C93.0504 74.8475 92.6415 75.2068 92.2353 75.5635C92.8539 76.5939 93.4353 75.7088 94.0062 75.6586C94.5133 76.2583 94.3487 76.9452 94.277 77.5634C94.1416 78.7285 93.892 79.8804 93.7008 81.0376C93.6079 81.6003 93.2044 81.8513 92.7265 81.986C92.4371 82.0679 92.1132 82.0257 91.8105 82.0679C91.2875 82.1393 90.9105 82.3506 90.8574 82.9636C90.8335 83.2542 90.7087 83.5686 90.5361 83.8037C90.2122 84.2449 89.6122 84.3347 88.9803 84.0864C88.5794 83.9279 88.2157 83.6108 87.7405 83.8301C86.4024 84.451 85.1014 84.4034 83.92 83.5157ZM63.3387 84.8208C63.3759 85.8195 63.7476 86.5011 64.4113 86.9978C65.1707 87.5658 65.5131 88.2236 64.9848 89.0955C65.7017 90.0862 66.8114 90.3795 67.7061 90.958C68.1256 91.2302 68.4973 91.4177 68.6593 91.9223C68.9115 92.707 69.4319 93.2433 70.2257 93.4916C70.5576 93.1271 70.8443 92.81 71.1204 92.5062C71.7762 92.6859 72.0205 93.0821 72.0205 93.6475C71.678 94.0412 71.3673 94.3952 71.0833 94.7201C71.2001 95.1983 71.4815 95.3833 71.8638 95.3885C72.2594 95.3938 72.6576 95.3727 73.0479 95.3225C73.8683 95.2168 74.1046 94.9976 74.2241 94.1891C74.309 93.6185 74.3781 93.0584 74.9568 92.7017C75.4746 92.9184 75.9923 93.1376 76.5126 93.3569C76.5126 94.242 76.7383 95.1931 76.4542 95.9513C76.1171 96.8522 75.3391 97.5866 74.7896 98.3422C74.1816 98.3977 73.8046 97.6844 73.2178 98.1045C73.2099 98.2339 73.1435 98.4109 73.2019 98.477C73.6984 99.0238 74.1258 99.7742 74.7551 100.033C75.9179 100.517 76.2259 101.468 76.5153 102.461C76.8312 103.544 77.0463 103.803 78.1083 103.742C79.0667 103.69 80.0252 103.581 80.9756 103.439C81.2172 103.402 81.4217 103.137 81.7535 102.9C81.1615 102.353 80.6836 101.909 80.2137 101.476C80.1101 101.526 80.0198 101.547 79.9561 101.602C79.672 101.843 79.3747 102.033 79.0136 101.777C78.6154 101.494 78.8171 101.177 78.9711 100.852C79.0216 100.749 78.9791 100.601 78.9791 100.485C78.9154 100.406 78.8729 100.313 78.8012 100.276C78.6499 100.197 78.4853 100.12 78.318 100.094C78.0578 100.054 77.787 100.086 77.5295 100.038C76.8551 99.9142 76.6268 99.4016 77.118 98.9182C77.8242 98.2207 77.9516 97.3013 78.2915 96.4612C78.5118 95.9169 78.5118 95.4572 78.0419 95.0345C77.4578 94.5088 77.6118 93.8932 77.8348 93.1535C78.0552 93.312 78.2384 93.3807 78.31 93.5075C79.0003 94.7624 79.6481 96.0411 80.3544 97.2855C80.7367 97.9592 80.9995 98.6117 80.5402 99.4386C81.3553 99.4756 81.7031 99.9512 82.0031 100.519C82.412 101.293 82.858 102.049 83.2908 102.81C83.4925 103.164 83.8164 103.259 84.1934 103.19C84.597 103.114 84.8041 102.844 84.8014 102.448C84.7988 102.057 84.8147 101.645 84.7058 101.275C84.2253 99.6421 83.697 98.0226 83.1978 96.3951C82.9164 95.4784 82.3854 94.7545 81.5889 94.2182C81.2969 94.0227 81.0022 93.8325 80.7101 93.6396C79.7782 93.024 79.2446 92.2367 79.1835 91.0479C79.1172 89.7586 78.9632 88.4112 77.5693 87.7085C77.418 87.6318 77.3277 87.4443 77.1817 87.3544C76.0985 86.694 75.0152 86.0282 73.9081 85.4073C73.7594 85.3254 73.4754 85.4866 73.0957 85.5685C73.5869 86.3109 73.9878 86.9238 74.394 87.5341C74.5639 87.7904 74.8984 88.0519 74.8798 88.2923C74.8135 89.2091 75.517 89.7956 75.7639 90.5459C75.4931 91.0716 75.2409 91.563 74.9781 92.0703C74.4019 91.6661 73.9002 91.2539 73.3453 90.9395C72.1718 90.2711 72.0151 90.0069 72.1638 88.6226C72.2461 87.8538 71.7842 87.3729 71.0169 87.4707C70.7248 87.5077 70.4461 87.6266 70.1567 87.7085C69.5593 87.1219 68.8664 86.7283 68.5531 85.9384C68.4363 85.6398 68.123 85.336 67.8256 85.2066C67.0371 84.8605 66.9601 84.3241 67.2495 83.7825C66.8619 83.3229 66.5645 82.9556 66.2512 82.6069C66.0494 82.3823 65.8424 82.0257 65.6008 81.994C64.9158 81.9041 64.7273 81.3256 64.3476 80.887C63.9653 80.85 63.5777 80.813 63.2432 80.7813C62.8476 80.245 62.4971 79.7695 62.1334 79.2754C62.2927 78.8633 62.4732 78.4009 62.6564 77.928C62.3909 77.7616 62.2529 77.6084 62.0989 77.5872C61.236 77.4789 60.5563 77.0192 59.9059 76.4987C59.4306 76.1183 58.9634 75.7247 58.4987 75.3284C58.1217 75.0061 57.7129 74.9215 57.2907 75.1883C56.9429 75.4076 56.6801 75.7299 56.7704 76.1738C56.8288 76.467 56.9456 76.7629 57.1022 77.0219C57.4182 77.545 57.7846 78.039 58.1164 78.5515C58.4244 79.0271 58.8067 79.315 59.4174 79.2649C60.0625 79.212 60.6121 79.4207 61.0024 80.0389C60.8457 80.2741 60.6174 80.4749 60.5802 80.7047C60.5271 81.0191 60.5218 81.4207 60.6811 81.6611C60.7979 81.8354 61.2174 81.8592 61.5015 81.8592C61.7405 81.8592 61.9794 81.7271 62.3591 81.6109C62.4228 81.9887 62.5794 82.3057 62.4945 82.5224C62.1785 83.3123 61.4723 82.5725 60.9201 82.8552C60.8723 83.0613 60.6997 83.3704 60.79 83.5289C60.9493 83.8116 61.2334 84.0811 61.5307 84.2158C62.0936 84.4589 62.6909 84.6068 63.3387 84.8208ZM73.9895 43.4878C74.6064 43.7779 75.0679 43.9535 75.374 44.2038C76.0297 44.7401 76.1755 44.4336 75.8808 45.2791C75.6631 45.8973 75.7241 46.5815 76.1197 47.176C76.8073 48.209 76.6188 49.2552 76.1702 50.3093C75.6365 51.5695 74.9329 52.7134 74.0117 53.7412C72.9603 54.9115 73.4196 56.7371 74.9117 57.0938C76.6109 57.498 77.9118 58.4808 79.2074 59.5349C79.9827 60.1663 80.7898 60.7608 81.6686 61.4397C82.6111 60.8559 83.5377 60.3592 84.3713 59.7383C84.9076 59.3394 85.2236 58.7661 84.8678 58.0079C84.5412 57.3104 84.0341 57.0356 83.2987 57.0621C82.9483 57.0753 82.5898 57.107 82.2447 57.0621C81.7376 56.996 81.3022 56.5812 81.4641 56.2087C81.7774 55.4928 81.342 55.1519 80.9491 54.7425C80.7367 54.5205 80.503 54.3145 80.3172 54.0714C79.8844 53.5034 79.9057 53.1018 80.3783 52.5655C80.7818 52.1032 81.1747 51.6303 81.6075 51.197C82.7651 50.0425 84.066 49.2208 85.813 49.4718C86.0732 49.5088 86.3413 49.5035 86.6041 49.4982C87.5015 49.4824 87.9874 48.9963 87.9475 48.1138C87.9051 47.1522 87.4458 46.5181 86.5245 46.1113C85.0483 45.4587 83.9333 44.497 83.9757 42.6609C83.9943 41.9053 83.5669 41.5988 82.7837 41.5856C82.5235 41.583 82.2553 41.6041 82.0031 41.6675C80.203 42.1061 78.3685 42.2171 76.5286 42.3016C76.0586 42.3148 74.9125 43.0125 73.9895 43.4878ZM78.3525 39.4695C77.9543 39.2396 77.7313 39.023 77.4764 38.9807C77.0914 38.9146 76.6879 38.9648 76.2923 38.9754C75.6684 38.9913 75.1055 38.9384 74.6064 38.4417C74.086 37.9239 73.3851 38.0428 72.7453 38.2621C70.924 38.8909 69.1053 39.5196 67.3026 40.196C66.9176 40.3413 66.538 40.6187 66.2725 40.9357C65.63 41.7019 64.9928 42.4892 64.4697 43.3399C63.7901 44.4442 62.9617 45.1205 61.5812 44.9462C60.9201 44.8616 60.5139 45.25 60.3147 45.8629C60.2192 46.1535 60.1023 46.4362 60.0254 46.7321C59.8023 47.5802 60.1661 48.0187 61.0263 47.9078C61.321 47.8681 61.621 47.7545 61.8838 47.6092C62.8343 47.0782 63.7556 46.497 64.7167 45.9845C65.1335 45.7625 65.6087 45.5882 66.0733 45.5248C67.3557 45.3477 68.5186 44.9092 69.5965 44.2038C70.0319 43.9185 70.5443 43.7494 70.9983 43.4878C72.509 42.616 74.163 42.0189 75.6206 41.0414C76.1967 40.6557 76.8445 40.3783 77.4552 40.0427C77.71 39.8948 77.941 39.7284 78.3525 39.4695ZM84.7404 93.9989C84.6979 94.5299 85.1784 94.9368 84.8784 95.5206C84.7085 95.8509 84.8943 96.2762 85.3191 96.3132C85.8767 96.3634 85.9962 96.7914 86.2457 97.1349C86.551 97.5549 86.8245 98.0411 87.2307 98.3343C87.7537 98.7095 88.3405 98.9367 88.7255 99.539C89.052 100.049 89.7051 99.8508 89.9627 99.2722C90.2069 98.72 90.029 98.2392 89.7423 97.7848C89.0016 96.6038 88.2635 95.4176 87.4829 94.2631C86.9466 93.4705 86.4156 92.6489 85.7466 91.9752C84.7643 90.9845 83.7872 89.999 82.9111 88.9105C82.4332 88.3187 81.7615 87.9515 80.973 87.9383C80.4738 87.9304 79.8154 87.7322 79.5871 88.3795C79.3959 88.9185 79.7889 89.3649 80.1446 89.7639C80.6066 90.2843 81.0181 90.8603 81.5225 91.3332C82.4969 92.2473 83.2244 93.4599 84.7404 93.9989ZM88.667 52.3145C86.9891 52.9274 86.1555 54.2801 86.4422 55.7675C86.721 57.2232 86.79 58.6234 85.9192 59.9286C85.8023 60.1029 85.7917 60.3433 85.7253 60.5521C85.5873 60.9827 85.7625 61.2099 86.2802 61.3156C86.474 61.0699 86.8737 60.8321 87.0648 60.5521C87.333 60.1584 87.4298 59.7436 87.6528 59.3236C88.0219 58.634 89.2538 58.8507 89.2538 58.8507C89.2538 58.8507 87.3725 59.8064 89.66 60.8559C90.0317 60.4173 90.3875 59.9972 90.7246 59.5983C91.6061 59.2786 92.8884 59.9682 93.2601 58.6023C91.7043 56.4756 90.191 54.4016 88.667 52.3145ZM86.3838 68.1397C85.1014 68.3484 85.3882 69.4131 85.2236 70.1898C84.9474 70.3061 84.7191 70.4012 84.3766 70.5465C84.3209 69.9441 84.9501 69.17 83.827 68.9825C83.5695 69.3814 83.2961 69.8067 82.9615 70.3272C82.5341 69.9705 82.1465 69.6456 81.7588 69.3206C81.3473 69.5293 81.2013 69.9203 81.5066 70.1766C82.1491 70.7129 84.4498 72.5556 85.502 71.6371C86.1419 72.0963 84.0311 74.2769 83.6806 74.4935C83.2373 74.1712 80.6145 72.3509 80.28 72.1052C79.6827 72.7948 80.5986 73.0616 80.5482 73.5424C80.4075 73.9599 79.7225 74.2082 80.2455 74.8475C81.3925 74.4063 82.5474 73.9625 83.8616 73.4579C84.2359 73.7459 84.7749 74.0576 85.1784 74.4935C85.5846 74.9347 86.0121 75.0378 86.5723 74.8079C86.8086 75.8198 87.5838 76.0364 88.4175 76.3719C88.5529 76.0628 88.7201 75.8118 88.7679 75.5371C88.9033 74.7762 87.9343 74.8475 87.7936 74.3588C87.6343 73.3337 88.5263 73.1303 88.9989 72.6944C89.0732 71.8622 89.1264 71.1145 88.1228 70.8265C87.1643 71.6217 86.5723 73.4303 86.5723 74.8079C85.988 75.9231 83.1734 74.2136 83.8345 73.6271C84.4398 73.0907 86.4528 70.4593 86.7608 69.7962C87.0555 69.1595 86.8643 68.6232 86.3838 68.1397ZM68.8531 62.6999C67.8973 62.869 66.9415 63.1729 66.1503 62.5494C65.5503 62.0765 65.083 62.0606 64.5998 62.5705C63.8379 62.1319 63.8379 62.1319 63.6812 61.416C63.5193 60.6789 62.9883 60.4358 62.3352 60.7872C61.9157 61.0118 61.682 61.342 61.6422 61.7964C62.2821 62.6973 62.8662 63.6088 63.5432 64.4489C64.1458 65.1992 64.6928 65.1781 65.3963 64.4806C65.5477 64.33 65.6123 64.117 65.8366 63.9835C66.2354 63.7462 66.8258 63.8822 66.9134 64.2896C67.0155 64.7638 66.5351 65.1256 66.7596 65.5142C66.9841 65.9029 67.6345 66.2692 68.1177 65.9363C68.6991 65.5347 68.8504 64.869 69.0814 64.2587C69.2699 63.7488 69.3257 63.2468 68.8531 62.6999ZM55.9792 79.6823C56.4013 80.3613 56.712 80.9372 57.0996 81.4577C57.3545 81.7985 57.6784 82.1472 58.0527 82.3242C58.4324 82.5039 58.9501 82.5514 59.2554 82.1181C59.4997 81.7694 59.3988 81.3995 59.205 81.0085C58.6209 79.8381 57.4553 79.6744 56.3934 79.3415C56.3058 79.315 56.1385 79.5449 55.9792 79.6823ZM75.0099 68.6364C75.1002 68.8636 75.1294 69.1489 75.2887 69.2942C75.6737 69.6456 76.0985 69.96 76.5392 70.24C77.4313 70.8107 78.2198 70.5729 78.6791 69.6007C78.7614 69.4289 78.7853 69.1146 78.6844 68.9957C78.5384 68.8239 78.2304 68.6549 78.0313 68.6945C77.6622 68.7658 77.3197 68.9877 77.0012 69.1304C76.3374 68.9402 75.9073 68.0816 75.0099 68.6364ZM73.7993 70.8926C73.0479 70.8741 72.6497 71.561 72.9497 72.1871C73.1833 72.6759 74.2533 73.2624 74.8002 73.2016C75.4374 73.1303 75.7693 72.5121 75.4241 71.9599C75.0338 71.3364 74.3595 71.1145 73.7993 70.8926ZM66.2326 57.9365C65.6724 58.2483 65.2131 58.5046 64.6901 58.7952C65.3193 59.4636 65.9725 59.2628 66.6707 59.21C66.8486 58.8718 67.1167 58.5442 67.1831 58.1796C67.2654 57.7331 67.2309 57.2444 67.1513 56.7926C67.0796 56.3804 66.7212 56.2404 66.3362 56.3646C65.9512 56.4914 65.8078 56.7899 65.9512 57.1889C66.0282 57.3923 66.1052 57.5931 66.2326 57.9365ZM62.375 59.2681C62.8688 58.5231 63.0892 57.8863 62.5024 57.1836C61.5387 58.029 61.5015 58.4174 62.375 59.2681Z" fill="black"/>
<path d="M68.4677 88.5075C67.0526 89.1891 66.649 89.1389 66.0225 88.3199C65.6216 87.7941 65.7862 86.8378 66.3596 86.497C66.495 86.4177 66.7366 86.3516 66.8455 86.4203C67.3207 86.7109 67.8305 86.9936 68.1942 87.4005C68.4119 87.6435 68.3801 88.1085 68.4677 88.5075Z" fill="black"/>
<path d="M70.3792 90.8276C70.0792 90.8276 69.8137 90.8725 69.5695 90.8196C69.0172 90.6955 68.842 90.3784 69.0491 89.8527C69.1924 89.4881 69.3677 89.1209 69.6066 88.8171C69.742 88.6453 70.0659 88.4842 70.2544 88.5291C70.4509 88.574 70.65 88.8514 70.7376 89.0681C70.9022 89.4828 70.804 89.8395 70.3792 90.8276Z" fill="black"/>
<path d="M64.3676 83.4717C64.7022 83.8653 64.9703 84.1797 65.2863 84.5522C64.7739 84.8587 64.3836 85.2682 63.8526 84.8085C63.5207 84.5205 63.6322 84.2273 64.3676 83.4717Z" fill="black"/>
</g>
<defs>
<clipPath id="clip0">
<rect x="39.6875" y="27.8594" width="55.2948" height="81.6172" fill="white"/>
</clipPath>
</defs>
</svg>
