<svg width="1178" height="448" viewBox="0 0 1178 448" fill="none" xmlns="http://www.w3.org/2000/svg">
<path d="M220.179 427.884C330.36 427.884 419.679 336.662 419.679 224.134C419.679 111.606 330.36 20.3838 220.179 20.3838C109.998 20.3838 20.6787 111.606 20.6787 224.134C20.6787 336.662 109.998 427.884 220.179 427.884Z" fill="white"/>
<path fill-rule="evenodd" clip-rule="evenodd" d="M220.179 40.3838C121.439 40.3838 40.6787 122.252 40.6787 224.134C40.6787 326.016 121.439 407.884 220.179 407.884C318.918 407.884 399.679 326.016 399.679 224.134C399.679 122.252 318.918 40.3838 220.179 40.3838ZM0.678711 224.134C0.678711 100.96 98.5569 0.383789 220.179 0.383789C341.801 0.383789 439.679 100.96 439.679 224.134C439.679 347.308 341.801 447.884 220.179 447.884C98.5569 447.884 0.678711 347.308 0.678711 224.134Z" fill="#006EFF"/>
<path d="M509.316 173.884V95.0952H534.792V84.6563H471.91V95.0952H497.386V173.884H509.316Z" fill="white"/>
<path d="M616.516 173.884V84.6563H604.71V122.187H561.339V84.6563H549.409V173.884H561.339V132.998H604.71V173.884H616.516Z" fill="white"/>
<path d="M695.134 173.884V163.445H651.266V132.75H681.34V122.559H651.266V95.0952H693.146V84.6563H639.336V173.884H695.134Z" fill="white"/>
<path d="M789.436 145.425C785.708 159.22 778.251 164.812 767.564 164.812C752.03 164.812 744.698 152.509 744.698 128.773C744.698 106.777 753.521 93.6039 767.937 93.6039C777.878 93.6039 784.465 98.8234 788.317 111.996L799.378 109.759C794.655 90.8699 784.465 83.165 768.061 83.165C746.313 83.165 732.892 99.8175 732.892 128.773C732.892 157.853 743.828 175.375 767.44 175.375C783.346 175.375 795.277 168.664 800.745 147.911L789.436 145.425Z" fill="white"/>
<path d="M881.267 173.884L860.265 132.377C870.828 128.897 877.415 121.565 877.415 109.387C877.415 93.2311 867.224 84.6563 844.11 84.6563H816.521V173.884H828.451V135.484H848.956L867.846 173.884H881.267ZM828.451 125.169V95.0952H845.104C854.673 95.0952 865.485 96.7107 865.485 110.008C865.485 123.926 852.187 125.169 844.483 125.169H828.451Z" fill="white"/>
<path d="M927.294 173.884V137.224L955.752 84.6563H943.076L921.328 125.666H921.08L900.699 84.6563H887.651L915.363 137.224V173.884H927.294Z" fill="white"/>
<path d="M979.908 173.884V136.851H994.448C1017.19 136.851 1028.62 128.4 1028.62 110.505C1028.62 92.9826 1017.56 84.6563 995.442 84.6563H967.978V173.884H979.908ZM979.908 126.66V95.0952H996.437C1009.86 95.0952 1016.82 99.9418 1016.82 110.505C1016.82 125.045 1004.76 126.66 995.318 126.66H979.908Z" fill="white"/>
<path d="M1073.76 173.884V95.0952H1099.24V84.6563H1036.35V95.0952H1061.83V173.884H1073.76Z" fill="white"/>
<path d="M1140.91 175.375C1163.78 175.375 1177.32 157.728 1177.32 129.27C1177.32 102.676 1164.89 83.165 1140.91 83.165C1116.93 83.165 1104.37 102.676 1104.37 129.27C1104.37 157.728 1117.92 175.375 1140.91 175.375ZM1140.91 165.185C1125.62 165.185 1116.18 151.888 1116.18 129.27C1116.18 106.528 1125.62 93.2311 1140.91 93.2311C1156.07 93.2311 1165.52 106.528 1165.52 129.27C1165.52 151.888 1156.2 165.185 1140.91 165.185Z" fill="white"/>
<path d="M573.639 331.276V237.54H548.835L527.685 307.646H527.424L507.058 237.54H481.992V331.276H498.572V260.126H498.833L520.244 331.276H535.257L556.537 260.126H556.798V331.276H573.639Z" fill="white"/>
<path d="M656.324 331.276V316.132H612.329V290.283H642.747V275.661H612.329V252.684H654.888V237.54H594.312V331.276H656.324Z" fill="white"/>
<path d="M742.629 331.276L722.133 288.716C732.055 284.669 738.452 276.836 738.452 264.564C738.452 246.679 726.833 237.54 702.028 237.54H670.043V331.276H688.059V293.677H705.553L722.655 331.276H742.629ZM688.059 279.056V252.684H703.072C710.905 252.684 720.305 254.12 720.305 265.739C720.305 277.75 708.947 279.056 702.158 279.056H688.059Z" fill="white"/>
<path d="M809.359 299.944C805.964 312.869 798.784 317.699 789.776 317.699C776.198 317.699 769.279 306.733 769.279 283.625C769.279 262.606 777.243 250.857 790.167 250.857C799.045 250.857 805.181 255.295 808.445 267.567L825.155 264.434C820.717 244.459 809.359 235.974 790.429 235.974C766.407 235.974 751.263 253.206 751.263 283.625C751.263 314.696 764.449 332.843 789.254 332.843C806.356 332.843 820.064 326.838 826.461 303.86L809.359 299.944Z" fill="white"/>
<path d="M914.528 331.276V237.54H896.512V274.878H858.391V237.54H840.244V331.276H858.391V290.936H896.512V331.276H914.528Z" fill="white"/>
<path d="M1007.68 331.276L979.352 237.54H954.939L926.74 331.276H944.886L951.675 306.602H981.963L988.752 331.276H1007.68ZM966.688 252.423H966.95L977.785 291.589H955.853L966.688 252.423Z" fill="white"/>
<path d="M1094.56 331.276V237.54H1077.71V300.205H1077.45L1042.2 237.54H1019.88V331.276H1036.85V262.737H1037.11L1076.8 331.276H1094.56Z" fill="white"/>
<path d="M1151.02 331.276V252.684H1176.47V237.54H1107.67V252.684H1133V331.276H1151.02Z" fill="white"/>
<g clip-path="url(#clip0)">
<path d="M273.457 273.184C270.86 275.696 270.592 276.498 271.973 278.768C272.62 279.821 273.604 280.727 274.579 281.512C275.459 282.22 276.84 282.453 277.47 283.29C280.119 286.819 283.916 289.443 285.711 293.602C286.557 295.561 287.636 297.08 289.646 297.865C291.346 298.53 292.347 299.824 293.098 301.472C296.024 307.858 299.631 313.856 303.609 319.629C305.827 322.857 307.346 326.326 307.941 330.235C308.407 333.29 307.7 335.724 305.542 338.062C301.236 342.74 295.817 345.51 290.035 347.65C282.268 350.532 274.51 353.475 266.32 355.02C264.499 355.365 262.687 355.744 260.849 355.986C255.335 356.728 249.82 357.988 244.306 357.971C237.929 357.954 231.465 357.22 225.183 356.038C212.005 353.561 199.061 350.032 186.263 346.019C181.223 344.44 176.123 343.033 171.187 341.186C166.389 339.391 161.807 337.027 157.052 335.102C151.977 333.057 147.404 330.183 142.985 327.025C138.265 323.651 134.321 319.465 131.724 314.305C129.79 310.465 129.186 306.236 130.049 301.835C130.921 297.391 132.716 293.456 135.296 289.779C138.826 284.765 142.157 279.622 145.704 274.617C148.5 270.665 151.546 266.876 154.359 262.932C155.343 261.552 156.145 259.981 156.698 258.385C157.733 255.433 158.519 252.396 159.425 249.392C160.072 247.252 161.945 246.407 163.662 247.813C165.172 249.047 166.194 250.1 168.179 250.264C169.206 250.35 171.213 251.265 172.179 251.973C172.101 252.258 171.368 252.542 171.291 252.827C169.159 253.043 166.173 252.384 164.87 253.483C164.442 253.844 164.482 254.674 164.646 254.898C167.105 258.074 169.675 260.914 173.679 261.384C175.418 261.588 176.063 261.534 177.133 260.861C178.082 260.266 178.679 258.385 178.679 258.385C178.679 258.385 178.375 250.747 176.52 247.011C175.942 245.854 175.985 244.154 176.313 242.834C176.839 240.668 175.925 239.598 174.095 238.718C172.43 239.382 170.436 239.727 169.073 240.849C167.787 241.911 167.166 243.792 166.173 245.44C165.179 240.849 165.774 241.248 165.679 239.384C164.764 236.924 162.687 236.482 160.745 234.455C157.906 231.486 157.638 227.68 160.21 224.453C160.831 223.676 161.582 222.986 162.298 222.287C163.731 220.88 165.189 219.508 166.622 218.101C169.332 215.469 170.669 212.268 170.6 208.488C170.592 208.203 170.54 207.901 170.609 207.634C171.964 201.679 169.323 196.734 166.553 191.858C165.793 190.521 164.766 189.252 163.636 188.208C160.771 185.567 158.777 185.533 155.619 187.794C151.917 190.443 150.277 189.96 146.489 187.544C140.88 183.954 139.43 179.501 141.406 173.296C142.39 170.207 142.347 166.798 143.115 163.614C144.185 159.187 145.402 154.76 146.946 150.479C147.593 148.684 149.138 147.157 150.476 145.698C152.599 143.377 154.868 141.176 157.121 138.967C160.909 135.265 164.3 131.244 167.537 127.041C171.498 121.915 176.546 117.825 181.957 114.364C188.558 110.136 195.376 106.226 202.245 102.429C209.278 98.5459 216.743 95.586 224.751 94.5677C234.511 93.325 244.315 92.462 254.101 91.4696C258.813 90.9864 263.145 92.4103 267.382 94.257C271.179 95.9053 275.036 97.4327 278.825 99.1069C279.972 99.616 281.163 100.255 282.018 101.135C285.211 104.423 286.85 108.565 287.506 113.001C288.015 116.452 285.91 119.49 282.63 120.698C281.431 121.138 280.145 121.337 278.911 121.717C276.141 122.571 275.183 124.927 276.754 127.378C280.62 133.401 283.14 140.037 285.711 146.656C286.125 147.718 286.333 148.995 287.057 149.78C290.043 153.025 290.388 157.279 291.588 161.189C291.89 162.19 291.588 163.476 291.277 164.546C290.078 168.671 291.329 171.984 294.073 175.126C296.395 177.784 298.311 180.804 300.442 183.634C302.565 186.465 304.61 189.373 306.906 192.066C311.005 196.855 309.969 201.42 304.049 203.897C300.968 205.191 299.916 205.846 300.442 209.384C300.848 212.137 300.577 213.847 299.679 216.384C297.746 216.384 296 216.306 294.179 216.384C292.384 216.462 290.458 218.675 290.794 220.884C295.575 220.384 295.781 221.401 297.679 221.884C299.207 225.18 300.295 227.827 301.547 230.856C302.194 232.418 302.565 234.127 302.876 235.801C303.368 238.433 303.713 241.099 304.161 243.964C303.135 244.871 301.806 246.044 300.485 247.209C302.496 250.575 304.386 247.684 306.241 247.52C307.889 249.479 307.354 251.722 307.121 253.742C306.681 257.547 305.87 261.31 305.249 265.09C304.947 266.928 303.635 267.748 302.082 268.188C301.141 268.455 300.088 268.317 299.104 268.455C297.404 268.688 296.179 269.379 296.006 271.381C295.929 272.33 295.523 273.357 294.962 274.125C293.909 275.566 291.959 275.86 289.905 275.048C288.602 274.531 287.42 273.495 285.875 274.211C281.526 276.239 277.297 276.084 273.457 273.184ZM206.56 277.447C206.681 280.71 207.889 282.936 210.046 284.558C212.514 286.414 213.628 288.562 211.91 291.41C214.24 294.646 217.848 295.604 220.756 297.494C222.119 298.383 223.327 298.996 223.854 300.644C224.674 303.207 226.365 304.959 228.945 305.77C230.024 304.579 230.956 303.544 231.853 302.551C233.985 303.138 234.779 304.432 234.779 306.279C233.666 307.565 232.656 308.721 231.733 309.783C232.112 311.345 233.027 311.949 234.27 311.966C235.556 311.983 236.85 311.914 238.119 311.75C240.785 311.405 241.553 310.689 241.942 308.048C242.218 306.184 242.442 304.355 244.323 303.19C246.006 303.897 247.689 304.614 249.38 305.33C249.38 308.221 250.114 311.328 249.19 313.804C248.095 316.747 245.566 319.146 243.78 321.614C241.803 321.795 240.578 319.465 238.671 320.837C238.645 321.26 238.429 321.838 238.619 322.054C240.233 323.841 241.622 326.291 243.667 327.137C247.447 328.716 248.448 331.823 249.389 335.068C250.416 338.606 251.115 339.452 254.567 339.253C257.682 339.081 260.797 338.727 263.887 338.261C264.672 338.14 265.337 337.277 266.415 336.5C264.491 334.714 262.938 333.264 261.41 331.849C261.074 332.013 260.78 332.082 260.573 332.263C259.65 333.048 258.683 333.67 257.509 332.833C256.215 331.909 256.871 330.874 257.371 329.812C257.535 329.476 257.397 328.992 257.397 328.613C257.19 328.354 257.052 328.052 256.819 327.931C256.327 327.672 255.792 327.422 255.248 327.336C254.403 327.206 253.523 327.31 252.685 327.154C250.494 326.749 249.751 325.075 251.348 323.495C253.643 321.217 254.058 318.214 255.162 315.47C255.878 313.692 255.878 312.191 254.351 310.81C252.452 309.092 252.953 307.082 253.678 304.665C254.394 305.183 254.99 305.408 255.223 305.822C257.466 309.921 259.572 314.098 261.867 318.162C263.11 320.363 263.964 322.494 262.472 325.195C265.121 325.316 266.251 326.87 267.226 328.725C268.555 331.253 270.005 333.722 271.412 336.207C272.068 337.363 273.121 337.674 274.346 337.45C275.658 337.199 276.331 336.319 276.322 335.025C276.313 333.747 276.365 332.401 276.011 331.193C274.45 325.86 272.732 320.57 271.11 315.254C270.195 312.26 268.469 309.895 265.88 308.143C264.931 307.505 263.973 306.883 263.024 306.253C259.995 304.243 258.26 301.671 258.062 297.788C257.846 293.576 257.346 289.175 252.815 286.88C252.323 286.629 252.03 286.017 251.555 285.723C248.034 283.566 244.513 281.391 240.915 279.363C240.431 279.096 239.508 279.622 238.274 279.89C239.87 282.315 241.174 284.317 242.494 286.31C243.046 287.147 244.133 288.002 244.073 288.787C243.857 291.781 246.144 293.697 246.947 296.148C246.067 297.865 245.247 299.47 244.392 301.127C242.52 299.807 240.889 298.461 239.085 297.434C235.271 295.251 234.762 294.388 235.245 289.866C235.512 287.354 234.011 285.784 231.517 286.103C230.568 286.224 229.662 286.612 228.721 286.88C226.779 284.964 224.527 283.678 223.509 281.098C223.129 280.123 222.111 279.13 221.144 278.707C218.581 277.577 218.331 275.825 219.271 274.056C218.011 272.554 217.045 271.355 216.027 270.216C215.371 269.482 214.698 268.317 213.912 268.214C211.686 267.92 211.073 266.03 209.839 264.598C208.597 264.477 207.337 264.356 206.249 264.253C204.963 262.501 203.824 260.948 202.642 259.334C203.16 257.988 203.747 256.477 204.342 254.933C203.479 254.389 203.03 253.889 202.53 253.819C199.725 253.466 197.516 251.964 195.402 250.264C193.857 249.021 192.338 247.736 190.828 246.441C189.603 245.388 188.274 245.112 186.902 245.984C185.771 246.7 184.917 247.753 185.21 249.203C185.4 250.16 185.78 251.127 186.289 251.973C187.316 253.681 188.507 255.295 189.585 256.969C190.586 258.523 191.829 259.463 193.814 259.299C195.911 259.127 197.697 259.808 198.966 261.828C198.457 262.596 197.715 263.252 197.594 264.002C197.421 265.029 197.404 266.341 197.922 267.126C198.301 267.696 199.665 267.774 200.588 267.774C201.365 267.774 202.142 267.342 203.376 266.962C203.583 268.197 204.092 269.232 203.816 269.94C202.789 272.52 200.493 270.104 198.698 271.027C198.543 271.7 197.982 272.71 198.275 273.228C198.793 274.151 199.717 275.031 200.683 275.471C202.513 276.265 204.454 276.748 206.56 277.447ZM241.179 142.436C243.184 143.384 244.684 143.957 245.679 144.775C247.811 146.527 248.284 145.526 247.326 148.287C246.619 150.307 246.817 152.542 248.103 154.483C250.338 157.858 249.726 161.275 248.267 164.718C246.533 168.835 244.246 172.571 241.251 175.928C237.834 179.751 239.327 185.714 244.177 186.879C249.7 188.2 253.928 191.41 258.139 194.853C260.659 196.915 263.283 198.857 266.139 201.075C269.203 199.168 272.214 197.545 274.924 195.517C276.667 194.214 277.694 192.342 276.538 189.865C275.476 187.587 273.828 186.689 271.438 186.776C270.299 186.819 269.134 186.922 268.012 186.776C266.364 186.56 264.948 185.205 265.475 183.988C266.493 181.65 265.078 180.536 263.8 179.199C263.11 178.474 262.351 177.801 261.747 177.007C260.34 175.151 260.409 173.84 261.945 172.088C263.257 170.578 264.534 169.033 265.941 167.618C269.703 163.847 273.932 161.163 279.61 161.983C280.456 162.103 281.327 162.086 282.182 162.069C285.098 162.017 286.678 160.429 286.548 157.547C286.41 154.406 284.917 152.335 281.923 151.006C277.125 148.874 273.5 145.733 273.638 139.735C273.699 137.267 272.309 136.266 269.764 136.223C268.918 136.214 268.046 136.283 267.226 136.491C261.376 137.923 255.412 138.286 249.432 138.562C247.905 138.605 244.179 140.884 241.179 142.436ZM255.361 129.311C254.066 128.56 253.341 127.852 252.513 127.714C251.262 127.498 249.95 127.662 248.664 127.697C246.636 127.749 244.807 127.576 243.184 125.954C241.493 124.262 239.215 124.651 237.135 125.367C231.215 127.421 225.304 129.475 219.444 131.684C218.193 132.158 216.959 133.065 216.096 134.1C214.007 136.603 211.936 139.174 210.236 141.953C208.027 145.56 205.335 147.77 200.847 147.2C198.698 146.924 197.378 148.192 196.731 150.194C196.42 151.144 196.04 152.067 195.79 153.034C195.065 155.804 196.247 157.236 199.044 156.874C200.001 156.744 200.977 156.373 201.831 155.899C204.92 154.164 207.915 152.266 211.039 150.591C212.394 149.867 213.938 149.297 215.448 149.09C219.617 148.512 223.396 147.079 226.9 144.775C228.315 143.843 229.981 143.291 231.457 142.436C236.367 139.589 241.743 137.638 246.481 134.445C248.353 133.185 250.459 132.279 252.444 131.183C253.272 130.7 254.023 130.156 255.361 129.311ZM276.124 307.427C275.986 309.162 277.548 310.49 276.572 312.398C276.02 313.476 276.624 314.866 278.005 314.987C279.817 315.151 280.205 316.549 281.017 317.67C282.009 319.042 282.898 320.63 284.218 321.588C285.918 322.814 287.825 323.556 289.077 325.523C290.138 327.189 292.261 326.542 293.098 324.652C293.892 322.848 293.314 321.278 292.382 319.793C289.974 315.936 287.575 312.061 285.038 308.29C283.295 305.701 281.569 303.017 279.394 300.817C276.201 297.581 273.026 294.362 270.178 290.806C268.624 288.873 266.441 287.674 263.878 287.631C262.256 287.605 260.116 286.957 259.373 289.072C258.752 290.832 260.029 292.291 261.186 293.594C262.687 295.294 264.025 297.175 265.665 298.72C268.832 301.705 271.196 305.667 276.124 307.427ZM288.887 171.268C283.433 173.27 280.723 177.689 281.655 182.547C282.561 187.302 282.786 191.876 279.955 196.139C279.576 196.708 279.541 197.494 279.325 198.175C278.877 199.582 279.446 200.324 281.129 200.669C281.759 199.867 283.058 199.09 283.679 198.175C284.551 196.89 284.866 195.535 285.59 194.163C286.79 191.91 290.794 192.618 290.794 192.618C290.794 192.618 284.679 195.74 292.114 199.168C293.323 197.735 294.479 196.363 295.575 195.06C298.44 194.016 302.608 196.268 303.816 191.807C298.759 184.86 293.84 178.086 288.887 171.268ZM281.465 222.96C277.297 223.642 278.229 227.119 277.694 229.656C276.797 230.036 276.055 230.347 274.941 230.821C274.76 228.854 276.805 226.325 273.155 225.713C272.318 227.016 271.429 228.405 270.342 230.105C268.952 228.94 267.692 227.879 266.433 226.817C265.095 227.499 264.62 228.776 265.613 229.613C267.701 231.365 275.179 237.384 278.599 234.384C280.679 235.884 273.818 243.007 272.679 243.714C271.238 242.661 262.713 236.715 261.626 235.913C259.684 238.165 262.661 239.037 262.497 240.607C262.04 241.971 259.814 242.782 261.514 244.871C265.242 243.429 268.996 241.98 273.267 240.331C274.484 241.272 276.236 242.29 277.548 243.714C278.868 245.155 280.257 245.492 282.078 244.741C282.846 248.046 285.366 248.754 288.076 249.85C288.516 248.84 289.06 248.02 289.215 247.123C289.655 244.638 286.505 244.871 286.048 243.274C285.53 239.926 288.43 239.261 289.966 237.837C290.207 235.119 290.38 232.677 287.118 231.736C284.003 234.334 282.078 240.241 282.078 244.741C280.179 248.384 271.03 242.8 273.179 240.884C275.147 239.132 281.69 230.537 282.691 228.371C283.649 226.291 283.027 224.539 281.465 222.96ZM224.484 205.191C221.377 205.744 218.27 206.736 215.699 204.699C213.748 203.155 212.23 203.103 210.659 204.768C208.182 203.336 208.182 203.336 207.673 200.997C207.147 198.59 205.421 197.796 203.298 198.943C201.934 199.677 201.175 200.756 201.046 202.24C203.125 205.183 205.024 208.16 207.224 210.904C209.183 213.355 210.961 213.286 213.248 211.008C213.74 210.516 213.95 209.82 214.679 209.384C215.975 208.609 217.894 209.053 218.179 210.384C218.511 211.933 216.95 213.114 217.679 214.384C218.409 215.653 220.523 216.85 222.093 215.763C223.983 214.451 224.475 212.276 225.226 210.283C225.839 208.617 226.02 206.978 224.484 205.191ZM182.639 260.663C184.011 262.881 185.02 264.762 186.28 266.462C187.109 267.575 188.161 268.714 189.378 269.292C190.612 269.879 192.295 270.035 193.288 268.619C194.081 267.48 193.754 266.272 193.124 264.995C191.225 261.172 187.437 260.637 183.985 259.55C183.7 259.463 183.156 260.214 182.639 260.663ZM244.496 224.582C244.789 225.324 244.884 226.256 245.402 226.731C246.653 227.879 248.034 228.906 249.467 229.82C252.366 231.684 254.929 230.908 256.422 227.732C256.69 227.171 256.767 226.144 256.439 225.756C255.965 225.195 254.964 224.643 254.316 224.772C253.117 225.005 252.004 225.73 250.968 226.196C248.811 225.575 247.413 222.77 244.496 224.582ZM240.561 231.952C238.119 231.891 236.824 234.135 237.799 236.18C238.559 237.777 242.036 239.693 243.814 239.494C245.885 239.261 246.964 237.242 245.842 235.438C244.574 233.402 242.382 232.677 240.561 231.952ZM215.966 189.632C214.145 190.65 212.652 191.487 210.952 192.437C212.998 194.62 215.121 193.964 217.39 193.792C217.968 192.687 218.84 191.617 219.056 190.426C219.323 188.968 219.211 187.371 218.952 185.895C218.719 184.549 217.554 184.092 216.303 184.497C215.052 184.912 214.586 185.887 215.052 187.19C215.302 187.854 215.552 188.51 215.966 189.632ZM203.427 193.981C205.032 191.548 205.749 189.468 203.842 187.173C200.709 189.934 200.588 191.203 203.427 193.981Z" fill="black"/>
<path d="M223.225 289.486C218.625 291.713 217.314 291.549 215.277 288.874C213.974 287.156 214.509 284.033 216.373 282.919C216.813 282.66 217.598 282.445 217.952 282.669C219.497 283.618 221.154 284.542 222.336 285.871C223.044 286.665 222.94 288.183 223.225 289.486Z" fill="black"/>
<path d="M229.438 297.063C228.463 297.063 227.6 297.21 226.806 297.038C225.011 296.632 224.442 295.596 225.115 293.879C225.581 292.688 226.15 291.489 226.927 290.496C227.367 289.935 228.42 289.409 229.032 289.556C229.671 289.702 230.318 290.608 230.603 291.316C231.138 292.671 230.819 293.836 229.438 297.063Z" fill="black"/>
<path d="M209.9 273.039C210.988 274.324 211.859 275.351 212.886 276.568C211.221 277.569 209.952 278.907 208.226 277.405C207.148 276.465 207.51 275.507 209.9 273.039Z" fill="black"/>
</g>
<defs>
<clipPath id="clip0">
<rect x="129.679" y="91.3838" width="179.73" height="266.596" fill="white"/>
</clipPath>
</defs>
</svg>
