<svg viewBox="0 0 98 46" xmlns="http://www.w3.org/2000/svg"><g fill="#000"><path d="m9.43635.233765c-3.75559 0-6.79493 3.027785-6.79493 6.769105v2.537c-1.31882.23784-2.64142.55493-2.64142.96643v13.24s0 .3662.413077.5399c1.496933.604 7.386123 2.6804 8.739043 3.1561.17433.0642.22359.0642.26907.0642.06442 0 .09474 0 .26907-.0642 1.35294-.4757 7.25724-2.5521 8.75424-3.1561.3827-.1586.3979-.5248.3979-.5248v-13.2551c0-.4115-1.3037-.74369-2.6263-.96643v-2.537c.019-3.74132-3.0393-6.769105-6.77975-6.769105zm0 3.235425c2.21315 0 3.55095 1.33268 3.55095 3.53745v2.20478c-2.4823-.17367-4.6007-.17367-7.09811 0v-2.20478c0-2.20854 1.33776-3.53745 3.54716-3.53745zm-.01516 8.98901c3.08861 0 5.68071.2378 5.68071.6644v8.2604c0 .1283-.0151.1434-.1288.1887-.1099.0491-5.26768 1.9028-5.26768 1.9028s-.20844.0642-.26907.0642c-.06443 0-.26907-.0793-.26907-.0793s-5.15778-1.8537-5.26768-1.9028-.12885-.0642-.12885-.1887v-8.2604c-.03032-.4266 2.56184-.6493 5.65044-.6493z"/><path d="m27.6063 21.4956v-9.0459h-3.3177v-3.24377h10.3444v3.24377h-3.2851v9.0459z"/><path d="m43.0138 21.4956-1.7023-3.8644h-1.3546v3.8644h-3.7416v-12.28967h6.5848c2.8904 0 4.4406 1.90877 4.4406 4.21077 0 2.1217-1.2315 3.2438-2.2203 3.7273l2.2348 4.348h-4.2414zm.4419-8.0789c0-.6675-.594-.9561-1.217-.9561h-2.2818v1.9412h2.2818c.623-.0144 1.217-.3031 1.217-.9851z"/><path d="m49.2041 21.4956v-12.28967h9.3557v3.24377h-5.6286v1.2124h5.4909v3.2438h-5.4909v1.3495h5.6286v3.2402z"/><path d="m60.5054 21.5098v-2.9551l4.7013-6.0907h-4.7013v-3.24385h9.6272v2.92625l-4.7158 6.1232h4.8535v3.2438z"/><path d="m71.1821 15.3723c0-3.7742 2.9375-6.36491 6.755-6.36491 3.8031 0 6.755 2.57631 6.755 6.36491 0 3.7742-2.9374 6.3505-6.755 6.3505-3.8175 0-6.755-2.5763-6.755-6.3505zm9.707 0c0-1.7139-1.1699-3.0778-2.9665-3.0778-1.7965 0-2.9664 1.3639-2.9664 3.0778s1.1699 3.0778 2.9664 3.0778c1.811 0 2.9665-1.3639 2.9665-3.0778z"/><path d="m93.0558 21.5098-1.7023-3.8644h-1.3547v3.8644h-3.7415v-12.28965h6.5848c2.8904 0 4.4406 1.90875 4.4406 4.21085 0 2.1216-1.2315 3.2438-2.2203 3.7273l2.2348 4.3479h-4.2414zm.4564-8.0933c0-.6675-.594-.9561-1.217-.9561h-2.2819v1.9412h2.2819c.6266-.0144 1.217-.3031 1.217-.9851z"/><path d="m11.2725 42.3632h-3.34799l-.7068 1.6368h-.9765l2.9481-6.6216h.8091l2.95739 6.6216h-.9765zm-.3255-.7626-1.34849-3.1527-1.3485 3.1527z"/><path d="m17.8031 39.3128v4.6872h-.9114v-.7812c-.1488.2728-.3534.4836-.6138.6324-.2604.1426-.5549.2139-.8835.2139-1.1284 0-1.6926-.6262-1.6926-1.8786v-2.8737h.93v2.8644c0 .3844.0775.6696.2325.8556.1612.1798.403.2697.7254.2697.3844 0 .6913-.124.9207-.372.2356-.248.3534-.5766.3534-.9858v-2.6319z"/><path d="m20.3972 40.0382v2.3529c0 .3224.0682.5518.2046.6882.1426.1302.3379.1953.5859.1953.1612 0 .3255-.0248.4929-.0744v.7626c-.2046.0682-.4371.1023-.6975.1023-.4836 0-.8587-.1364-1.1253-.4092s-.3999-.6696-.3999-1.1904v-2.4273h-.9114v-.7254h.9114v-1.1718l.9393-.3255v1.4973h1.2927v.7254z"/><path d="m25.0498 39.2012c1.1222 0 1.6833.6262 1.6833 1.8786v2.9202h-.9393v-2.8644c0-.4092-.0806-.7068-.2418-.8928-.155-.186-.4061-.279-.7533-.279-.3968 0-.7161.124-.9579.372-.2356.248-.3534.5797-.3534.9951v2.6691h-.93v-6.8448h.93v2.883c.155-.2728.3689-.4805.6417-.6231s.5797-.2139.9207-.2139z"/><path d="m30.0883 44.0651c-.4588 0-.8618-.0992-1.209-.2976s-.6169-.4805-.8091-.8463c-.186-.3658-.279-.7936-.279-1.2834s.093-.9176.279-1.2834c.1922-.372.4619-.6572.8091-.8556s.7502-.2976 1.209-.2976c.4526 0 .8525.0992 1.1997.2976s.6138.4836.7998.8556c.1922.3658.2883.7936.2883 1.2834s-.0961.9176-.2883 1.2834c-.186.3658-.4526.6479-.7998.8463s-.7471.2976-1.1997.2976zm-.0093-.744c.434 0 .7657-.1426.9951-.4278s.3441-.7037.3441-1.2555c0-.5394-.1178-.9548-.3534-1.2462-.2294-.2914-.5549-.4371-.9765-.4371-.4278 0-.7595.1457-.9951.4371s-.3534.7068-.3534 1.2462c0 .5518.1147.9703.3441 1.2555.2356.2852.5673.4278.9951.4278z"/><path d="m35.8083 39.2012c.1426 0 .2914.0217.4464.0651l-.0186.8556c-.1674-.062-.3503-.093-.5487-.093-.4278 0-.7502.1302-.9672.3906-.2108.2542-.3162.5766-.3162.9672v2.6133h-.93v-3.3666c0-.4898-.0248-.93-.0744-1.3206h.8742l.0837.8463c.124-.31.3162-.5456.5766-.7068.2604-.1674.5518-.2511.8742-.2511z"/><path d="m36.9706 39.3128h.93v4.6872h-.93zm1.0044-2.046v.9858h-1.0881v-.9858z"/><path d="m43.0625 43.2746v.7254h-4.0083v-.651l2.7714-3.3108h-2.697v-.7254h3.8316v.6603l-2.7714 3.3015z"/><path d="m48.0263 41.675h-3.348c.031 1.0974.5301 1.6461 1.4973 1.6461.5394 0 1.0323-.1767 1.4787-.5301l.2883.6696c-.2108.186-.4805.3348-.8091.4464-.3224.1054-.6479.1581-.9765.1581-.7502 0-1.3392-.2139-1.767-.6417-.4278-.434-.6417-1.0261-.6417-1.7763 0-.4774.093-.9021.279-1.2741.1922-.372.4588-.6603.7998-.8649s.7285-.3069 1.1625-.3069c.6324 0 1.1284.2046 1.488.6138.3658.4092.5487.9765.5487 1.7019zm-2.0181-1.7763c-.3534 0-.6417.1054-.8649.3162s-.3658.5115-.4278.9021h2.4831c-.0372-.3968-.1581-.6975-.3627-.9021-.2046-.2108-.4805-.3162-.8277-.3162z"/><path d="m53.3915 37.1552v6.8448h-.93v-.7998c-.1364.279-.341.4929-.6138.6417-.2666.1488-.5797.2232-.9393.2232-.403 0-.7626-.1023-1.0788-.3069s-.5642-.4898-.744-.8556c-.1736-.372-.2604-.7998-.2604-1.2834s.0868-.9083.2604-1.2741.4154-.6479.7254-.8463c.3162-.1984.682-.2976 1.0974-.2976.3534 0 .6634.0744.93.2232.2728.1488.4774.3596.6138.6324v-2.9016zm-2.2692 6.1659c.4278 0 .7564-.1457.9858-.4371.2356-.2976.3534-.713.3534-1.2462s-.1178-.9455-.3534-1.2369c-.2294-.2976-.5549-.4464-.9765-.4464-.4278 0-.7626.1457-1.0044.4371-.2356.2914-.3534.7006-.3534 1.2276 0 .5332.1178.9517.3534 1.2555.2418.2976.5735.4464.9951.4464z"/><path d="m62.6448 44h-1.0137l-.8277-2.2041c-.0868-.2356-.2139-.3968-.3813-.4836-.1674-.093-.3968-.1395-.6882-.1395h-1.4508v2.8272h-.9486v-6.6216h2.7249c.7254 0 1.2803.1612 1.6647.4836.3906.3224.5859.7843.5859 1.3857 0 .434-.1147.8029-.3441 1.1067s-.5549.5177-.9765.6417c.3844.0682.6634.341.837.8184zm-2.697-3.5991c.4836 0 .8432-.093 1.0788-.279.2356-.1922.3534-.4774.3534-.8556s-.1178-.6572-.3534-.837c-.2294-.186-.589-.279-1.0788-.279h-1.6647v2.2506z"/><path d="m67.7343 41.675h-3.348c.031 1.0974.5301 1.6461 1.4973 1.6461.5394 0 1.0323-.1767 1.4787-.5301l.2883.6696c-.2108.186-.4805.3348-.8091.4464-.3224.1054-.6479.1581-.9765.1581-.7502 0-1.3392-.2139-1.767-.6417-.4278-.434-.6417-1.0261-.6417-1.7763 0-.4774.093-.9021.279-1.2741.1922-.372.4588-.6603.7998-.8649s.7285-.3069 1.1625-.3069c.6324 0 1.1284.2046 1.488.6138.3658.4092.5487.9765.5487 1.7019zm-2.0181-1.7763c-.3534 0-.6417.1054-.8649.3162s-.3658.5115-.4278.9021h2.4831c-.0372-.3968-.1581-.6975-.3627-.9021-.2046-.2108-.4805-.3162-.8277-.3162z"/><path d="m69.9851 40.0382v2.3529c0 .3224.0682.5518.2046.6882.1426.1302.3379.1953.5859.1953.1612 0 .3255-.0248.4929-.0744v.7626c-.2046.0682-.4371.1023-.6975.1023-.4836 0-.8587-.1364-1.1253-.4092s-.3999-.6696-.3999-1.1904v-2.4273h-.9114v-.7254h.9114v-1.1718l.9393-.3255v1.4973h1.2927v.7254z"/><path d="m76.4326 39.3128v4.6872h-.93v-.7998c-.1364.279-.341.4929-.6138.6417-.2666.1488-.5797.2232-.9393.2232-.4154 0-.7812-.0992-1.0974-.2976-.31-.1984-.5518-.4774-.7254-.837-.1736-.3658-.2604-.7905-.2604-1.2741s.0868-.9114.2604-1.2834c.1798-.372.4278-.6603.744-.8649s.6758-.3069 1.0788-.3069c.3596 0 .6727.0775.9393.2325.2666.1488.4712.3627.6138.6417v-.7626zm-2.2599 4.0083c.4216 0 .7471-.1457.9765-.4371.2356-.2976.3534-.713.3534-1.2462 0-.5394-.1178-.9548-.3534-1.2462-.2294-.2914-.558-.4371-.9858-.4371-.4216 0-.7533.1519-.9951.4557-.2356.2976-.3534.713-.3534 1.2462 0 .527.1178.9362.3534 1.2276.2418.2914.5766.4371 1.0044.4371z"/><path d="m77.8125 39.3128h.93v4.6872h-.93zm1.0044-2.046v.9858h-1.0881v-.9858z"/><path d="m80.1193 37.1552h.93v6.8448h-.93z"/><path d="m86.4252 41.675h-3.348c.031 1.0974.5301 1.6461 1.4973 1.6461.5394 0 1.0323-.1767 1.4787-.5301l.2883.6696c-.2108.186-.4805.3348-.8091.4464-.3224.1054-.6479.1581-.9765.1581-.7502 0-1.3392-.2139-1.767-.6417-.4278-.434-.6417-1.0261-.6417-1.7763 0-.4774.093-.9021.279-1.2741.1922-.372.4587-.6603.7998-.8649.341-.2046.7285-.3069 1.1625-.3069.6324 0 1.1284.2046 1.488.6138.3658.4092.5487.9765.5487 1.7019zm-2.0181-1.7763c-.3535 0-.6417.1054-.8649.3162s-.3658.5115-.4278.9021h2.4831c-.0373-.3968-.1581-.6975-.3627-.9021-.2046-.2108-.4806-.3162-.8277-.3162z"/><path d="m89.8373 39.2012c.1426 0 .2914.0217.4464.0651l-.0186.8556c-.1674-.062-.3503-.093-.5487-.093-.4278 0-.7502.1302-.9672.3906-.2108.2542-.3162.5766-.3162.9672v2.6133h-.93v-3.3666c0-.4898-.0248-.93-.0744-1.3206h.8742l.0837.8463c.124-.31.3162-.5456.5766-.7068.2604-.1674.5518-.2511.8742-.2511z"/></g></svg>