<svg width="98" height="46" viewBox="0 0 98 46" fill="none" xmlns="http://www.w3.org/2000/svg">
<path d="M9.68293 0.233765C5.92734 0.233765 2.888 3.26155 2.888 7.00287V9.53987C1.56919 9.77771 0.246582 10.0948 0.246582 10.5063V23.7463C0.246582 23.7463 0.246582 24.1125 0.659659 24.2862C2.15659 24.8902 8.04578 26.9666 9.3987 27.4423C9.57303 27.5065 9.6223 27.5065 9.66777 27.5065C9.7322 27.5065 9.76251 27.5065 9.93684 27.4423C11.2898 26.9666 17.1941 24.8902 18.691 24.2862C19.0738 24.1276 19.089 23.7614 19.089 23.7614V10.5063C19.089 10.0948 17.7853 9.76261 16.4627 9.53987V7.00287C16.4816 3.26155 13.4234 0.233765 9.68293 0.233765ZM9.68293 3.46919C11.8961 3.46919 13.2339 4.80187 13.2339 7.00664V9.21142C10.7516 9.03775 8.63318 9.03775 6.13577 9.21142V7.00664C6.13577 4.7981 7.47354 3.46919 9.68293 3.46919V3.46919ZM9.66777 12.4582C12.7564 12.4582 15.3485 12.696 15.3485 13.1226V21.383C15.3485 21.5113 15.3334 21.5264 15.2197 21.5717C15.1098 21.6208 9.952 23.4745 9.952 23.4745C9.952 23.4745 9.74357 23.5387 9.68293 23.5387C9.61851 23.5387 9.41386 23.4594 9.41386 23.4594C9.41386 23.4594 4.25608 21.6057 4.14618 21.5566C4.03628 21.5075 4.01733 21.4924 4.01733 21.3679V13.1075C3.98701 12.6809 6.57917 12.4582 9.66777 12.4582V12.4582Z" fill="black"/>
<path d="M27.8529 21.4956V12.4497H24.5352V9.20593H34.8796V12.4497H31.5945V21.4956H27.8529Z" fill="black"/>
<path d="M43.2604 21.4956L41.5581 17.6312H40.2034V21.4956H36.4619V9.20593H43.0467C45.9371 9.20593 47.4873 11.1147 47.4873 13.4167C47.4873 15.5384 46.2558 16.6605 45.267 17.144L47.5018 21.492H43.2604V21.4956ZM43.7023 13.4167C43.7023 12.7492 43.1083 12.4606 42.4853 12.4606H40.2034V14.4018H42.4853C43.1083 14.3874 43.7023 14.0987 43.7023 13.4167Z" fill="black"/>
<path d="M49.4507 21.4956V9.20593H58.8063V12.4497H53.1777V13.6621H58.6687V16.9059H53.1777V18.2554H58.8063V21.4956H49.4507Z" fill="black"/>
<path d="M60.752 21.5098V18.5547L65.4533 12.464H60.752V9.22015H70.3792V12.1464L65.6634 18.2696H70.5169V21.5134L60.752 21.5098V21.5098Z" fill="black"/>
<path d="M71.4287 15.3723C71.4287 11.5981 74.3661 9.00739 78.1837 9.00739C81.9868 9.00739 84.9387 11.5837 84.9387 15.3723C84.9387 19.1465 82.0013 21.7228 78.1837 21.7228C74.3661 21.7228 71.4287 19.1465 71.4287 15.3723V15.3723ZM81.1356 15.3723C81.1356 13.6584 79.9657 12.2945 78.1692 12.2945C76.3727 12.2945 75.2028 13.6584 75.2028 15.3723C75.2028 17.0862 76.3727 18.4501 78.1692 18.4501C79.9802 18.4501 81.1356 17.0862 81.1356 15.3723Z" fill="black"/>
<path d="M93.3024 21.5098L91.6001 17.6454H90.2454V21.5098H86.5039V9.22015H93.0887C95.979 9.22015 97.5293 11.1289 97.5293 13.431C97.5293 15.5526 96.2978 16.6748 95.309 17.1583L97.5437 21.5062H93.3024V21.5098ZM93.7588 13.4165C93.7588 12.749 93.1648 12.4604 92.5418 12.4604H90.2599V14.4016H92.5418C93.1684 14.3872 93.7588 14.0985 93.7588 13.4165Z" fill="black"/>
<path d="M10.8531 43.7829H7.4869L6.77625 45.4286H5.79443L8.75859 38.7709H9.5721L12.5456 45.4286H11.5638L10.8531 43.7829ZM10.5259 43.0161L9.17002 39.8462L7.81417 43.0161H10.5259Z" fill="black"/>
<path d="M17.4193 40.7159V45.4286H16.5029V44.6431C16.3533 44.9174 16.1476 45.1294 15.8858 45.279C15.6239 45.4224 15.3278 45.494 14.9974 45.494C13.8629 45.494 13.2956 44.8644 13.2956 43.6052V40.7159H14.2307V43.5959C14.2307 43.9824 14.3086 44.2691 14.4645 44.4561C14.6265 44.6369 14.8697 44.7273 15.1938 44.7273C15.5803 44.7273 15.8889 44.6026 16.1195 44.3533C16.3564 44.1039 16.4748 43.7735 16.4748 43.3621V40.7159H17.4193Z" fill="black"/>
<path d="M20.0275 41.4452V43.8109C20.0275 44.1351 20.0961 44.3657 20.2332 44.5029C20.3766 44.6338 20.573 44.6992 20.8223 44.6992C20.9844 44.6992 21.1496 44.6743 21.3179 44.6244V45.3912C21.1122 45.4598 20.8784 45.494 20.6166 45.494C20.1304 45.494 19.7532 45.3569 19.4852 45.0826C19.2171 44.8083 19.0831 44.4094 19.0831 43.8857V41.4452H18.1667V40.7159H19.0831V39.5377L20.0275 39.2104V40.7159H21.3273V41.4452H20.0275Z" fill="black"/>
<path d="M24.7055 40.6037C25.8338 40.6037 26.3979 41.2333 26.3979 42.4925V45.4286H25.4535V42.5486C25.4535 42.1372 25.3725 41.8379 25.2104 41.6509C25.0546 41.4639 24.8021 41.3704 24.453 41.3704C24.054 41.3704 23.733 41.4951 23.4899 41.7444C23.253 41.9938 23.1346 42.3273 23.1346 42.745V45.4286H22.1995V38.5465H23.1346V41.4452C23.2904 41.1709 23.5055 40.9621 23.7798 40.8187C24.054 40.6753 24.3626 40.6037 24.7055 40.6037Z" fill="black"/>
<path d="M29.7714 45.494C29.3101 45.494 28.9049 45.3943 28.5558 45.1948C28.2067 44.9953 27.9356 44.7117 27.7423 44.3439C27.5553 43.9761 27.4618 43.546 27.4618 43.0535C27.4618 42.5611 27.5553 42.1309 27.7423 41.7631C27.9356 41.3891 28.2067 41.1024 28.5558 40.9029C28.9049 40.7034 29.3101 40.6037 29.7714 40.6037C30.2265 40.6037 30.6285 40.7034 30.9776 40.9029C31.3267 41.1024 31.5948 41.3891 31.7818 41.7631C31.975 42.1309 32.0717 42.5611 32.0717 43.0535C32.0717 43.546 31.975 43.9761 31.7818 44.3439C31.5948 44.7117 31.3267 44.9953 30.9776 45.1948C30.6285 45.3943 30.2265 45.494 29.7714 45.494ZM29.7621 44.746C30.1984 44.746 30.5319 44.6026 30.7626 44.3159C30.9932 44.0291 31.1085 43.6083 31.1085 43.0535C31.1085 42.5112 30.9901 42.0935 30.7532 41.8005C30.5226 41.5075 30.1953 41.3611 29.7714 41.3611C29.3413 41.3611 29.0078 41.5075 28.7709 41.8005C28.534 42.0935 28.4156 42.5112 28.4156 43.0535C28.4156 43.6083 28.5309 44.0291 28.7615 44.3159C28.9984 44.6026 29.3319 44.746 29.7621 44.746Z" fill="black"/>
<path d="M35.5226 40.6037C35.6659 40.6037 35.8156 40.6255 35.9714 40.6691L35.9527 41.5294C35.7844 41.467 35.6005 41.4359 35.401 41.4359C34.9709 41.4359 34.6467 41.5668 34.4285 41.8286C34.2166 42.0842 34.1106 42.4083 34.1106 42.8011V45.4286H33.1756V42.0437C33.1756 41.5512 33.1506 41.1086 33.1007 40.7159H33.9797L34.0639 41.5668C34.1885 41.2551 34.3818 41.0182 34.6436 40.8561C34.9054 40.6878 35.1984 40.6037 35.5226 40.6037Z" fill="black"/>
<path d="M36.6912 40.7159H37.6262V45.4286H36.6912V40.7159ZM37.701 38.6587V39.6499H36.607V38.6587H37.701Z" fill="black"/>
<path d="M42.8163 44.6992V45.4286H38.7862V44.774L41.5727 41.4452H38.861V40.7159H42.7134V41.3798L39.9269 44.6992H42.8163Z" fill="black"/>
<path d="M47.8071 43.0909H44.4409C44.4721 44.1943 44.9739 44.746 45.9463 44.746C46.4887 44.746 46.9843 44.5683 47.4331 44.213L47.723 44.8862C47.511 45.0733 47.2399 45.2229 46.9095 45.3351C46.5853 45.4411 46.258 45.494 45.9277 45.494C45.1734 45.494 44.5812 45.279 44.151 44.8488C43.7209 44.4125 43.5058 43.8172 43.5058 43.0629C43.5058 42.5829 43.5993 42.1559 43.7864 41.7818C43.9796 41.4078 44.2476 41.1179 44.5905 40.9122C44.9334 40.7065 45.323 40.6037 45.7593 40.6037C46.3952 40.6037 46.8939 40.8094 47.2554 41.2208C47.6232 41.6322 47.8071 42.2026 47.8071 42.932V43.0909ZM45.778 41.305C45.4227 41.305 45.1328 41.4109 44.9084 41.6229C44.684 41.8348 44.5406 42.1372 44.4783 42.5299H46.9749C46.9375 42.1309 46.816 41.8286 46.6102 41.6229C46.4045 41.4109 46.1271 41.305 45.778 41.305Z" fill="black"/>
<path d="M53.2015 38.5465V45.4286H52.2664V44.6244C52.1293 44.905 51.9236 45.12 51.6493 45.2696C51.3812 45.4192 51.0664 45.494 50.7049 45.494C50.2997 45.494 49.9381 45.3912 49.6202 45.1855C49.3023 44.9798 49.0529 44.693 48.8722 44.3252C48.6976 43.9512 48.6103 43.5211 48.6103 43.0348C48.6103 42.5486 48.6976 42.1216 48.8722 41.7538C49.0467 41.386 49.2898 41.1024 49.6015 40.9029C49.9194 40.7034 50.2872 40.6037 50.7049 40.6037C51.0602 40.6037 51.3719 40.6785 51.6399 40.8281C51.9142 40.9777 52.1199 41.1896 52.2571 41.4639V38.5465H53.2015ZM50.9199 44.746C51.3501 44.746 51.6805 44.5995 51.9111 44.3065C52.148 44.0073 52.2664 43.5896 52.2664 43.0535C52.2664 42.5174 52.148 42.1029 51.9111 41.8099C51.6805 41.5107 51.3532 41.3611 50.9293 41.3611C50.4992 41.3611 50.1625 41.5075 49.9194 41.8005C49.6825 42.0935 49.5641 42.505 49.5641 43.0348C49.5641 43.5709 49.6825 43.9917 49.9194 44.2972C50.1625 44.5964 50.4961 44.746 50.9199 44.746Z" fill="black"/>
<path d="M62.5052 45.4286H61.486L60.6538 43.2125C60.5665 42.9756 60.4387 42.8135 60.2704 42.7262C60.1021 42.6327 59.8714 42.586 59.5784 42.586H58.1197V45.4286H57.166V38.7709H59.9057C60.6351 38.7709 61.193 38.933 61.5795 39.2572C61.9722 39.5813 62.1686 40.0457 62.1686 40.6504C62.1686 41.0868 62.0532 41.4577 61.8226 41.7631C61.5919 42.0686 61.2647 42.2837 60.8408 42.4083C61.2273 42.4769 61.5078 42.7512 61.6823 43.2312L62.5052 45.4286ZM59.7935 41.8099C60.2797 41.8099 60.6413 41.7164 60.8782 41.5294C61.1151 41.3361 61.2335 41.0494 61.2335 40.6691C61.2335 40.2888 61.1151 40.0083 60.8782 39.8275C60.6475 39.6405 60.286 39.547 59.7935 39.547H58.1197V41.8099H59.7935Z" fill="black"/>
<path d="M67.6225 43.0909H64.2562C64.2874 44.1943 64.7892 44.746 65.7617 44.746C66.304 44.746 66.7996 44.5683 67.2484 44.213L67.5383 44.8862C67.3264 45.0733 67.0552 45.2229 66.7248 45.3351C66.4007 45.4411 66.0734 45.494 65.743 45.494C64.9887 45.494 64.3965 45.279 63.9664 44.8488C63.5362 44.4125 63.3212 43.8172 63.3212 43.0629C63.3212 42.5829 63.4147 42.1559 63.6017 41.7818C63.7949 41.4078 64.063 41.1179 64.4058 40.9122C64.7487 40.7065 65.1383 40.6037 65.5747 40.6037C66.2105 40.6037 66.7092 40.8094 67.0708 41.2208C67.4386 41.6322 67.6225 42.2026 67.6225 42.932V43.0909ZM65.5934 41.305C65.2381 41.305 64.9482 41.4109 64.7238 41.6229C64.4994 41.8348 64.356 42.1372 64.2936 42.5299H66.7903C66.7529 42.1309 66.6313 41.8286 66.4256 41.6229C66.2199 41.4109 65.9425 41.305 65.5934 41.305Z" fill="black"/>
<path d="M70.3519 45.494C69.5291 45.494 68.8807 45.2946 68.407 44.8956L68.6875 44.213C69.18 44.587 69.7441 44.774 70.38 44.774C70.7041 44.774 70.9504 44.7211 71.1187 44.6151C71.287 44.5029 71.3711 44.347 71.3711 44.1475C71.3711 43.9792 71.3119 43.8483 71.1935 43.7548C71.0813 43.6551 70.888 43.5709 70.6137 43.5024L69.8283 43.3153C69.4168 43.2281 69.102 43.0753 68.8839 42.8572C68.6719 42.6327 68.5659 42.3553 68.5659 42.025C68.5659 41.6011 68.7343 41.2582 69.0709 40.9964C69.4137 40.7346 69.8657 40.6037 70.4267 40.6037C70.7633 40.6037 71.0813 40.6566 71.3805 40.7626C71.6859 40.8686 71.9446 41.0182 72.1566 41.2114L71.8667 41.8753C71.4117 41.5138 70.9317 41.333 70.4267 41.333C70.1213 41.333 69.8844 41.3922 69.7161 41.5107C69.5478 41.6229 69.4636 41.7818 69.4636 41.9875C69.4636 42.1496 69.5166 42.2805 69.6226 42.3803C69.7285 42.48 69.8968 42.5579 70.1275 42.614L70.9317 42.8104C71.3805 42.9101 71.7109 43.0691 71.9228 43.2873C72.141 43.4992 72.2501 43.7766 72.2501 44.1195C72.2501 44.5434 72.0787 44.88 71.7358 45.1294C71.3992 45.3725 70.9379 45.494 70.3519 45.494Z" fill="black"/>
<path d="M77.384 43.0909H74.0178C74.049 44.1943 74.5508 44.746 75.5233 44.746C76.0656 44.746 76.5612 44.5683 77.01 44.213L77.2999 44.8862C77.0879 45.0733 76.8168 45.2229 76.4864 45.3351C76.1622 45.4411 75.835 45.494 75.5046 45.494C74.7503 45.494 74.1581 45.279 73.7279 44.8488C73.2978 44.4125 73.0827 43.8172 73.0827 43.0629C73.0827 42.5829 73.1762 42.1559 73.3633 41.7818C73.5565 41.4078 73.8246 41.1179 74.1674 40.9122C74.5103 40.7065 74.8999 40.6037 75.3362 40.6037C75.9721 40.6037 76.4708 40.8094 76.8324 41.2208C77.2001 41.6322 77.384 42.2026 77.384 42.932V43.0909ZM75.3549 41.305C74.9996 41.305 74.7098 41.4109 74.4853 41.6229C74.2609 41.8348 74.1175 42.1372 74.0552 42.5299H76.5518C76.5144 42.1309 76.3929 41.8286 76.1872 41.6229C75.9814 41.4109 75.704 41.305 75.3549 41.305Z" fill="black"/>
<path d="M78.4678 38.5465H79.4028V45.4286H78.4678V38.5465Z" fill="black"/>
<path d="M80.7872 38.5465H81.7222V45.4286H80.7872V38.5465Z" fill="black"/>
<path d="M87.1273 43.0909H83.7611C83.7923 44.1943 84.2941 44.746 85.2666 44.746C85.8089 44.746 86.3045 44.5683 86.7533 44.213L87.0432 44.8862C86.8312 45.0733 86.5601 45.2229 86.2297 45.3351C85.9055 45.4411 85.5783 45.494 85.2479 45.494C84.4936 45.494 83.9014 45.279 83.4712 44.8488C83.0411 44.4125 82.826 43.8172 82.826 43.0629C82.826 42.5829 82.9196 42.1559 83.1066 41.7818C83.2998 41.4078 83.5679 41.1179 83.9107 40.9122C84.2536 40.7065 84.6432 40.6037 85.0796 40.6037C85.7154 40.6037 86.2141 40.8094 86.5757 41.2208C86.9435 41.6322 87.1273 42.2026 87.1273 42.932V43.0909ZM85.0983 41.305C84.7429 41.305 84.4531 41.4109 84.2286 41.6229C84.0042 41.8348 83.8609 42.1372 83.7985 42.5299H86.2951C86.2577 42.1309 86.1362 41.8286 85.9305 41.6229C85.7247 41.4109 85.4473 41.305 85.0983 41.305Z" fill="black"/>
<path d="M90.5581 40.6037C90.7015 40.6037 90.8511 40.6255 91.0069 40.6691L90.9882 41.5294C90.8199 41.467 90.636 41.4359 90.4365 41.4359C90.0064 41.4359 89.6822 41.5668 89.4641 41.8286C89.2521 42.0842 89.1461 42.4083 89.1461 42.8011V45.4286H88.2111V42.0437C88.2111 41.5512 88.1861 41.1086 88.1363 40.7159H89.0152L89.0994 41.5668C89.2241 41.2551 89.4173 41.0182 89.6791 40.8561C89.9409 40.6878 90.2339 40.6037 90.5581 40.6037Z" fill="black"/>
</svg>
