<svg width="56" height="56" viewBox="0 0 56 56" fill="none" xmlns="http://www.w3.org/2000/svg">
<path fill-rule="evenodd" clip-rule="evenodd" d="M27.5859 7.2627L28.5478 8.22456C32.1162 11.793 36.1854 13.9142 39.3807 15.1433C40.9751 15.7567 42.3417 16.1439 43.3033 16.3767C43.7837 16.4931 44.162 16.5706 44.4158 16.6184C44.5426 16.6423 44.6383 16.6588 44.6999 16.669C44.7308 16.674 44.7531 16.6775 44.7665 16.6796L44.7799 16.6816L44.7807 16.6817L45.9478 16.8485L45.9478 18.0282C45.9478 18.0282 45.9478 18.0288 45.9478 18.0295L45.9478 18.0364L45.9477 18.0527C45.9476 18.0663 45.9475 18.0852 45.9472 18.1094C45.9466 18.1577 45.9455 18.2269 45.9432 18.3159C45.9388 18.4939 45.93 18.751 45.9127 19.0778C45.8781 19.7312 45.8093 20.6649 45.6725 21.8036C45.3992 24.0775 44.8523 27.1876 43.7545 30.525C41.566 37.1787 37.1174 44.9251 28.0912 48.5365L27.5859 48.7386L27.0806 48.5365C18.0408 44.9197 13.7638 37.1569 11.7475 30.494C10.7365 27.1529 10.2769 24.0401 10.0691 21.765C9.96506 20.6256 9.92371 19.6914 9.90847 19.0376C9.90085 18.7105 9.89976 18.4533 9.90065 18.2751C9.9011 18.1861 9.90204 18.1167 9.90291 18.0683C9.90335 18.0441 9.90377 18.0252 9.9041 18.0116L9.90451 17.9952L9.90466 17.9901L9.90471 17.9883C9.90473 17.9876 9.90476 17.987 9.90451 17.9952L9.90475 17.987L9.93903 16.8559L11.0554 16.6841L11.0561 16.684L11.0566 16.6839L11.0682 16.682C11.0801 16.6801 11.1002 16.6767 11.1283 16.6717C11.1845 16.6618 11.2723 16.6455 11.3894 16.6219C11.6236 16.5745 11.9744 16.4975 12.4221 16.3818C13.3182 16.1502 14.599 15.7643 16.1084 15.1523C19.1307 13.9269 23.0429 11.8057 26.624 8.22456L27.5859 7.2627ZM12.6324 19.1328C12.6492 19.7237 12.6889 20.5375 12.7784 21.5175C12.9744 23.663 13.4074 26.5861 14.3515 29.706C16.2051 35.8313 19.9641 42.5319 27.586 45.8012C35.2282 42.5263 39.1524 35.8096 41.1702 29.675C42.1976 26.5514 42.7133 23.6257 42.9713 21.4789C43.086 20.5252 43.1493 19.7289 43.1842 19.1419C43.0243 19.1064 42.8502 19.0662 42.663 19.0209C41.6057 18.7649 40.1247 18.3444 38.4039 17.6825C35.2479 16.4685 31.2508 14.4287 27.5875 11.0707C23.9611 14.4172 20.1324 16.4564 17.1307 17.6735C15.4949 18.3367 14.0982 18.7585 13.103 19.0158C12.9344 19.0594 12.7773 19.0982 12.6324 19.1328Z" fill="black"/>
<path fill-rule="evenodd" clip-rule="evenodd" d="M34.5392 25.0839L26.5629 33.0602L21.7676 28.2649L23.4813 26.5511L26.5629 29.6327L32.8254 23.3701L34.5392 25.0839Z" fill="#006EFF"/>
</svg>
