<svg viewBox="0 0 103 37" xmlns="http://www.w3.org/2000/svg"><path d="m102.6 0h-16.0004v16h16.0004z" fill="#191919"/><path d="m99.9998 9.60001h-3.8v3.69999h-3.2v-3.69999h-3.7v-3.2h3.7v-3.7h3.2v3.7h3.8z" fill="#fff"/><path d="m8.1 1.99998c.9.4 1.7.9 2.4 1.5l-1.7 2c-.5-.5-1.1-.9-1.7-1.2-.6-.2-1.2-.3-1.8-.3-1.2 0-2 .5-2 1.3s.5.8 2.4 1.3l.5.1c3.1.8 4.3 1.5 4.4 3.60002 0 2.4-1.9 4.1-5 4.1-1 0-2-.2-2.9-.5-1-.4-1.9-1-2.7-1.8l1.7-2c.6.6 1.3 1.1 2 1.4.6.3 1.3.4 1.9.4 1.3 0 2.2-.5 2.2-1.4 0-.90002-.5-.90002-2.1-1.30002-.3 0-.6-.1-.9-.2-3.3-.8-4.2-1.7-4.2-3.6 0-2 1.9-3.8 4.8-3.8.9 0 1.8.1 2.7.4z" fill="#191919"/><path d="m30 14.1h-2.8v-5.29998h-4.9v5.29998h-2.8v-12.19998h2.8v4.6h4.9v-4.6h2.8z" fill="#191919"/><path d="m42.5002 1.90002h-2.8v12.19998h2.8z" fill="#191919"/><path d="m61.0002 4.20002h-6v2.8h5.5v2.3h-5.5v4.79998h-2.8v-12.19998h8.7z" fill="#191919"/><path d="m79.2 4.30002h-3.5v9.79998h-2.8v-9.79998h-3.4v-2.4h9.7z" fill="#191919"/><g fill="#000"><path d="m13.9239 33.3632h-3.348l-.70682 1.6368h-.9765l2.94812-6.6216h.8091l2.9574 6.6216h-.9765zm-.3255-.7626-1.3485-3.1527-1.3485 3.1527z"/><path d="m20.4544 30.3128v4.6872h-.9114v-.7812c-.1488.2728-.3534.4836-.6138.6324-.2604.1426-.5549.2139-.8835.2139-1.1284 0-1.6926-.6262-1.6926-1.8786v-2.8737h.93v2.8644c0 .3844.0775.6696.2325.8556.1612.1798.403.2697.7254.2697.3844 0 .6913-.124.9207-.372.2356-.248.3534-.5766.3534-.9858v-2.6319z"/><path d="m23.0486 31.0382v2.3529c0 .3224.0682.5518.2046.6882.1426.1302.3379.1953.5859.1953.1612 0 .3255-.0248.4929-.0744v.7626c-.2046.0682-.4371.1023-.6975.1023-.4836 0-.8587-.1364-1.1253-.4092s-.3999-.6696-.3999-1.1904v-2.4273h-.9114v-.7254h.9114v-1.1718l.9393-.3255v1.4973h1.2927v.7254z"/><path d="m27.7012 30.2012c1.1222 0 1.6833.6262 1.6833 1.8786v2.9202h-.9393v-2.8644c0-.4092-.0806-.7068-.2418-.8928-.155-.186-.4061-.279-.7533-.279-.3968 0-.7161.124-.9579.372-.2356.248-.3534.5797-.3534.9951v2.6691h-.93v-6.8448h.93v2.883c.155-.2728.3689-.4805.6417-.6231s.5797-.2139.9207-.2139z"/><path d="m32.7397 35.0651c-.4588 0-.8618-.0992-1.209-.2976s-.6169-.4805-.8091-.8463c-.186-.3658-.279-.7936-.279-1.2834s.093-.9176.279-1.2834c.1922-.372.4619-.6572.8091-.8556s.7502-.2976 1.209-.2976c.4526 0 .8525.0992 1.1997.2976s.6138.4836.7998.8556c.1922.3658.2883.7936.2883 1.2834s-.0961.9176-.2883 1.2834c-.186.3658-.4526.6479-.7998.8463s-.7471.2976-1.1997.2976zm-.0093-.744c.434 0 .7657-.1426.9951-.4278s.3441-.7037.3441-1.2555c0-.5394-.1178-.9548-.3534-1.2462-.2294-.2914-.5549-.4371-.9765-.4371-.4278 0-.7595.1457-.9951.4371s-.3534.7068-.3534 1.2462c0 .5518.1147.9703.3441 1.2555.2356.2852.5673.4278.9951.4278z"/><path d="m38.4597 30.2012c.1426 0 .2914.0217.4464.0651l-.0186.8556c-.1674-.062-.3503-.093-.5487-.093-.4278 0-.7502.1302-.9672.3906-.2108.2542-.3162.5766-.3162.9672v2.6133h-.93v-3.3666c0-.4898-.0248-.93-.0744-1.3206h.8742l.0837.8463c.124-.31.3162-.5456.5766-.7068.2604-.1674.5518-.2511.8742-.2511z"/><path d="m39.622 30.3128h.93v4.6872h-.93zm1.0044-2.046v.9858h-1.0881v-.9858z"/><path d="m45.7139 34.2746v.7254h-4.0083v-.651l2.7714-3.3108h-2.697v-.7254h3.8316v.6603l-2.7714 3.3015z"/><path d="m50.6777 32.675h-3.348c.031 1.0974.5301 1.6461 1.4973 1.6461.5394 0 1.0323-.1767 1.4787-.5301l.2883.6696c-.2108.186-.4805.3348-.8091.4464-.3224.1054-.6479.1581-.9765.1581-.7502 0-1.3392-.2139-1.767-.6417-.4278-.434-.6417-1.0261-.6417-1.7763 0-.4774.093-.9021.279-1.2741.1922-.372.4588-.6603.7998-.8649s.7285-.3069 1.1625-.3069c.6324 0 1.1284.2046 1.488.6138.3658.4092.5487.9765.5487 1.7019zm-2.0181-1.7763c-.3534 0-.6417.1054-.8649.3162s-.3658.5115-.4278.9021h2.4831c-.0372-.3968-.1581-.6975-.3627-.9021-.2046-.2108-.4805-.3162-.8277-.3162z"/><path d="m56.0429 28.1552v6.8448h-.93v-.7998c-.1364.279-.341.4929-.6138.6417-.2666.1488-.5797.2232-.9393.2232-.403 0-.7626-.1023-1.0788-.3069s-.5642-.4898-.744-.8556c-.1736-.372-.2604-.7998-.2604-1.2834s.0868-.9083.2604-1.2741.4154-.6479.7254-.8463c.3162-.1984.682-.2976 1.0974-.2976.3534 0 .6634.0744.93.2232.2728.1488.4774.3596.6138.6324v-2.9016zm-2.2692 6.1659c.4278 0 .7564-.1457.9858-.4371.2356-.2976.3534-.713.3534-1.2462s-.1178-.9455-.3534-1.2369c-.2294-.2976-.5549-.4464-.9765-.4464-.4278 0-.7626.1457-1.0044.4371-.2356.2914-.3534.7006-.3534 1.2276 0 .5332.1178.9517.3534 1.2555.2418.2976.5735.4464.9951.4464z"/><path d="m65.2961 35h-1.0137l-.8277-2.2041c-.0868-.2356-.2139-.3968-.3813-.4836-.1674-.093-.3968-.1395-.6882-.1395h-1.4508v2.8272h-.9486v-6.6216h2.7249c.7254 0 1.2803.1612 1.6647.4836.3906.3224.5859.7843.5859 1.3857 0 .434-.1147.8029-.3441 1.1067s-.5549.5177-.9765.6417c.3844.0682.6634.341.837.8184zm-2.697-3.5991c.4836 0 .8432-.093 1.0788-.279.2356-.1922.3534-.4774.3534-.8556s-.1178-.6572-.3534-.837c-.2294-.186-.589-.279-1.0788-.279h-1.6647v2.2506z"/><path d="m70.3857 32.675h-3.348c.031 1.0974.5301 1.6461 1.4973 1.6461.5394 0 1.0323-.1767 1.4787-.5301l.2883.6696c-.2108.186-.4805.3348-.8091.4464-.3224.1054-.6479.1581-.9765.1581-.7502 0-1.3392-.2139-1.767-.6417-.4278-.434-.6417-1.0261-.6417-1.7763 0-.4774.093-.9021.279-1.2741.1922-.372.4588-.6603.7998-.8649s.7285-.3069 1.1625-.3069c.6324 0 1.1284.2046 1.488.6138.3658.4092.5487.9765.5487 1.7019zm-2.0181-1.7763c-.3534 0-.6417.1054-.8649.3162s-.3658.5115-.4278.9021h2.4831c-.0372-.3968-.1581-.6975-.3627-.9021-.2046-.2108-.4805-.3162-.8277-.3162z"/><path d="m72.6365 31.0382v2.3529c0 .3224.0682.5518.2046.6882.1426.1302.3378.1953.5858.1953.1613 0 .3256-.0248.493-.0744v.7626c-.2046.0682-.4372.1023-.6975.1023-.4836 0-.8587-.1364-1.1253-.4092s-.3999-.6696-.3999-1.1904v-2.4273h-.9114v-.7254h.9114v-1.1718l.9393-.3255v1.4973h1.2927v.7254z"/><path d="m79.084 30.3128v4.6872h-.93v-.7998c-.1364.279-.341.4929-.6138.6417-.2666.1488-.5797.2232-.9393.2232-.4154 0-.7812-.0992-1.0974-.2976-.31-.1984-.5518-.4774-.7254-.837-.1736-.3658-.2604-.7905-.2604-1.2741s.0868-.9114.2604-1.2834c.1798-.372.4278-.6603.744-.8649s.6758-.3069 1.0788-.3069c.3596 0 .6727.0775.9393.2325.2666.1488.4712.3627.6138.6417v-.7626zm-2.2599 4.0083c.4216 0 .7471-.1457.9765-.4371.2356-.2976.3534-.713.3534-1.2462 0-.5394-.1178-.9548-.3534-1.2462-.2294-.2914-.558-.4371-.9858-.4371-.4216 0-.7533.1519-.9951.4557-.2356.2976-.3534.713-.3534 1.2462 0 .527.1178.9362.3534 1.2276.2418.2914.5766.4371 1.0044.4371z"/><path d="m80.4639 30.3128h.93v4.6872h-.93zm1.0043-2.046v.9858h-1.0881v-.9858z"/><path d="m82.7707 28.1552h.93v6.8448h-.93z"/><path d="m89.0765 32.675h-3.348c.031 1.0974.5301 1.6461 1.4973 1.6461.5394 0 1.0323-.1767 1.4787-.5301l.2883.6696c-.2108.186-.4805.3348-.8091.4464-.3224.1054-.6479.1581-.9765.1581-.7502 0-1.3392-.2139-1.767-.6417-.4278-.434-.6417-1.0261-.6417-1.7763 0-.4774.093-.9021.279-1.2741.1922-.372.4588-.6603.7998-.8649s.7285-.3069 1.1625-.3069c.6324 0 1.1284.2046 1.488.6138.3658.4092.5487.9765.5487 1.7019zm-2.0181-1.7763c-.3534 0-.6417.1054-.8649.3162s-.3658.5115-.4278.9021h2.4831c-.0372-.3968-.1581-.6975-.3627-.9021-.2046-.2108-.4805-.3162-.8277-.3162z"/><path d="m92.4887 30.2012c.1426 0 .2914.0217.4464.0651l-.0186.8556c-.1674-.062-.3503-.093-.5487-.093-.4278 0-.7502.1302-.9672.3906-.2108.2542-.3162.5766-.3162.9672v2.6133h-.93v-3.3666c0-.4898-.0248-.93-.0744-1.3206h.8742l.0837.8463c.124-.31.3162-.5456.5766-.7068.2604-.1674.5518-.2511.8742-.2511z"/></g></svg>