<svg xmlns="http://www.w3.org/2000/svg" viewBox="0 0 123.6 33.5" width="170" height="46">
<style type="text/css">
	.st0{fill:#191919;}
	.st1{fill:#FFFFFF;}
</style>
<rect x="97.2" y="8.6" class="st0" width="16" height="16"/>
<polygon class="st1" points="110.5,18.2 106.8,18.2 106.8,21.9 103.6,21.9 103.6,18.2 99.8,18.2 99.8,15 103.6,15 103.6,11.2 
	106.8,11.2 106.8,15 110.5,15 "/>
<path class="st0" d="M18.6,10.6c0.9,0.4,1.7,0.9,2.4,1.5l-1.6,1.9c-0.5-0.5-1.1-0.9-1.7-1.2c-0.5-0.2-1.1-0.3-1.7-0.3
	c-1.2,0-2,0.5-2,1.3s0.4,0.8,2.4,1.3l0.5,0.1c3.1,0.8,4.4,1.5,4.4,3.6c0,2.4-1.9,4.1-5,4.1c-1,0-2-0.2-2.9-0.5c-1-0.4-1.9-1-2.7-1.8
	l1.7-2c0.6,0.6,1.3,1.1,2,1.4c0.6,0.3,1.3,0.4,1.9,0.4c1.3,0,2.2-0.5,2.2-1.4s-0.5-0.9-2.1-1.3c-0.3,0-0.6-0.1-0.9-0.2
	c-3.3-0.9-4.3-1.8-4.3-3.6c0-2,1.9-3.8,4.8-3.8C16.9,10.1,17.8,10.3,18.6,10.6"/>
<polygon class="st0" points="40.5,22.7 37.7,22.7 37.7,17.4 32.8,17.4 32.8,22.7 30,22.7 30,10.5 32.8,10.5 32.8,15.1 37.8,15.1 
	37.8,10.5 40.5,10.5 "/>
<rect x="50.2" y="10.5" class="st0" width="2.8" height="12.2"/>
<polygon class="st0" points="71.5,12.8 65.5,12.8 65.5,15.6 71.1,15.6 71.1,17.9 65.5,17.9 65.5,22.7 62.7,22.7 62.7,10.5 
	71.5,10.5 "/>
<polygon class="st0" points="89.7,12.9 86.2,12.9 86.2,22.7 83.5,22.7 83.5,12.9 80,12.9 80,10.5 89.7,10.5 "/>
</svg>
