<svg width="57" height="56" viewBox="0 0 57 56" fill="none" xmlns="http://www.w3.org/2000/svg">
<path fill-rule="evenodd" clip-rule="evenodd" d="M27.2272 25.5967L8.04492 25.5967L8.04492 23.1215L27.2272 23.1215L27.2272 25.5967Z" fill="#006EFF"/>
<path fill-rule="evenodd" clip-rule="evenodd" d="M23.8229 30.5469L4.64062 30.5469L4.64063 28.0717L23.8229 28.0717L23.8229 30.5469Z" fill="#006EFF"/>
<path fill-rule="evenodd" clip-rule="evenodd" d="M19.1823 35.4971L0 35.4971L2.16383e-07 33.0219L19.1823 33.0219L19.1823 35.4971Z" fill="#006EFF"/>
<path fill-rule="evenodd" clip-rule="evenodd" d="M8.35352 15.0771H38.9833V44.7788H23.1565V42.3037H36.5082V17.5523H10.8287V21.1103H8.35352V15.0771ZM10.8287 42.3037V38.7457H8.35352V44.7788H15.478V42.3037H10.8287Z" fill="black"/>
<path fill-rule="evenodd" clip-rule="evenodd" d="M36.5098 20.9551H47.5106L56.0015 33.8956V44.7783H50.5098V42.3031H53.5263V34.6351L46.1742 23.4302H38.9849V42.3031H42.1482V44.7783H36.5098V20.9551Z" fill="black"/>
<path fill-rule="evenodd" clip-rule="evenodd" d="M19.4929 46.6356C21.2016 46.6356 22.5868 45.2504 22.5868 43.5417C22.5868 41.833 21.2016 40.4478 19.4929 40.4478C17.7842 40.4478 16.399 41.833 16.399 43.5417C16.399 45.2504 17.7842 46.6356 19.4929 46.6356ZM19.4929 49.1108C22.5686 49.1108 25.0619 46.6174 25.0619 43.5417C25.0619 40.466 22.5686 37.9727 19.4929 37.9727C16.4172 37.9727 13.9238 40.466 13.9238 43.5417C13.9238 46.6174 16.4172 49.1108 19.4929 49.1108Z" fill="black"/>
<path fill-rule="evenodd" clip-rule="evenodd" d="M46.4089 46.6356C48.1176 46.6356 49.5028 45.2504 49.5028 43.5417C49.5028 41.833 48.1176 40.4478 46.4089 40.4478C44.7002 40.4478 43.315 41.833 43.315 43.5417C43.315 45.2504 44.7002 46.6356 46.4089 46.6356ZM46.4089 49.1108C49.4846 49.1108 51.978 46.6174 51.978 43.5417C51.978 40.466 49.4846 37.9727 46.4089 37.9727C43.3332 37.9727 40.8398 40.466 40.8398 43.5417C40.8398 46.6174 43.3332 49.1108 46.4089 49.1108Z" fill="black"/>
</svg>
